{
copyright = "Copyright (c) 2015, Cadson Demak (info@cadsondemak.com)";
customParameters = (
{
name = vendorID;
value = CDK;
},
{
name = license;

glyphs = (
{
glyphname = A;
layers = (
{
layerId = "0EFCFE59-F23A-4210-A5A1-DE9F39E2245D";
name = Regular;
paths = (
{
closed = 1;
nodes = (
"750 0 LINE",
"750 20 LINE",
"713 24 LINE SMOOTH",
"697 26 OFFCURVE",
"692 32 OFFCURVE",
"685 48 CURVE SMOOTH",
"392 711 LINE",
"360 711 LINE",
"83 48 LINE SMOOTH",
"76 32 OFFCURVE",
"71 26 OFFCURVE",
"55 24 CURVE SMOOTH",
"18 20 LINE",
"18 0 LINE",
"170 0 LINE",
"170 20 LINE",
"127 24 LINE SMOOTH",
"114 25 OFFCURVE",
"110 32 OFFCURVE",
"116 47 CURVE SMOOTH",
"176 193 LINE",
"408 193 LINE",
"474 47 LINE SMOOTH",
"481 32 OFFCURVE",
"476 25 OFFCURVE",
"463 24 CURVE SMOOTH",
"420 20 LINE",
"420 0 LINE"
);
},
{
closed = 1;
nodes = (
"287 462 LINE",
"395 223 LINE",
"188 223 LINE"
);
}
);
width = 768;
}
);
unicode = 0041;
},
{
glyphname = Aacute;
layers = (
{
layerId = "0EFCFE59-F23A-4210-A5A1-DE9F39E2245D";
name = Regular;
paths = (
{
closed = 1;
nodes = (
"750 0 LINE",
"750 20 LINE",
"713 24 LINE SMOOTH",
"697 26 OFFCURVE",
"692 32 OFFCURVE",
"685 48 CURVE SMOOTH",
"392 711 LINE",
"360 711 LINE",
"83 48 LINE SMOOTH",
"76 32 OFFCURVE",
"71 26 OFFCURVE",
"55 24 CURVE SMOOTH",
"18 20 LINE",
"18 0 LINE",
"170 0 LINE",
"170 20 LINE",
"127 24 LINE SMOOTH",
"114 25 OFFCURVE",
"110 32 OFFCURVE",
"116 47 CURVE SMOOTH",
"176 193 LINE",
"408 193 LINE",
"474 47 LINE SMOOTH",
"481 32 OFFCURVE",
"476 25 OFFCURVE",
"463 24 CURVE SMOOTH",
"420 20 LINE",
"420 0 LINE"
);
},
{
closed = 1;
nodes = (
"287 462 LINE",
"395 223 LINE",
"188 223 LINE"
);
},
{
closed = 1;
nodes = (
"489 867 OFFCURVE",
"412 813 OFFCURVE",
"357 771 CURVE",
"362 760 LINE",
"423 770 OFFCURVE",
"527 797 OFFCURVE",
"588 825 CURVE",
"587 863 OFFCURVE",
"562 898 OFFCURVE",
"532 912 CURVE"
);
}
);
width = 768;
}
);
unicode = 00C1;
},
{
glyphname = Abreve;
layers = (
{
layerId = "0EFCFE59-F23A-4210-A5A1-DE9F39E2245D";
name = Regular;
paths = (
{
closed = 1;
nodes = (
"750 0 LINE",
"750 20 LINE",
"713 24 LINE SMOOTH",
"697 26 OFFCURVE",
"692 32 OFFCURVE",
"685 48 CURVE SMOOTH",
"392 711 LINE",
"360 711 LINE",
"83 48 LINE SMOOTH",
"76 32 OFFCURVE",
"71 26 OFFCURVE",
"55 24 CURVE SMOOTH",
"18 20 LINE",
"18 0 LINE",
"170 0 LINE",
"170 20 LINE",
"127 24 LINE SMOOTH",
"114 25 OFFCURVE",
"110 32 OFFCURVE",
"116 47 CURVE SMOOTH",
"176 193 LINE",
"408 193 LINE",
"474 47 LINE SMOOTH",
"481 32 OFFCURVE",
"476 25 OFFCURVE",
"463 24 CURVE SMOOTH",
"420 20 LINE",
"420 0 LINE"
);
},
{
closed = 1;
nodes = (
"287 462 LINE",
"395 223 LINE",
"188 223 LINE"
);
},
{
closed = 1;
nodes = (
"467 760 OFFCURVE",
"510 820 OFFCURVE",
"512 913 CURVE",
"492 913 LINE",
"479 862 OFFCURVE",
"453 837 OFFCURVE",
"374 837 CURVE SMOOTH",
"295 837 OFFCURVE",
"269 862 OFFCURVE",
"256 913 CURVE",
"236 913 LINE",
"238 820 OFFCURVE",
"281 760 OFFCURVE",
"374 760 CURVE SMOOTH"
);
}
);
width = 768;
}
);
unicode = 0102;
},
{
glyphname = Abreveacute;
layers = (
{
layerId = "0EFCFE59-F23A-4210-A5A1-DE9F39E2245D";
name = Regular;
paths = (
{
closed = 1;
nodes = (
"750 0 LINE",
"750 20 LINE",
"713 24 LINE SMOOTH",
"697 26 OFFCURVE",
"692 32 OFFCURVE",
"685 48 CURVE SMOOTH",
"392 711 LINE",
"360 711 LINE",
"83 48 LINE SMOOTH",
"76 32 OFFCURVE",
"71 26 OFFCURVE",
"55 24 CURVE SMOOTH",
"18 20 LINE",
"18 0 LINE",
"170 0 LINE",
"170 20 LINE",
"127 24 LINE SMOOTH",
"114 25 OFFCURVE",
"110 32 OFFCURVE",
"116 47 CURVE SMOOTH",
"176 193 LINE",
"408 193 LINE",
"474 47 LINE SMOOTH",
"481 32 OFFCURVE",
"476 25 OFFCURVE",
"463 24 CURVE SMOOTH",
"420 20 LINE",
"420 0 LINE"
);
},
{
closed = 1;
nodes = (
"287 462 LINE",
"395 223 LINE",
"188 223 LINE"
);
},
{
closed = 1;
nodes = (
"457 760 OFFCURVE",
"506 804 OFFCURVE",
"508 897 CURVE",
"488 897 LINE",
"475 846 OFFCURVE",
"443 827 OFFCURVE",
"374 827 CURVE SMOOTH",
"305 827 OFFCURVE",
"273 846 OFFCURVE",
"260 897 CURVE",
"240 897 LINE",
"242 804 OFFCURVE",
"291 760 OFFCURVE",
"374 760 CURVE SMOOTH"
);
},
{
closed = 1;
nodes = (
"410 985 OFFCURVE",
"379 937 OFFCURVE",
"344 886 CURVE",
"355 876 LINE",
"404 901 OFFCURVE",
"453 941 OFFCURVE",
"501 984 CURVE",
"490 1013 OFFCURVE",
"463 1034 OFFCURVE",
"435 1036 CURVE"
);
}
);
width = 768;
}
);
unicode = 1EAE;
},
{
glyphname = Abrevedotbelow;
layers = (
{
layerId = "0EFCFE59-F23A-4210-A5A1-DE9F39E2245D";
name = Regular;
paths = (
{
closed = 1;
nodes = (
"750 0 LINE",
"750 20 LINE",
"713 24 LINE SMOOTH",
"697 26 OFFCURVE",
"692 32 OFFCURVE",
"685 48 CURVE SMOOTH",
"392 711 LINE",
"360 711 LINE",
"83 48 LINE SMOOTH",
"76 32 OFFCURVE",
"71 26 OFFCURVE",
"55 24 CURVE SMOOTH",
"18 20 LINE",
"18 0 LINE",
"170 0 LINE",
"170 20 LINE",
"127 24 LINE SMOOTH",
"114 25 OFFCURVE",
"110 32 OFFCURVE",
"116 47 CURVE SMOOTH",
"176 193 LINE",
"408 193 LINE",
"474 47 LINE SMOOTH",
"481 32 OFFCURVE",
"476 25 OFFCURVE",
"463 24 CURVE SMOOTH",
"420 20 LINE",
"420 0 LINE"
);
},
{
closed = 1;
nodes = (
"287 462 LINE",
"395 223 LINE",
"188 223 LINE"
);
},
{
closed = 1;
nodes = (
"467 760 OFFCURVE",
"510 820 OFFCURVE",
"512 913 CURVE",
"492 913 LINE",
"479 862 OFFCURVE",
"453 837 OFFCURVE",
"374 837 CURVE SMOOTH",
"295 837 OFFCURVE",
"269 862 OFFCURVE",
"256 913 CURVE",
"236 913 LINE",
"238 820 OFFCURVE",
"281 760 OFFCURVE",
"374 760 CURVE SMOOTH"
);
},
{
closed = 1;
nodes = (
"352 -208 OFFCURVE",
"387 -182 OFFCURVE",
"387 -133 CURVE SMOOTH",
"387 -84 OFFCURVE",
"352 -58 OFFCURVE",
"304 -58 CURVE SMOOTH",
"256 -58 OFFCURVE",
"221 -84 OFFCURVE",
"221 -133 CURVE SMOOTH",
"221 -182 OFFCURVE",
"256 -208 OFFCURVE",
"304 -208 CURVE SMOOTH"
);
}
);
width = 768;
}
);
unicode = 1EB6;
},
{
glyphname = Abrevegrave;
layers = (
{
layerId = "0EFCFE59-F23A-4210-A5A1-DE9F39E2245D";
name = Regular;
paths = (
{
closed = 1;
nodes = (
"750 0 LINE",
"750 20 LINE",
"713 24 LINE SMOOTH",
"697 26 OFFCURVE",
"692 32 OFFCURVE",
"685 48 CURVE SMOOTH",
"392 711 LINE",
"360 711 LINE",
"83 48 LINE SMOOTH",
"76 32 OFFCURVE",
"71 26 OFFCURVE",
"55 24 CURVE SMOOTH",
"18 20 LINE",
"18 0 LINE",
"170 0 LINE",
"170 20 LINE",
"127 24 LINE SMOOTH",
"114 25 OFFCURVE",
"110 32 OFFCURVE",
"116 47 CURVE SMOOTH",
"176 193 LINE",
"408 193 LINE",
"474 47 LINE SMOOTH",
"481 32 OFFCURVE",
"476 25 OFFCURVE",
"463 24 CURVE SMOOTH",
"420 20 LINE",
"420 0 LINE"
);
},
{
closed = 1;
nodes = (
"287 462 LINE",
"395 223 LINE",
"188 223 LINE"
);
},
{
closed = 1;
nodes = (
"457 760 OFFCURVE",
"506 804 OFFCURVE",
"508 897 CURVE",
"488 897 LINE",
"475 846 OFFCURVE",
"443 827 OFFCURVE",
"374 827 CURVE SMOOTH",
"305 827 OFFCURVE",
"273 846 OFFCURVE",
"260 897 CURVE",
"240 897 LINE",
"242 804 OFFCURVE",
"291 760 OFFCURVE",
"374 760 CURVE SMOOTH"
);
},
{
closed = 1;
nodes = (
"285 1034 OFFCURVE",
"258 1013 OFFCURVE",
"247 984 CURVE",
"295 941 OFFCURVE",
"344 901 OFFCURVE",
"393 876 CURVE",
"404 886 LINE",
"369 937 OFFCURVE",
"338 985 OFFCURVE",
"313 1036 CURVE"
);
}
);
width = 768;
}
);
unicode = 1EB0;
},
{
glyphname = Abrevehookabove;
layers = (
{
layerId = "0EFCFE59-F23A-4210-A5A1-DE9F39E2245D";
name = Regular;
paths = (
{
closed = 1;
nodes = (
"750 0 LINE",
"750 20 LINE",
"713 24 LINE SMOOTH",
"697 26 OFFCURVE",
"692 32 OFFCURVE",
"685 48 CURVE SMOOTH",
"392 711 LINE",
"360 711 LINE",
"83 48 LINE SMOOTH",
"76 32 OFFCURVE",
"71 26 OFFCURVE",
"55 24 CURVE SMOOTH",
"18 20 LINE",
"18 0 LINE",
"170 0 LINE",
"170 20 LINE",
"127 24 LINE SMOOTH",
"114 25 OFFCURVE",
"110 32 OFFCURVE",
"116 47 CURVE SMOOTH",
"176 193 LINE",
"408 193 LINE",
"474 47 LINE SMOOTH",
"481 32 OFFCURVE",
"476 25 OFFCURVE",
"463 24 CURVE SMOOTH",
"420 20 LINE",
"420 0 LINE"
);
},
{
closed = 1;
nodes = (
"287 462 LINE",
"395 223 LINE",
"188 223 LINE"
);
},
{
closed = 1;
nodes = (
"457 760 OFFCURVE",
"506 804 OFFCURVE",
"508 897 CURVE",
"488 897 LINE",
"475 846 OFFCURVE",
"443 827 OFFCURVE",
"374 827 CURVE SMOOTH",
"305 827 OFFCURVE",
"273 846 OFFCURVE",
"260 897 CURVE",
"240 897 LINE",
"242 804 OFFCURVE",
"291 760 OFFCURVE",
"374 760 CURVE SMOOTH"
);
},
{
closed = 1;
nodes = (
"389 908 LINE",
"438 919 OFFCURVE",
"467 942 OFFCURVE",
"467 981 CURVE SMOOTH",
"467 1023 OFFCURVE",
"436 1038 OFFCURVE",
"389 1038 CURVE SMOOTH",
"346 1038 OFFCURVE",
"318 1027 OFFCURVE",
"299 1017 CURVE",
"305 1001 LINE",
"323 1009 OFFCURVE",
"335 1013 OFFCURVE",
"355 1013 CURVE SMOOTH",
"378 1013 OFFCURVE",
"388 1003 OFFCURVE",
"388 983 CURVE SMOOTH",
"388 949 OFFCURVE",
"376 935 OFFCURVE",
"353 920 CURVE",
"359 878 LINE",
"385 878 LINE"
);
}
);
width = 768;
}
);
unicode = 1EB2;
},
{
glyphname = Abrevetilde;
layers = (
{
layerId = "0EFCFE59-F23A-4210-A5A1-DE9F39E2245D";
name = Regular;
paths = (
{
closed = 1;
nodes = (
"750 0 LINE",
"750 20 LINE",
"713 24 LINE SMOOTH",
"697 26 OFFCURVE",
"692 32 OFFCURVE",
"685 48 CURVE SMOOTH",
"392 711 LINE",
"360 711 LINE",
"83 48 LINE SMOOTH",
"76 32 OFFCURVE",
"71 26 OFFCURVE",
"55 24 CURVE SMOOTH",
"18 20 LINE",
"18 0 LINE",
"170 0 LINE",
"170 20 LINE",
"127 24 LINE SMOOTH",
"114 25 OFFCURVE",
"110 32 OFFCURVE",
"116 47 CURVE SMOOTH",
"176 193 LINE",
"408 193 LINE",
"474 47 LINE SMOOTH",
"481 32 OFFCURVE",
"476 25 OFFCURVE",
"463 24 CURVE SMOOTH",
"420 20 LINE",
"420 0 LINE"
);
},
{
closed = 1;
nodes = (
"287 462 LINE",
"395 223 LINE",
"188 223 LINE"
);
},
{
closed = 1;
nodes = (
"457 760 OFFCURVE",
"506 804 OFFCURVE",
"508 897 CURVE",
"488 897 LINE",
"475 846 OFFCURVE",
"443 827 OFFCURVE",
"374 827 CURVE SMOOTH",
"305 827 OFFCURVE",
"273 846 OFFCURVE",
"260 897 CURVE",
"240 897 LINE",
"242 804 OFFCURVE",
"291 760 OFFCURVE",
"374 760 CURVE SMOOTH"
);
},
{
closed = 1;
nodes = (
"491 930 OFFCURVE",
"517 986 OFFCURVE",
"532 1025 CURVE",
"518 1031 LINE",
"500 1007 LINE SMOOTH",
"490 993 OFFCURVE",
"467 989 OFFCURVE",
"448 996 CURVE SMOOTH",
"373 1025 OFFCURVE",
"326 1042 OFFCURVE",
"303 1042 CURVE SMOOTH",
"257 1042 OFFCURVE",
"230 985 OFFCURVE",
"216 946 CURVE",
"229 941 LINE",
"248 964 LINE",
"258 978 OFFCURVE",
"281 983 OFFCURVE",
"299 976 CURVE SMOOTH",
"374 946 OFFCURVE",
"421 930 OFFCURVE",
"445 930 CURVE SMOOTH"
);
}
);
width = 768;
}
);
unicode = 1EB4;
},
{
glyphname = Acaron;
layers = (
{
layerId = "0EFCFE59-F23A-4210-A5A1-DE9F39E2245D";
name = Regular;
paths = (
{
closed = 1;
nodes = (
"750 0 LINE",
"750 20 LINE",
"713 24 LINE SMOOTH",
"697 26 OFFCURVE",
"692 32 OFFCURVE",
"685 48 CURVE SMOOTH",
"392 711 LINE",
"360 711 LINE",
"83 48 LINE SMOOTH",
"76 32 OFFCURVE",
"71 26 OFFCURVE",
"55 24 CURVE SMOOTH",
"18 20 LINE",
"18 0 LINE",
"170 0 LINE",
"170 20 LINE",
"127 24 LINE SMOOTH",
"114 25 OFFCURVE",
"110 32 OFFCURVE",
"116 47 CURVE SMOOTH",
"176 193 LINE",
"408 193 LINE",
"474 47 LINE SMOOTH",
"481 32 OFFCURVE",
"476 25 OFFCURVE",
"463 24 CURVE SMOOTH",
"420 20 LINE",
"420 0 LINE"
);
},
{
closed = 1;
nodes = (
"287 462 LINE",
"395 223 LINE",
"188 223 LINE"
);
},
{
closed = 1;
nodes = (
"401 760 LINE",
"440 809 OFFCURVE",
"486 856 OFFCURVE",
"535 897 CURVE",
"524 912 LINE",
"474 895 OFFCURVE",
"425 872 OFFCURVE",
"375 843 CURVE",
"325 872 OFFCURVE",
"276 895 OFFCURVE",
"226 912 CURVE",
"215 897 LINE",
"265 856 OFFCURVE",
"310 809 OFFCURVE",
"349 760 CURVE"
);
}
);
width = 760;
}
);
unicode = 01CD;
},
{
glyphname = Acircumflex;
layers = (
{
layerId = "0EFCFE59-F23A-4210-A5A1-DE9F39E2245D";
name = Regular;
paths = (
{
closed = 1;
nodes = (
"750 0 LINE",
"750 20 LINE",
"713 24 LINE SMOOTH",
"697 26 OFFCURVE",
"692 32 OFFCURVE",
"685 48 CURVE SMOOTH",
"392 711 LINE",
"360 711 LINE",
"83 48 LINE SMOOTH",
"76 32 OFFCURVE",
"71 26 OFFCURVE",
"55 24 CURVE SMOOTH",
"18 20 LINE",
"18 0 LINE",
"170 0 LINE",
"170 20 LINE",
"127 24 LINE SMOOTH",
"114 25 OFFCURVE",
"110 32 OFFCURVE",
"116 47 CURVE SMOOTH",
"176 193 LINE",
"408 193 LINE",
"474 47 LINE SMOOTH",
"481 32 OFFCURVE",
"476 25 OFFCURVE",
"463 24 CURVE SMOOTH",
"420 20 LINE",
"420 0 LINE"
);
},
{
closed = 1;
nodes = (
"287 462 LINE",
"395 223 LINE",
"188 223 LINE"
);
},
{
closed = 1;
nodes = (
"348 912 LINE",
"309 863 OFFCURVE",
"264 816 OFFCURVE",
"214 775 CURVE",
"225 760 LINE",
"275 777 OFFCURVE",
"324 800 OFFCURVE",
"374 829 CURVE",
"424 800 OFFCURVE",
"473 777 OFFCURVE",
"523 760 CURVE",
"534 775 LINE",
"485 816 OFFCURVE",
"439 863 OFFCURVE",
"400 912 CURVE"
);
}
);
width = 768;
}
);
unicode = 00C2;
},
{
glyphname = Acircumflexacute;
layers = (
{
layerId = "0EFCFE59-F23A-4210-A5A1-DE9F39E2245D";
name = Regular;
paths = (
{
closed = 1;
nodes = (
"750 0 LINE",
"750 20 LINE",
"713 24 LINE SMOOTH",
"697 26 OFFCURVE",
"692 32 OFFCURVE",
"685 48 CURVE SMOOTH",
"392 711 LINE",
"360 711 LINE",
"83 48 LINE SMOOTH",
"76 32 OFFCURVE",
"71 26 OFFCURVE",
"55 24 CURVE SMOOTH",
"18 20 LINE",
"18 0 LINE",
"170 0 LINE",
"170 20 LINE",
"127 24 LINE SMOOTH",
"114 25 OFFCURVE",
"110 32 OFFCURVE",
"116 47 CURVE SMOOTH",
"176 193 LINE",
"408 193 LINE",
"474 47 LINE SMOOTH",
"481 32 OFFCURVE",
"476 25 OFFCURVE",
"463 24 CURVE SMOOTH",
"420 20 LINE",
"420 0 LINE"
);
},
{
closed = 1;
nodes = (
"287 462 LINE",
"395 223 LINE",
"188 223 LINE"
);
},
{
closed = 1;
nodes = (
"348 894 LINE",
"307 849 OFFCURVE",
"269 812 OFFCURVE",
"218 775 CURVE",
"229 760 LINE",
"273 774 OFFCURVE",
"329 795 OFFCURVE",
"374 821 CURVE",
"419 795 OFFCURVE",
"475 774 OFFCURVE",
"519 760 CURVE",
"530 775 LINE",
"483 812 OFFCURVE",
"441 849 OFFCURVE",
"400 894 CURVE"
);
},
{
closed = 1;
nodes = (
"536 985 OFFCURVE",
"505 937 OFFCURVE",
"470 886 CURVE",
"481 876 LINE",
"530 901 OFFCURVE",
"579 941 OFFCURVE",
"627 984 CURVE",
"616 1013 OFFCURVE",
"589 1034 OFFCURVE",
"561 1036 CURVE"
);
}
);
width = 768;
}
);
unicode = 1EA4;
},
{
glyphname = Acircumflexdotbelow;
layers = (
{
layerId = "0EFCFE59-F23A-4210-A5A1-DE9F39E2245D";
name = Regular;
paths = (
{
closed = 1;
nodes = (
"750 0 LINE",
"750 20 LINE",
"713 24 LINE SMOOTH",
"697 26 OFFCURVE",
"692 32 OFFCURVE",
"685 48 CURVE SMOOTH",
"392 711 LINE",
"360 711 LINE",
"83 48 LINE SMOOTH",
"76 32 OFFCURVE",
"71 26 OFFCURVE",
"55 24 CURVE SMOOTH",
"18 20 LINE",
"18 0 LINE",
"170 0 LINE",
"170 20 LINE",
"127 24 LINE SMOOTH",
"114 25 OFFCURVE",
"110 32 OFFCURVE",
"116 47 CURVE SMOOTH",
"176 193 LINE",
"408 193 LINE",
"474 47 LINE SMOOTH",
"481 32 OFFCURVE",
"476 25 OFFCURVE",
"463 24 CURVE SMOOTH",
"420 20 LINE",
"420 0 LINE"
);
},
{
closed = 1;
nodes = (
"287 462 LINE",
"395 223 LINE",
"188 223 LINE"
);
},
{
closed = 1;
nodes = (
"348 912 LINE",
"309 863 OFFCURVE",
"264 816 OFFCURVE",
"214 775 CURVE",
"225 760 LINE",
"275 777 OFFCURVE",
"324 800 OFFCURVE",
"374 829 CURVE",
"424 800 OFFCURVE",
"473 777 OFFCURVE",
"523 760 CURVE",
"534 775 LINE",
"485 816 OFFCURVE",
"439 863 OFFCURVE",
"400 912 CURVE"
);
},
{
closed = 1;
nodes = (
"352 -208 OFFCURVE",
"387 -182 OFFCURVE",
"387 -133 CURVE SMOOTH",
"387 -84 OFFCURVE",
"352 -58 OFFCURVE",
"304 -58 CURVE SMOOTH",
"256 -58 OFFCURVE",
"221 -84 OFFCURVE",
"221 -133 CURVE SMOOTH",
"221 -182 OFFCURVE",
"256 -208 OFFCURVE",
"304 -208 CURVE SMOOTH"
);
}
);
width = 768;
}
);
unicode = 1EAC;
},
{
glyphname = Acircumflexgrave;
layers = (
{
layerId = "0EFCFE59-F23A-4210-A5A1-DE9F39E2245D";
name = Regular;
paths = (
{
closed = 1;
nodes = (
"750 0 LINE",
"750 20 LINE",
"713 24 LINE SMOOTH",
"697 26 OFFCURVE",
"692 32 OFFCURVE",
"685 48 CURVE SMOOTH",
"392 711 LINE",
"360 711 LINE",
"83 48 LINE SMOOTH",
"76 32 OFFCURVE",
"71 26 OFFCURVE",
"55 24 CURVE SMOOTH",
"18 20 LINE",
"18 0 LINE",
"170 0 LINE",
"170 20 LINE",
"127 24 LINE SMOOTH",
"114 25 OFFCURVE",
"110 32 OFFCURVE",
"116 47 CURVE SMOOTH",
"176 193 LINE",
"408 193 LINE",
"474 47 LINE SMOOTH",
"481 32 OFFCURVE",
"476 25 OFFCURVE",
"463 24 CURVE SMOOTH",
"420 20 LINE",
"420 0 LINE"
);
},
{
closed = 1;
nodes = (
"287 462 LINE",
"395 223 LINE",
"188 223 LINE"
);
},
{
closed = 1;
nodes = (
"159 1034 OFFCURVE",
"132 1013 OFFCURVE",
"121 984 CURVE",
"169 941 OFFCURVE",
"218 901 OFFCURVE",
"267 876 CURVE",
"278 886 LINE",
"243 937 OFFCURVE",
"212 985 OFFCURVE",
"187 1036 CURVE"
);
},
{
closed = 1;
nodes = (
"348 894 LINE",
"307 849 OFFCURVE",
"269 812 OFFCURVE",
"218 775 CURVE",
"229 760 LINE",
"273 774 OFFCURVE",
"329 795 OFFCURVE",
"374 821 CURVE",
"419 795 OFFCURVE",
"475 774 OFFCURVE",
"519 760 CURVE",
"530 775 LINE",
"483 812 OFFCURVE",
"441 849 OFFCURVE",
"400 894 CURVE"
);
}
);
width = 768;
}
);
unicode = 1EA6;
},
{
glyphname = Acircumflexhookabove;
layers = (
{
layerId = "0EFCFE59-F23A-4210-A5A1-DE9F39E2245D";
name = Regular;
paths = (
{
closed = 1;
nodes = (
"750 0 LINE",
"750 20 LINE",
"713 24 LINE SMOOTH",
"697 26 OFFCURVE",
"692 32 OFFCURVE",
"685 48 CURVE SMOOTH",
"392 711 LINE",
"360 711 LINE",
"83 48 LINE SMOOTH",
"76 32 OFFCURVE",
"71 26 OFFCURVE",
"55 24 CURVE SMOOTH",
"18 20 LINE",
"18 0 LINE",
"170 0 LINE",
"170 20 LINE",
"127 24 LINE SMOOTH",
"114 25 OFFCURVE",
"110 32 OFFCURVE",
"116 47 CURVE SMOOTH",
"176 193 LINE",
"408 193 LINE",
"474 47 LINE SMOOTH",
"481 32 OFFCURVE",
"476 25 OFFCURVE",
"463 24 CURVE SMOOTH",
"420 20 LINE",
"420 0 LINE"
);
},
{
closed = 1;
nodes = (
"287 462 LINE",
"395 223 LINE",
"188 223 LINE"
);
},
{
closed = 1;
nodes = (
"348 894 LINE",
"307 849 OFFCURVE",
"269 812 OFFCURVE",
"218 775 CURVE",
"229 760 LINE",
"273 774 OFFCURVE",
"329 795 OFFCURVE",
"374 821 CURVE",
"419 795 OFFCURVE",
"475 774 OFFCURVE",
"519 760 CURVE",
"530 775 LINE",
"483 812 OFFCURVE",
"441 849 OFFCURVE",
"400 894 CURVE"
);
},
{
closed = 1;
nodes = (
"532 880 LINE",
"581 891 OFFCURVE",
"610 914 OFFCURVE",
"610 953 CURVE SMOOTH",
"610 995 OFFCURVE",
"579 1010 OFFCURVE",
"532 1010 CURVE SMOOTH",
"489 1010 OFFCURVE",
"461 999 OFFCURVE",
"442 989 CURVE",
"448 973 LINE",
"466 981 OFFCURVE",
"478 985 OFFCURVE",
"498 985 CURVE SMOOTH",
"521 985 OFFCURVE",
"531 975 OFFCURVE",
"531 955 CURVE SMOOTH",
"531 921 OFFCURVE",
"519 907 OFFCURVE",
"496 892 CURVE",
"502 850 LINE",
"528 850 LINE"
);
}
);
width = 768;
}
);
unicode = 1EA8;
},
{
glyphname = Acircumflextilde;
layers = (
{
layerId = "0EFCFE59-F23A-4210-A5A1-DE9F39E2245D";
name = Regular;
paths = (
{
closed = 1;
nodes = (
"750 0 LINE",
"750 20 LINE",
"713 24 LINE SMOOTH",
"697 26 OFFCURVE",
"692 32 OFFCURVE",
"685 48 CURVE SMOOTH",
"392 711 LINE",
"360 711 LINE",
"83 48 LINE SMOOTH",
"76 32 OFFCURVE",
"71 26 OFFCURVE",
"55 24 CURVE SMOOTH",
"18 20 LINE",
"18 0 LINE",
"170 0 LINE",
"170 20 LINE",
"127 24 LINE SMOOTH",
"114 25 OFFCURVE",
"110 32 OFFCURVE",
"116 47 CURVE SMOOTH",
"176 193 LINE",
"408 193 LINE",
"474 47 LINE SMOOTH",
"481 32 OFFCURVE",
"476 25 OFFCURVE",
"463 24 CURVE SMOOTH",
"420 20 LINE",
"420 0 LINE"
);
},
{
closed = 1;
nodes = (
"287 462 LINE",
"395 223 LINE",
"188 223 LINE"
);
},
{
closed = 1;
nodes = (
"348 894 LINE",
"307 849 OFFCURVE",
"269 812 OFFCURVE",
"218 775 CURVE",
"229 760 LINE",
"273 774 OFFCURVE",
"329 795 OFFCURVE",
"374 821 CURVE",
"419 795 OFFCURVE",
"475 774 OFFCURVE",
"519 760 CURVE",
"530 775 LINE",
"483 812 OFFCURVE",
"441 849 OFFCURVE",
"400 894 CURVE"
);
},
{
closed = 1;
nodes = (
"491 930 OFFCURVE",
"517 986 OFFCURVE",
"532 1025 CURVE",
"518 1031 LINE",
"500 1007 LINE SMOOTH",
"490 993 OFFCURVE",
"467 989 OFFCURVE",
"448 996 CURVE SMOOTH",
"373 1025 OFFCURVE",
"326 1042 OFFCURVE",
"303 1042 CURVE SMOOTH",
"257 1042 OFFCURVE",
"230 985 OFFCURVE",
"216 946 CURVE",
"229 941 LINE",
"248 964 LINE",
"258 978 OFFCURVE",
"281 983 OFFCURVE",
"299 976 CURVE SMOOTH",
"374 946 OFFCURVE",
"421 930 OFFCURVE",
"445 930 CURVE SMOOTH"
);
}
);
width = 768;
}
);
unicode = 1EAA;
},
{
glyphname = Adieresis;
layers = (
{
layerId = "0EFCFE59-F23A-4210-A5A1-DE9F39E2245D";
name = Regular;
paths = (
{
closed = 1;
nodes = (
"750 0 LINE",
"750 20 LINE",
"713 24 LINE SMOOTH",
"697 26 OFFCURVE",
"692 32 OFFCURVE",
"685 48 CURVE SMOOTH",
"392 711 LINE",
"360 711 LINE",
"83 48 LINE SMOOTH",
"76 32 OFFCURVE",
"71 26 OFFCURVE",
"55 24 CURVE SMOOTH",
"18 20 LINE",
"18 0 LINE",
"170 0 LINE",
"170 20 LINE",
"127 24 LINE SMOOTH",
"114 25 OFFCURVE",
"110 32 OFFCURVE",
"116 47 CURVE SMOOTH",
"176 193 LINE",
"408 193 LINE",
"474 47 LINE SMOOTH",
"481 32 OFFCURVE",
"476 25 OFFCURVE",
"463 24 CURVE SMOOTH",
"420 20 LINE",
"420 0 LINE"
);
},
{
closed = 1;
nodes = (
"287 462 LINE",
"395 223 LINE",
"188 223 LINE"
);
},
{
closed = 1;
nodes = (
"306 767 OFFCURVE",
"337 799 OFFCURVE",
"337 840 CURVE SMOOTH",
"337 881 OFFCURVE",
"306 913 OFFCURVE",
"260 913 CURVE SMOOTH",
"214 913 OFFCURVE",
"183 881 OFFCURVE",
"183 840 CURVE SMOOTH",
"183 799 OFFCURVE",
"214 767 OFFCURVE",
"260 767 CURVE SMOOTH"
);
},
{
closed = 1;
nodes = (
"544 767 OFFCURVE",
"575 799 OFFCURVE",
"575 840 CURVE SMOOTH",
"575 881 OFFCURVE",
"544 913 OFFCURVE",
"498 913 CURVE SMOOTH",
"452 913 OFFCURVE",
"421 881 OFFCURVE",
"421 840 CURVE SMOOTH",
"421 799 OFFCURVE",
"452 767 OFFCURVE",
"498 767 CURVE SMOOTH"
);
}
);
width = 760;
}
);
unicode = 00C4;
},
{
glyphname = Adotbelow;
layers = (
{
layerId = "0EFCFE59-F23A-4210-A5A1-DE9F39E2245D";
name = Regular;
paths = (
{
closed = 1;
nodes = (
"750 0 LINE",
"750 20 LINE",
"713 24 LINE SMOOTH",
"697 26 OFFCURVE",
"692 32 OFFCURVE",
"685 48 CURVE SMOOTH",
"392 711 LINE",
"360 711 LINE",
"83 48 LINE SMOOTH",
"76 32 OFFCURVE",
"71 26 OFFCURVE",
"55 24 CURVE SMOOTH",
"18 20 LINE",
"18 0 LINE",
"170 0 LINE",
"170 20 LINE",
"127 24 LINE SMOOTH",
"114 25 OFFCURVE",
"110 32 OFFCURVE",
"116 47 CURVE SMOOTH",
"176 193 LINE",
"408 193 LINE",
"474 47 LINE SMOOTH",
"481 32 OFFCURVE",
"476 25 OFFCURVE",
"463 24 CURVE SMOOTH",
"420 20 LINE",
"420 0 LINE"
);
},
{
closed = 1;
nodes = (
"287 462 LINE",
"395 223 LINE",
"188 223 LINE"
);
},
{
closed = 1;
nodes = (
"352 -208 OFFCURVE",
"387 -182 OFFCURVE",
"387 -133 CURVE SMOOTH",
"387 -84 OFFCURVE",
"352 -58 OFFCURVE",
"304 -58 CURVE SMOOTH",
"256 -58 OFFCURVE",
"221 -84 OFFCURVE",
"221 -133 CURVE SMOOTH",
"221 -182 OFFCURVE",
"256 -208 OFFCURVE",
"304 -208 CURVE SMOOTH"
);
}
);
width = 768;
}
);
unicode = 1EA0;
},
{
glyphname = Agrave;
layers = (
{
layerId = "0EFCFE59-F23A-4210-A5A1-DE9F39E2245D";
name = Regular;
paths = (
{
closed = 1;
nodes = (
"750 0 LINE",
"750 20 LINE",
"713 24 LINE SMOOTH",
"697 26 OFFCURVE",
"692 32 OFFCURVE",
"685 48 CURVE SMOOTH",
"392 711 LINE",
"360 711 LINE",
"83 48 LINE SMOOTH",
"76 32 OFFCURVE",
"71 26 OFFCURVE",
"55 24 CURVE SMOOTH",
"18 20 LINE",
"18 0 LINE",
"170 0 LINE",
"170 20 LINE",
"127 24 LINE SMOOTH",
"114 25 OFFCURVE",
"110 32 OFFCURVE",
"116 47 CURVE SMOOTH",
"176 193 LINE",
"408 193 LINE",
"474 47 LINE SMOOTH",
"481 32 OFFCURVE",
"476 25 OFFCURVE",
"463 24 CURVE SMOOTH",
"420 20 LINE",
"420 0 LINE"
);
},
{
closed = 1;
nodes = (
"287 462 LINE",
"395 223 LINE",
"188 223 LINE"
);
},
{
closed = 1;
nodes = (
"196 898 OFFCURVE",
"171 863 OFFCURVE",
"170 825 CURVE",
"231 797 OFFCURVE",
"335 770 OFFCURVE",
"396 760 CURVE",
"401 771 LINE",
"346 813 OFFCURVE",
"269 867 OFFCURVE",
"226 912 CURVE"
);
}
);
width = 768;
}
);
unicode = 00C0;
},
{
glyphname = Ahookabove;
layers = (
{
layerId = "0EFCFE59-F23A-4210-A5A1-DE9F39E2245D";
name = Regular;
paths = (
{
closed = 1;
nodes = (
"750 0 LINE",
"750 20 LINE",
"713 24 LINE SMOOTH",
"697 26 OFFCURVE",
"692 32 OFFCURVE",
"685 48 CURVE SMOOTH",
"392 711 LINE",
"360 711 LINE",
"83 48 LINE SMOOTH",
"76 32 OFFCURVE",
"71 26 OFFCURVE",
"55 24 CURVE SMOOTH",
"18 20 LINE",
"18 0 LINE",
"170 0 LINE",
"170 20 LINE",
"127 24 LINE SMOOTH",
"114 25 OFFCURVE",
"110 32 OFFCURVE",
"116 47 CURVE SMOOTH",
"176 193 LINE",
"408 193 LINE",
"474 47 LINE SMOOTH",
"481 32 OFFCURVE",
"476 25 OFFCURVE",
"463 24 CURVE SMOOTH",
"420 20 LINE",
"420 0 LINE"
);
},
{
closed = 1;
nodes = (
"287 462 LINE",
"395 223 LINE",
"188 223 LINE"
);
},
{
closed = 1;
nodes = (
"391 794 LINE",
"451 808 OFFCURVE",
"493 833 OFFCURVE",
"493 881 CURVE SMOOTH",
"493 932 OFFCURVE",
"451 951 OFFCURVE",
"398 951 CURVE SMOOTH",
"343 951 OFFCURVE",
"306 936 OFFCURVE",
"283 925 CURVE",
"290 905 LINE",
"312 914 OFFCURVE",
"328 919 OFFCURVE",
"356 919 CURVE SMOOTH",
"381 919 OFFCURVE",
"395 908 OFFCURVE",
"395 883 CURVE SMOOTH",
"395 849 OFFCURVE",
"382 827 OFFCURVE",
"353 809 CURVE",
"359 760 LINE",
"387 760 LINE"
);
}
);
width = 768;
}
);
unicode = 1EA2;
},
{
glyphname = Amacron;
layers = (
{
layerId = "0EFCFE59-F23A-4210-A5A1-DE9F39E2245D";
name = Regular;
paths = (
{
closed = 1;
nodes = (
"750 0 LINE",
"750 20 LINE",
"713 24 LINE SMOOTH",
"697 26 OFFCURVE",
"692 32 OFFCURVE",
"685 48 CURVE SMOOTH",
"392 711 LINE",
"360 711 LINE",
"83 48 LINE SMOOTH",
"76 32 OFFCURVE",
"71 26 OFFCURVE",
"55 24 CURVE SMOOTH",
"18 20 LINE",
"18 0 LINE",
"170 0 LINE",
"170 20 LINE",
"127 24 LINE SMOOTH",
"114 25 OFFCURVE",
"110 32 OFFCURVE",
"116 47 CURVE SMOOTH",
"176 193 LINE",
"408 193 LINE",
"474 47 LINE SMOOTH",
"481 32 OFFCURVE",
"476 25 OFFCURVE",
"463 24 CURVE SMOOTH",
"420 20 LINE",
"420 0 LINE"
);
},
{
closed = 1;
nodes = (
"287 462 LINE",
"395 223 LINE",
"188 223 LINE"
);
},
{
closed = 1;
nodes = (
"184 778 LINE",
"564 778 LINE",
"564 802 LINE",
"184 802 LINE"
);
}
);
width = 768;
}
);
unicode = 0100;
},
{
glyphname = Aogonek;
layers = (
{
layerId = "0EFCFE59-F23A-4210-A5A1-DE9F39E2245D";
name = Regular;
paths = (
{
closed = 1;
nodes = (
"683 -142 LINE",
"669 -153 OFFCURVE",
"649 -165 OFFCURVE",
"630 -165 CURVE SMOOTH",
"589 -165 OFFCURVE",
"572 -147 OFFCURVE",
"572 -106 CURVE SMOOTH",
"572 -57 OFFCURVE",
"587 -22 OFFCURVE",
"633 0 CURVE",
"750 0 LINE",
"750 20 LINE",
"713 24 LINE SMOOTH",
"697 26 OFFCURVE",
"692 32 OFFCURVE",
"685 48 CURVE SMOOTH",
"392 711 LINE",
"360 711 LINE",
"83 48 LINE SMOOTH",
"76 32 OFFCURVE",
"71 26 OFFCURVE",
"55 24 CURVE SMOOTH",
"18 20 LINE",
"18 0 LINE",
"170 0 LINE",
"170 20 LINE",
"127 24 LINE SMOOTH",
"114 25 OFFCURVE",
"110 32 OFFCURVE",
"116 47 CURVE SMOOTH",
"176 193 LINE",
"408 193 LINE",
"474 47 LINE SMOOTH",
"481 32 OFFCURVE",
"476 25 OFFCURVE",
"463 24 CURVE SMOOTH",
"420 20 LINE",
"420 0 LINE",
"606 0 LINE",
"534 -21 OFFCURVE",
"474 -63 OFFCURVE",
"474 -131 CURVE SMOOTH",
"474 -178 OFFCURVE",
"510 -205 OFFCURVE",
"580 -205 CURVE SMOOTH",
"632 -205 OFFCURVE",
"666 -180 OFFCURVE",
"690 -153 CURVE"
);
},
{
closed = 1;
nodes = (
"287 462 LINE",
"395 223 LINE",
"188 223 LINE"
);
}
);
width = 768;
}
);
unicode = 0104;
},
{
glyphname = Aring;
layers = (
{
layerId = "0EFCFE59-F23A-4210-A5A1-DE9F39E2245D";
name = Regular;
paths = (
{
closed = 1;
nodes = (
"311 875 OFFCURVE",
"257 847 OFFCURVE",
"257 780 CURVE SMOOTH",
"257 722 OFFCURVE",
"297 694 OFFCURVE",
"346 687 CURVE",
"83 48 LINE SMOOTH",
"76 32 OFFCURVE",
"71 26 OFFCURVE",
"55 24 CURVE SMOOTH",
"18 20 LINE",
"18 0 LINE",
"168 0 LINE",
"168 20 LINE",
"125 24 LINE",
"112 26 OFFCURVE",
"108 32 OFFCURVE",
"114 47 CURVE SMOOTH",
"178 203 LINE",
"397 203 LINE",
"466 47 LINE SMOOTH",
"473 32 OFFCURVE",
"468 26 OFFCURVE",
"455 24 CURVE",
"412 20 LINE",
"412 0 LINE",
"742 0 LINE",
"742 20 LINE",
"705 24 LINE SMOOTH",
"689 26 OFFCURVE",
"684 32 OFFCURVE",
"677 48 CURVE SMOOTH",
"398 687 LINE",
"446 694 OFFCURVE",
"485 723 OFFCURVE",
"485 780 CURVE SMOOTH",
"485 847 OFFCURVE",
"431 875 OFFCURVE",
"371 875 CURVE SMOOTH"
);
},
{
closed = 1;
nodes = (
"284 461 LINE",
"384 233 LINE",
"190 233 LINE"
);
},
{
closed = 1;
nodes = (
"339 702 OFFCURVE",
"328 730 OFFCURVE",
"328 780 CURVE SMOOTH",
"328 830 OFFCURVE",
"339 858 OFFCURVE",
"371 858 CURVE SMOOTH",
"403 858 OFFCURVE",
"414 830 OFFCURVE",
"414 780 CURVE SMOOTH",
"414 730 OFFCURVE",
"403 702 OFFCURVE",
"371 702 CURVE SMOOTH"
);
}
);
width = 760;
}
);
unicode = 00C5;
},
{
glyphname = Aringacute;
layers = (
{
layerId = "0EFCFE59-F23A-4210-A5A1-DE9F39E2245D";
name = Regular;
paths = (
{
closed = 1;
nodes = (
"311 875 OFFCURVE",
"257 847 OFFCURVE",
"257 780 CURVE SMOOTH",
"257 722 OFFCURVE",
"297 694 OFFCURVE",
"346 687 CURVE",
"83 48 LINE SMOOTH",
"76 32 OFFCURVE",
"71 26 OFFCURVE",
"55 24 CURVE SMOOTH",
"18 20 LINE",
"18 0 LINE",
"168 0 LINE",
"168 20 LINE",
"125 24 LINE",
"112 26 OFFCURVE",
"108 32 OFFCURVE",
"114 47 CURVE SMOOTH",
"178 203 LINE",
"397 203 LINE",
"466 47 LINE SMOOTH",
"473 32 OFFCURVE",
"468 26 OFFCURVE",
"455 24 CURVE",
"412 20 LINE",
"412 0 LINE",
"742 0 LINE",
"742 20 LINE",
"705 24 LINE SMOOTH",
"689 26 OFFCURVE",
"684 32 OFFCURVE",
"677 48 CURVE SMOOTH",
"398 687 LINE",
"446 694 OFFCURVE",
"485 723 OFFCURVE",
"485 780 CURVE SMOOTH",
"485 847 OFFCURVE",
"431 875 OFFCURVE",
"371 875 CURVE SMOOTH"
);
},
{
closed = 1;
nodes = (
"284 461 LINE",
"384 233 LINE",
"190 233 LINE"
);
},
{
closed = 1;
nodes = (
"339 702 OFFCURVE",
"328 730 OFFCURVE",
"328 780 CURVE SMOOTH",
"328 830 OFFCURVE",
"339 858 OFFCURVE",
"371 858 CURVE SMOOTH",
"403 858 OFFCURVE",
"414 830 OFFCURVE",
"414 780 CURVE SMOOTH",
"414 730 OFFCURVE",
"403 702 OFFCURVE",
"371 702 CURVE SMOOTH"
);
},
{
closed = 1;
nodes = (
"483 1017 OFFCURVE",
"406 963 OFFCURVE",
"351 921 CURVE",
"356 910 LINE",
"417 920 OFFCURVE",
"521 947 OFFCURVE",
"582 975 CURVE",
"581 1013 OFFCURVE",
"556 1048 OFFCURVE",
"526 1062 CURVE"
);
}
);
width = 760;
}
);
unicode = 01FA;
},
{
glyphname = Atilde;
layers = (
{
layerId = "0EFCFE59-F23A-4210-A5A1-DE9F39E2245D";
name = Regular;
paths = (
{
closed = 1;
nodes = (
"750 0 LINE",
"750 20 LINE",
"713 24 LINE SMOOTH",
"697 26 OFFCURVE",
"692 32 OFFCURVE",
"685 48 CURVE SMOOTH",
"392 711 LINE",
"360 711 LINE",
"83 48 LINE SMOOTH",
"76 32 OFFCURVE",
"71 26 OFFCURVE",
"55 24 CURVE SMOOTH",
"18 20 LINE",
"18 0 LINE",
"170 0 LINE",
"170 20 LINE",
"127 24 LINE SMOOTH",
"114 25 OFFCURVE",
"110 32 OFFCURVE",
"116 47 CURVE SMOOTH",
"176 193 LINE",
"408 193 LINE",
"474 47 LINE SMOOTH",
"481 32 OFFCURVE",
"476 25 OFFCURVE",
"463 24 CURVE SMOOTH",
"420 20 LINE",
"420 0 LINE"
);
},
{
closed = 1;
nodes = (
"287 462 LINE",
"395 223 LINE",
"188 223 LINE"
);
},
{
closed = 1;
nodes = (
"518 758 OFFCURVE",
"544 833 OFFCURVE",
"563 883 CURVE",
"551 888 LINE",
"527 858 LINE",
"514 840 OFFCURVE",
"487 834 OFFCURVE",
"463 843 CURVE SMOOTH",
"367 881 OFFCURVE",
"319 902 OFFCURVE",
"289 902 CURVE SMOOTH",
"230 902 OFFCURVE",
"204 827 OFFCURVE",
"185 777 CURVE",
"197 772 LINE",
"221 802 LINE",
"234 820 OFFCURVE",
"261 826 OFFCURVE",
"285 817 CURVE SMOOTH",
"381 779 OFFCURVE",
"429 758 OFFCURVE",
"459 758 CURVE SMOOTH"
);
}
);
width = 768;
}
);
unicode = 00C3;
},
{
glyphname = AE;
layers = (
{
layerId = "0EFCFE59-F23A-4210-A5A1-DE9F39E2245D";
name = Regular;
paths = (
{
closed = 1;
nodes = (
"86 48 LINE SMOOTH",
"76 31 OFFCURVE",
"71 26 OFFCURVE",
"55 24 CURVE SMOOTH",
"16 20 LINE",
"16 0 LINE",
"172 0 LINE",
"172 20 LINE",
"130 24 LINE SMOOTH",
"117 25 OFFCURVE",
"115 33 OFFCURVE",
"123 47 CURVE SMOOTH",
"227 221 LINE",
"471 221 LINE",
"471 50 LINE SMOOTH",
"471 34 OFFCURVE",
"466 32 OFFCURVE",
"447 28 CURVE SMOOTH",
"410 20 LINE",
"410 0 LINE",
"1000 0 LINE",
"1000 199 LINE",
"972 199 LINE",
"933 87 OFFCURVE",
"910 30 OFFCURVE",
"787 30 CURVE SMOOTH",
"675 30 LINE",
"675 343 LINE",
"893 343 LINE",
"893 373 LINE",
"675 373 LINE",
"675 670 LINE",
"777 670 LINE SMOOTH",
"900 670 OFFCURVE",
"920 617 OFFCURVE",
"959 505 CURVE",
"986 505 LINE",
"986 700 LINE",
"410 700 LINE",
"410 680 LINE",
"447 672 LINE",
"462 668 LINE"
);
},
{
closed = 1;
nodes = (
"245 251 LINE",
"471 625 LINE",
"471 251 LINE"
);
}
);
width = 1044;
}
);
unicode = 00C6;
},
{
glyphname = AEacute;
layers = (
{
layerId = "0EFCFE59-F23A-4210-A5A1-DE9F39E2245D";
name = Regular;
paths = (
{
closed = 1;
nodes = (
"86 48 LINE SMOOTH",
"76 31 OFFCURVE",
"71 26 OFFCURVE",
"55 24 CURVE SMOOTH",
"16 20 LINE",
"16 0 LINE",
"172 0 LINE",
"172 20 LINE",
"130 24 LINE SMOOTH",
"117 25 OFFCURVE",
"115 33 OFFCURVE",
"123 47 CURVE SMOOTH",
"227 221 LINE",
"471 221 LINE",
"471 50 LINE SMOOTH",
"471 34 OFFCURVE",
"466 32 OFFCURVE",
"447 28 CURVE SMOOTH",
"410 20 LINE",
"410 0 LINE",
"1000 0 LINE",
"1000 199 LINE",
"972 199 LINE",
"933 87 OFFCURVE",
"910 30 OFFCURVE",
"787 30 CURVE SMOOTH",
"675 30 LINE",
"675 343 LINE",
"893 343 LINE",
"893 373 LINE",
"675 373 LINE",
"675 670 LINE",
"777 670 LINE SMOOTH",
"900 670 OFFCURVE",
"920 617 OFFCURVE",
"959 505 CURVE",
"986 505 LINE",
"986 700 LINE",
"410 700 LINE",
"410 680 LINE",
"447 672 LINE",
"462 668 LINE"
);
},
{
closed = 1;
nodes = (
"245 251 LINE",
"471 625 LINE",
"471 251 LINE"
);
},
{
closed = 1;
nodes = (
"708 867 OFFCURVE",
"631 813 OFFCURVE",
"576 771 CURVE",
"581 760 LINE",
"642 770 OFFCURVE",
"746 797 OFFCURVE",
"807 825 CURVE",
"806 863 OFFCURVE",
"781 898 OFFCURVE",
"751 912 CURVE"
);
}
);
width = 1044;
}
);
unicode = 01FC;
},
{
glyphname = B;
layers = (
{
layerId = "0EFCFE59-F23A-4210-A5A1-DE9F39E2245D";
name = Regular;
paths = (
{
closed = 1;
nodes = (
"26 700 LINE",
"26 680 LINE",
"63 672 LINE SMOOTH",
"82 668 OFFCURVE",
"87 666 OFFCURVE",
"87 650 CURVE SMOOTH",
"87 50 LINE SMOOTH",
"87 34 OFFCURVE",
"82 32 OFFCURVE",
"63 28 CURVE SMOOTH",
"26 20 LINE",
"26 0 LINE",
"327 0 LINE SMOOTH",
"586 0 OFFCURVE",
"696 43 OFFCURVE",
"696 184 CURVE SMOOTH",
"696 310 OFFCURVE",
"626 358 OFFCURVE",
"457 371 CURVE",
"594 385 OFFCURVE",
"658 429 OFFCURVE",
"658 538 CURVE SMOOTH",
"658 655 OFFCURVE",
"574 700 OFFCURVE",
"333 700 CURVE SMOOTH"
);
},
{
closed = 1;
nodes = (
"344 354 LINE SMOOTH",
"457 354 OFFCURVE",
"490 299 OFFCURVE",
"490 184 CURVE SMOOTH",
"490 83 OFFCURVE",
"440 30 OFFCURVE",
"336 30 CURVE SMOOTH",
"291 30 LINE",
"291 354 LINE"
);
},
{
closed = 1;
nodes = (
"291 670 LINE",
"340 670 LINE SMOOTH",
"425 670 OFFCURVE",
"462 627 OFFCURVE",
"462 538 CURVE SMOOTH",
"462 435 OFFCURVE",
"423 384 OFFCURVE",
"340 384 CURVE SMOOTH",
"291 384 LINE"
);
}
);
width = 740;
}
);
unicode = 0042;
},
{
glyphname = C;
layers = (
{
layerId = "0EFCFE59-F23A-4210-A5A1-DE9F39E2245D";
name = Regular;
paths = (
{
closed = 1;
nodes = (
"328 38 OFFCURVE",
"276 166 OFFCURVE",
"276 386 CURVE SMOOTH",
"276 576 OFFCURVE",
"320 683 OFFCURVE",
"446 683 CURVE SMOOTH",
"562 683 OFFCURVE",
"616 591 OFFCURVE",
"648 495 CURVE",
"676 495 LINE",
"690 667 LINE",
"640 692 OFFCURVE",
"541 712 OFFCURVE",
"445 712 CURVE SMOOTH",
"231 712 OFFCURVE",
"56 616 OFFCURVE",
"56 360 CURVE SMOOTH",
"56 80 OFFCURVE",
"240 -12 OFFCURVE",
"440 -12 CURVE SMOOTH",
"562 -12 OFFCURVE",
"657 35 OFFCURVE",
"710 84 CURVE",
"690 106 LINE",
"642 68 OFFCURVE",
"585 38 OFFCURVE",
"506 38 CURVE SMOOTH"
);
}
);
width = 754;
}
);
unicode = 0043;
},
{
glyphname = Cacute;
layers = (
{
layerId = "0EFCFE59-F23A-4210-A5A1-DE9F39E2245D";
name = Regular;
paths = (
{
closed = 1;
nodes = (
"328 38 OFFCURVE",
"276 166 OFFCURVE",
"276 386 CURVE SMOOTH",
"276 576 OFFCURVE",
"320 683 OFFCURVE",
"446 683 CURVE SMOOTH",
"562 683 OFFCURVE",
"616 591 OFFCURVE",
"648 495 CURVE",
"676 495 LINE",
"690 667 LINE",
"640 692 OFFCURVE",
"541 712 OFFCURVE",
"445 712 CURVE SMOOTH",
"231 712 OFFCURVE",
"56 616 OFFCURVE",
"56 360 CURVE SMOOTH",
"56 80 OFFCURVE",
"240 -12 OFFCURVE",
"440 -12 CURVE SMOOTH",
"562 -12 OFFCURVE",
"657 35 OFFCURVE",
"710 84 CURVE",
"690 106 LINE",
"642 68 OFFCURVE",
"585 38 OFFCURVE",
"506 38 CURVE SMOOTH"
);
},
{
closed = 1;
nodes = (
"493 867 OFFCURVE",
"416 813 OFFCURVE",
"361 771 CURVE",
"366 760 LINE",
"427 770 OFFCURVE",
"531 797 OFFCURVE",
"592 825 CURVE",
"591 863 OFFCURVE",
"566 898 OFFCURVE",
"536 912 CURVE"
);
}
);
width = 754;
}
);
unicode = 0106;
},
{
glyphname = Ccaron;
layers = (
{
layerId = "0EFCFE59-F23A-4210-A5A1-DE9F39E2245D";
name = Regular;
paths = (
{
closed = 1;
nodes = (
"328 38 OFFCURVE",
"276 166 OFFCURVE",
"276 386 CURVE SMOOTH",
"276 576 OFFCURVE",
"320 683 OFFCURVE",
"446 683 CURVE SMOOTH",
"562 683 OFFCURVE",
"616 591 OFFCURVE",
"648 495 CURVE",
"676 495 LINE",
"690 667 LINE",
"640 692 OFFCURVE",
"541 712 OFFCURVE",
"445 712 CURVE SMOOTH",
"231 712 OFFCURVE",
"56 616 OFFCURVE",
"56 360 CURVE SMOOTH",
"56 80 OFFCURVE",
"240 -12 OFFCURVE",
"440 -12 CURVE SMOOTH",
"562 -12 OFFCURVE",
"657 35 OFFCURVE",
"710 84 CURVE",
"690 106 LINE",
"642 68 OFFCURVE",
"585 38 OFFCURVE",
"506 38 CURVE SMOOTH"
);
},
{
closed = 1;
nodes = (
"463 760 LINE",
"502 809 OFFCURVE",
"548 856 OFFCURVE",
"597 897 CURVE",
"586 912 LINE",
"536 895 OFFCURVE",
"487 872 OFFCURVE",
"437 843 CURVE",
"387 872 OFFCURVE",
"338 895 OFFCURVE",
"288 912 CURVE",
"277 897 LINE",
"327 856 OFFCURVE",
"372 809 OFFCURVE",
"411 760 CURVE"
);
}
);
width = 754;
}
);
unicode = 010C;
},
{
glyphname = Ccedilla;
layers = (
{
layerId = "0EFCFE59-F23A-4210-A5A1-DE9F39E2245D";
name = Regular;
paths = (
{
closed = 1;
nodes = (
"378 -76 LINE",
"425 -84 OFFCURVE",
"461 -99 OFFCURVE",
"461 -141 CURVE SMOOTH",
"461 -172 OFFCURVE",
"443 -183 OFFCURVE",
"405 -183 CURVE SMOOTH",
"375 -183 OFFCURVE",
"353 -178 OFFCURVE",
"336 -170 CURVE",
"329 -188 LINE",
"350 -199 OFFCURVE",
"390 -208 OFFCURVE",
"424 -208 CURVE SMOOTH",
"488 -208 OFFCURVE",
"545 -182 OFFCURVE",
"545 -123 CURVE SMOOTH",
"545 -67 OFFCURVE",
"491 -40 OFFCURVE",
"407 -36 CURVE",
"409 -11 LINE",
"419 -12 OFFCURVE",
"430 -12 OFFCURVE",
"440 -12 CURVE SMOOTH",
"562 -12 OFFCURVE",
"657 35 OFFCURVE",
"710 84 CURVE",
"690 106 LINE",
"642 68 OFFCURVE",
"585 38 OFFCURVE",
"506 38 CURVE SMOOTH",
"328 38 OFFCURVE",
"276 166 OFFCURVE",
"276 386 CURVE SMOOTH",
"276 576 OFFCURVE",
"320 683 OFFCURVE",
"446 683 CURVE SMOOTH",
"562 683 OFFCURVE",
"616 591 OFFCURVE",
"648 495 CURVE",
"676 495 LINE",
"690 667 LINE",
"640 692 OFFCURVE",
"541 712 OFFCURVE",
"445 712 CURVE SMOOTH",
"231 712 OFFCURVE",
"56 616 OFFCURVE",
"56 360 CURVE SMOOTH",
"56 104 OFFCURVE",
"209 6 OFFCURVE",
"387 -9 CURVE"
);
}
);
width = 754;
}
);
unicode = 00C7;
},
{
glyphname = Ccircumflex;
layers = (
{
layerId = "0EFCFE59-F23A-4210-A5A1-DE9F39E2245D";
name = Regular;
paths = (
{
closed = 1;
nodes = (
"328 38 OFFCURVE",
"276 166 OFFCURVE",
"276 386 CURVE SMOOTH",
"276 576 OFFCURVE",
"320 683 OFFCURVE",
"446 683 CURVE SMOOTH",
"562 683 OFFCURVE",
"616 591 OFFCURVE",
"648 495 CURVE",
"676 495 LINE",
"690 667 LINE",
"640 692 OFFCURVE",
"541 712 OFFCURVE",
"445 712 CURVE SMOOTH",
"231 712 OFFCURVE",
"56 616 OFFCURVE",
"56 360 CURVE SMOOTH",
"56 80 OFFCURVE",
"240 -12 OFFCURVE",
"440 -12 CURVE SMOOTH",
"562 -12 OFFCURVE",
"657 35 OFFCURVE",
"710 84 CURVE",
"690 106 LINE",
"642 68 OFFCURVE",
"585 38 OFFCURVE",
"506 38 CURVE SMOOTH"
);
},
{
closed = 1;
nodes = (
"411 912 LINE",
"372 863 OFFCURVE",
"327 816 OFFCURVE",
"277 775 CURVE",
"288 760 LINE",
"338 777 OFFCURVE",
"387 800 OFFCURVE",
"437 829 CURVE",
"487 800 OFFCURVE",
"536 777 OFFCURVE",
"586 760 CURVE",
"597 775 LINE",
"548 816 OFFCURVE",
"502 863 OFFCURVE",
"463 912 CURVE"
);
}
);
width = 754;
}
);
unicode = 0108;
},
{
glyphname = Cdotaccent;
layers = (
{
layerId = "0EFCFE59-F23A-4210-A5A1-DE9F39E2245D";
name = Regular;
paths = (
{
closed = 1;
nodes = (
"328 38 OFFCURVE",
"276 166 OFFCURVE",
"276 386 CURVE SMOOTH",
"276 576 OFFCURVE",
"320 683 OFFCURVE",
"446 683 CURVE SMOOTH",
"562 683 OFFCURVE",
"616 591 OFFCURVE",
"648 495 CURVE",
"676 495 LINE",
"690 667 LINE",
"640 692 OFFCURVE",
"541 712 OFFCURVE",
"445 712 CURVE SMOOTH",
"231 712 OFFCURVE",
"56 616 OFFCURVE",
"56 360 CURVE SMOOTH",
"56 80 OFFCURVE",
"240 -12 OFFCURVE",
"440 -12 CURVE SMOOTH",
"562 -12 OFFCURVE",
"657 35 OFFCURVE",
"710 84 CURVE",
"690 106 LINE",
"642 68 OFFCURVE",
"585 38 OFFCURVE",
"506 38 CURVE SMOOTH"
);
},
{
closed = 1;
nodes = (
"487 763 OFFCURVE",
"524 787 OFFCURVE",
"524 838 CURVE SMOOTH",
"524 889 OFFCURVE",
"487 913 OFFCURVE",
"437 913 CURVE SMOOTH",
"387 913 OFFCURVE",
"350 889 OFFCURVE",
"350 838 CURVE SMOOTH",
"350 787 OFFCURVE",
"387 763 OFFCURVE",
"437 763 CURVE SMOOTH"
);
}
);
width = 754;
}
);
unicode = 010A;
},
{
glyphname = D;
layers = (
{
layerId = "0EFCFE59-F23A-4210-A5A1-DE9F39E2245D";
name = Regular;
paths = (
{
closed = 1;
nodes = (
"26 0 LINE",
"332 0 LINE SMOOTH",
"592 0 OFFCURVE",
"762 80 OFFCURVE",
"762 350 CURVE SMOOTH",
"762 620 OFFCURVE",
"592 700 OFFCURVE",
"332 700 CURVE SMOOTH",
"26 700 LINE",
"26 680 LINE",
"63 672 LINE SMOOTH",
"82 668 OFFCURVE",
"87 666 OFFCURVE",
"87 650 CURVE SMOOTH",
"87 50 LINE SMOOTH",
"87 34 OFFCURVE",
"82 32 OFFCURVE",
"63 28 CURVE SMOOTH",
"26 20 LINE"
);
},
{
closed = 1;
nodes = (
"332 670 LINE SMOOTH",
"497 670 OFFCURVE",
"541 592 OFFCURVE",
"541 350 CURVE SMOOTH",
"541 108 OFFCURVE",
"497 30 OFFCURVE",
"332 30 CURVE SMOOTH",
"291 30 LINE",
"291 670 LINE"
);
}
);
width = 818;
}
);
unicode = 0044;
},
{
glyphname = Eth;
layers = (
{
layerId = "0EFCFE59-F23A-4210-A5A1-DE9F39E2245D";
name = Regular;
paths = (
{
closed = 1;
nodes = (
"762 620 OFFCURVE",
"592 700 OFFCURVE",
"332 700 CURVE SMOOTH",
"26 700 LINE",
"26 680 LINE",
"63 672 LINE SMOOTH",
"82 668 OFFCURVE",
"87 666 OFFCURVE",
"87 650 CURVE SMOOTH",
"87 352 LINE",
"26 352 LINE",
"26 324 LINE",
"87 324 LINE",
"87 50 LINE SMOOTH",
"87 34 OFFCURVE",
"82 32 OFFCURVE",
"63 28 CURVE SMOOTH",
"26 20 LINE",
"26 0 LINE",
"332 0 LINE SMOOTH",
"592 0 OFFCURVE",
"762 80 OFFCURVE",
"762 350 CURVE SMOOTH"
);
},
{
closed = 1;
nodes = (
"428 352 LINE",
"291 352 LINE",
"291 670 LINE",
"332 670 LINE SMOOTH",
"497 670 OFFCURVE",
"541 592 OFFCURVE",
"541 350 CURVE SMOOTH",
"541 108 OFFCURVE",
"497 30 OFFCURVE",
"332 30 CURVE SMOOTH",
"291 30 LINE",
"291 324 LINE",
"428 324 LINE"
);
}
);
width = 818;
}
);
unicode = 00D0;
},
{
glyphname = Dcaron;
layers = (
{
layerId = "0EFCFE59-F23A-4210-A5A1-DE9F39E2245D";
name = Regular;
paths = (
{
closed = 1;
nodes = (
"26 0 LINE",
"332 0 LINE SMOOTH",
"592 0 OFFCURVE",
"762 80 OFFCURVE",
"762 350 CURVE SMOOTH",
"762 620 OFFCURVE",
"592 700 OFFCURVE",
"332 700 CURVE SMOOTH",
"26 700 LINE",
"26 680 LINE",
"63 672 LINE SMOOTH",
"82 668 OFFCURVE",
"87 666 OFFCURVE",
"87 650 CURVE SMOOTH",
"87 50 LINE SMOOTH",
"87 34 OFFCURVE",
"82 32 OFFCURVE",
"63 28 CURVE SMOOTH",
"26 20 LINE"
);
},
{
closed = 1;
nodes = (
"332 670 LINE SMOOTH",
"497 670 OFFCURVE",
"541 592 OFFCURVE",
"541 350 CURVE SMOOTH",
"541 108 OFFCURVE",
"497 30 OFFCURVE",
"332 30 CURVE SMOOTH",
"291 30 LINE",
"291 670 LINE"
);
},
{
closed = 1;
nodes = (
"435 760 LINE",
"474 809 OFFCURVE",
"520 856 OFFCURVE",
"569 897 CURVE",
"558 912 LINE",
"508 895 OFFCURVE",
"459 872 OFFCURVE",
"409 843 CURVE",
"359 872 OFFCURVE",
"310 895 OFFCURVE",
"260 912 CURVE",
"249 897 LINE",
"299 856 OFFCURVE",
"344 809 OFFCURVE",
"383 760 CURVE"
);
}
);
width = 818;
}
);
unicode = 010E;
},
{
glyphname = Dcroat;
layers = (
{
layerId = "0EFCFE59-F23A-4210-A5A1-DE9F39E2245D";
name = Regular;
paths = (
{
closed = 1;
nodes = (
"762 620 OFFCURVE",
"592 700 OFFCURVE",
"332 700 CURVE SMOOTH",
"26 700 LINE",
"26 680 LINE",
"63 672 LINE SMOOTH",
"82 668 OFFCURVE",
"87 666 OFFCURVE",
"87 650 CURVE SMOOTH",
"87 352 LINE",
"26 352 LINE",
"26 324 LINE",
"87 324 LINE",
"87 50 LINE SMOOTH",
"87 34 OFFCURVE",
"82 32 OFFCURVE",
"63 28 CURVE SMOOTH",
"26 20 LINE",
"26 0 LINE",
"332 0 LINE SMOOTH",
"592 0 OFFCURVE",
"762 80 OFFCURVE",
"762 350 CURVE SMOOTH"
);
},
{
closed = 1;
nodes = (
"428 352 LINE",
"291 352 LINE",
"291 670 LINE",
"332 670 LINE SMOOTH",
"497 670 OFFCURVE",
"541 592 OFFCURVE",
"541 350 CURVE SMOOTH",
"541 108 OFFCURVE",
"497 30 OFFCURVE",
"332 30 CURVE SMOOTH",
"291 30 LINE",
"291 324 LINE",
"428 324 LINE"
);
}
);
width = 818;
}
);
unicode = 0110;
},
{
glyphname = Ddotbelow;
layers = (
{
layerId = "0EFCFE59-F23A-4210-A5A1-DE9F39E2245D";
name = Regular;
paths = (
{
closed = 1;
nodes = (
"26 0 LINE",
"332 0 LINE SMOOTH",
"592 0 OFFCURVE",
"762 80 OFFCURVE",
"762 350 CURVE SMOOTH",
"762 620 OFFCURVE",
"592 700 OFFCURVE",
"332 700 CURVE SMOOTH",
"26 700 LINE",
"26 680 LINE",
"63 672 LINE SMOOTH",
"82 668 OFFCURVE",
"87 666 OFFCURVE",
"87 650 CURVE SMOOTH",
"87 50 LINE SMOOTH",
"87 34 OFFCURVE",
"82 32 OFFCURVE",
"63 28 CURVE SMOOTH",
"26 20 LINE"
);
},
{
closed = 1;
nodes = (
"332 670 LINE SMOOTH",
"497 670 OFFCURVE",
"541 592 OFFCURVE",
"541 350 CURVE SMOOTH",
"541 108 OFFCURVE",
"497 30 OFFCURVE",
"332 30 CURVE SMOOTH",
"291 30 LINE",
"291 670 LINE"
);
},
{
closed = 1;
nodes = (
"437 -208 OFFCURVE",
"472 -182 OFFCURVE",
"472 -133 CURVE SMOOTH",
"472 -84 OFFCURVE",
"437 -58 OFFCURVE",
"389 -58 CURVE SMOOTH",
"341 -58 OFFCURVE",
"306 -84 OFFCURVE",
"306 -133 CURVE SMOOTH",
"306 -182 OFFCURVE",
"341 -208 OFFCURVE",
"389 -208 CURVE SMOOTH"
);
}
);
width = 818;
}
);
unicode = 1E0C;
},
{
glyphname = Dlinebelow;
layers = (
{
layerId = "0EFCFE59-F23A-4210-A5A1-DE9F39E2245D";
name = Regular;
paths = (
{
closed = 1;
nodes = (
"26 0 LINE",
"332 0 LINE SMOOTH",
"592 0 OFFCURVE",
"762 80 OFFCURVE",
"762 350 CURVE SMOOTH",
"762 620 OFFCURVE",
"592 700 OFFCURVE",
"332 700 CURVE SMOOTH",
"26 700 LINE",
"26 680 LINE",
"63 672 LINE SMOOTH",
"82 668 OFFCURVE",
"87 666 OFFCURVE",
"87 650 CURVE SMOOTH",
"87 50 LINE SMOOTH",
"87 34 OFFCURVE",
"82 32 OFFCURVE",
"63 28 CURVE SMOOTH",
"26 20 LINE"
);
},
{
closed = 1;
nodes = (
"332 670 LINE SMOOTH",
"497 670 OFFCURVE",
"541 592 OFFCURVE",
"541 350 CURVE SMOOTH",
"541 108 OFFCURVE",
"497 30 OFFCURVE",
"332 30 CURVE SMOOTH",
"291 30 LINE",
"291 670 LINE"
);
},
{
closed = 1;
nodes = (
"209 -96 LINE",
"589 -96 LINE",
"589 -72 LINE",
"209 -72 LINE"
);
}
);
width = 818;
}
);
unicode = 1E0E;
},
{
glyphname = E;
layers = (
{
layerId = "0EFCFE59-F23A-4210-A5A1-DE9F39E2245D";
name = Regular;
paths = (
{
closed = 1;
nodes = (
"26 0 LINE",
"656 0 LINE",
"656 199 LINE",
"630 199 LINE",
"593 87 OFFCURVE",
"566 30 OFFCURVE",
"443 30 CURVE SMOOTH",
"291 30 LINE",
"291 343 LINE",
"549 343 LINE",
"549 373 LINE",
"291 373 LINE",
"291 670 LINE",
"433 670 LINE SMOOTH",
"556 670 OFFCURVE",
"580 617 OFFCURVE",
"617 505 CURVE",
"642 505 LINE",
"642 700 LINE",
"26 700 LINE",
"26 680 LINE",
"63 672 LINE SMOOTH",
"82 668 OFFCURVE",
"87 666 OFFCURVE",
"87 650 CURVE SMOOTH",
"87 50 LINE SMOOTH",
"87 34 OFFCURVE",
"82 32 OFFCURVE",
"63 28 CURVE SMOOTH",
"26 20 LINE"
);
}
);
width = 720;
}
);
unicode = 0045;
},
{
glyphname = Eacute;
layers = (
{
layerId = "0EFCFE59-F23A-4210-A5A1-DE9F39E2245D";
name = Regular;
paths = (
{
closed = 1;
nodes = (
"26 0 LINE",
"656 0 LINE",
"656 199 LINE",
"630 199 LINE",
"593 87 OFFCURVE",
"566 30 OFFCURVE",
"443 30 CURVE SMOOTH",
"291 30 LINE",
"291 343 LINE",
"549 343 LINE",
"549 373 LINE",
"291 373 LINE",
"291 670 LINE",
"433 670 LINE SMOOTH",
"556 670 OFFCURVE",
"580 617 OFFCURVE",
"617 505 CURVE",
"642 505 LINE",
"642 700 LINE",
"26 700 LINE",
"26 680 LINE",
"63 672 LINE SMOOTH",
"82 668 OFFCURVE",
"87 666 OFFCURVE",
"87 650 CURVE SMOOTH",
"87 50 LINE SMOOTH",
"87 34 OFFCURVE",
"82 32 OFFCURVE",
"63 28 CURVE SMOOTH",
"26 20 LINE"
);
},
{
closed = 1;
nodes = (
"395 867 OFFCURVE",
"318 813 OFFCURVE",
"263 771 CURVE",
"268 760 LINE",
"329 770 OFFCURVE",
"433 797 OFFCURVE",
"494 825 CURVE",
"493 863 OFFCURVE",
"468 898 OFFCURVE",
"438 912 CURVE"
);
}
);
width = 720;
}
);
unicode = 00C9;
},
{
glyphname = Ebreve;
layers = (
{
layerId = "0EFCFE59-F23A-4210-A5A1-DE9F39E2245D";
name = Regular;
paths = (
{
closed = 1;
nodes = (
"26 0 LINE",
"656 0 LINE",
"656 199 LINE",
"630 199 LINE",
"593 87 OFFCURVE",
"566 30 OFFCURVE",
"443 30 CURVE SMOOTH",
"291 30 LINE",
"291 343 LINE",
"549 343 LINE",
"549 373 LINE",
"291 373 LINE",
"291 670 LINE",
"433 670 LINE SMOOTH",
"556 670 OFFCURVE",
"580 617 OFFCURVE",
"617 505 CURVE",
"642 505 LINE",
"642 700 LINE",
"26 700 LINE",
"26 680 LINE",
"63 672 LINE SMOOTH",
"82 668 OFFCURVE",
"87 666 OFFCURVE",
"87 650 CURVE SMOOTH",
"87 50 LINE SMOOTH",
"87 34 OFFCURVE",
"82 32 OFFCURVE",
"63 28 CURVE SMOOTH",
"26 20 LINE"
);
},
{
closed = 1;
nodes = (
"473 760 OFFCURVE",
"516 820 OFFCURVE",
"518 913 CURVE",
"498 913 LINE",
"485 862 OFFCURVE",
"459 837 OFFCURVE",
"380 837 CURVE SMOOTH",
"301 837 OFFCURVE",
"275 862 OFFCURVE",
"262 913 CURVE",
"242 913 LINE",
"244 820 OFFCURVE",
"287 760 OFFCURVE",
"380 760 CURVE SMOOTH"
);
}
);
width = 720;
}
);
unicode = 0114;
},
{
glyphname = Ecaron;
layers = (
{
layerId = "0EFCFE59-F23A-4210-A5A1-DE9F39E2245D";
name = Regular;
paths = (
{
closed = 1;
nodes = (
"26 0 LINE",
"656 0 LINE",
"656 199 LINE",
"630 199 LINE",
"593 87 OFFCURVE",
"566 30 OFFCURVE",
"443 30 CURVE SMOOTH",
"291 30 LINE",
"291 343 LINE",
"549 343 LINE",
"549 373 LINE",
"291 373 LINE",
"291 670 LINE",
"433 670 LINE SMOOTH",
"556 670 OFFCURVE",
"580 617 OFFCURVE",
"617 505 CURVE",
"642 505 LINE",
"642 700 LINE",
"26 700 LINE",
"26 680 LINE",
"63 672 LINE SMOOTH",
"82 668 OFFCURVE",
"87 666 OFFCURVE",
"87 650 CURVE SMOOTH",
"87 50 LINE SMOOTH",
"87 34 OFFCURVE",
"82 32 OFFCURVE",
"63 28 CURVE SMOOTH",
"26 20 LINE"
);
},
{
closed = 1;
nodes = (
"426 760 LINE",
"465 809 OFFCURVE",
"511 856 OFFCURVE",
"560 897 CURVE",
"549 912 LINE",
"499 895 OFFCURVE",
"450 872 OFFCURVE",
"400 843 CURVE",
"350 872 OFFCURVE",
"301 895 OFFCURVE",
"251 912 CURVE",
"240 897 LINE",
"290 856 OFFCURVE",
"335 809 OFFCURVE",
"374 760 CURVE"
);
}
);
width = 720;
}
);
unicode = 011A;
},
{
glyphname = Ecircumflex;
layers = (
{
layerId = "0EFCFE59-F23A-4210-A5A1-DE9F39E2245D";
name = Regular;
paths = (
{
closed = 1;
nodes = (
"26 0 LINE",
"656 0 LINE",
"656 199 LINE",
"630 199 LINE",
"593 87 OFFCURVE",
"566 30 OFFCURVE",
"443 30 CURVE SMOOTH",
"291 30 LINE",
"291 343 LINE",
"549 343 LINE",
"549 373 LINE",
"291 373 LINE",
"291 670 LINE",
"433 670 LINE SMOOTH",
"556 670 OFFCURVE",
"580 617 OFFCURVE",
"617 505 CURVE",
"642 505 LINE",
"642 700 LINE",
"26 700 LINE",
"26 680 LINE",
"63 672 LINE SMOOTH",
"82 668 OFFCURVE",
"87 666 OFFCURVE",
"87 650 CURVE SMOOTH",
"87 50 LINE SMOOTH",
"87 34 OFFCURVE",
"82 32 OFFCURVE",
"63 28 CURVE SMOOTH",
"26 20 LINE"
);
},
{
closed = 1;
nodes = (
"354 912 LINE",
"315 863 OFFCURVE",
"270 816 OFFCURVE",
"220 775 CURVE",
"231 760 LINE",
"281 777 OFFCURVE",
"330 800 OFFCURVE",
"380 829 CURVE",
"430 800 OFFCURVE",
"479 777 OFFCURVE",
"529 760 CURVE",
"540 775 LINE",
"491 816 OFFCURVE",
"445 863 OFFCURVE",
"406 912 CURVE"
);
}
);
width = 720;
}
);
unicode = 00CA;
},
{
glyphname = Ecircumflexacute;
layers = (
{
layerId = "0EFCFE59-F23A-4210-A5A1-DE9F39E2245D";
name = Regular;
paths = (
{
closed = 1;
nodes = (
"26 0 LINE",
"656 0 LINE",
"656 199 LINE",
"630 199 LINE",
"593 87 OFFCURVE",
"566 30 OFFCURVE",
"443 30 CURVE SMOOTH",
"291 30 LINE",
"291 343 LINE",
"549 343 LINE",
"549 373 LINE",
"291 373 LINE",
"291 670 LINE",
"433 670 LINE SMOOTH",
"556 670 OFFCURVE",
"580 617 OFFCURVE",
"617 505 CURVE",
"642 505 LINE",
"642 700 LINE",
"26 700 LINE",
"26 680 LINE",
"63 672 LINE SMOOTH",
"82 668 OFFCURVE",
"87 666 OFFCURVE",
"87 650 CURVE SMOOTH",
"87 50 LINE SMOOTH",
"87 34 OFFCURVE",
"82 32 OFFCURVE",
"63 28 CURVE SMOOTH",
"26 20 LINE"
);
},
{
closed = 1;
nodes = (
"354 894 LINE",
"313 849 OFFCURVE",
"275 812 OFFCURVE",
"224 775 CURVE",
"235 760 LINE",
"279 774 OFFCURVE",
"335 795 OFFCURVE",
"380 821 CURVE",
"425 795 OFFCURVE",
"481 774 OFFCURVE",
"525 760 CURVE",
"536 775 LINE",
"489 812 OFFCURVE",
"447 849 OFFCURVE",
"406 894 CURVE"
);
},
{
closed = 1;
nodes = (
"542 985 OFFCURVE",
"511 937 OFFCURVE",
"476 886 CURVE",
"487 876 LINE",
"536 901 OFFCURVE",
"585 941 OFFCURVE",
"633 984 CURVE",
"622 1013 OFFCURVE",
"595 1034 OFFCURVE",
"567 1036 CURVE"
);
}
);
width = 720;
}
);
unicode = 1EBE;
},
{
glyphname = Ecircumflexdotbelow;
layers = (
{
layerId = "0EFCFE59-F23A-4210-A5A1-DE9F39E2245D";
name = Regular;
paths = (
{
closed = 1;
nodes = (
"26 0 LINE",
"656 0 LINE",
"656 199 LINE",
"630 199 LINE",
"593 87 OFFCURVE",
"566 30 OFFCURVE",
"443 30 CURVE SMOOTH",
"291 30 LINE",
"291 343 LINE",
"549 343 LINE",
"549 373 LINE",
"291 373 LINE",
"291 670 LINE",
"433 670 LINE SMOOTH",
"556 670 OFFCURVE",
"580 617 OFFCURVE",
"617 505 CURVE",
"642 505 LINE",
"642 700 LINE",
"26 700 LINE",
"26 680 LINE",
"63 672 LINE SMOOTH",
"82 668 OFFCURVE",
"87 666 OFFCURVE",
"87 650 CURVE SMOOTH",
"87 50 LINE SMOOTH",
"87 34 OFFCURVE",
"82 32 OFFCURVE",
"63 28 CURVE SMOOTH",
"26 20 LINE"
);
},
{
closed = 1;
nodes = (
"354 912 LINE",
"315 863 OFFCURVE",
"270 816 OFFCURVE",
"220 775 CURVE",
"231 760 LINE",
"281 777 OFFCURVE",
"330 800 OFFCURVE",
"380 829 CURVE",
"430 800 OFFCURVE",
"479 777 OFFCURVE",
"529 760 CURVE",
"540 775 LINE",
"491 816 OFFCURVE",
"445 863 OFFCURVE",
"406 912 CURVE"
);
},
{
closed = 1;
nodes = (
"428 -208 OFFCURVE",
"463 -182 OFFCURVE",
"463 -133 CURVE SMOOTH",
"463 -84 OFFCURVE",
"428 -58 OFFCURVE",
"380 -58 CURVE SMOOTH",
"332 -58 OFFCURVE",
"297 -84 OFFCURVE",
"297 -133 CURVE SMOOTH",
"297 -182 OFFCURVE",
"332 -208 OFFCURVE",
"380 -208 CURVE SMOOTH"
);
}
);
width = 720;
}
);
unicode = 1EC6;
},
{
glyphname = Ecircumflexgrave;
layers = (
{
layerId = "0EFCFE59-F23A-4210-A5A1-DE9F39E2245D";
name = Regular;
paths = (
{
closed = 1;
nodes = (
"26 0 LINE",
"656 0 LINE",
"656 199 LINE",
"630 199 LINE",
"593 87 OFFCURVE",
"566 30 OFFCURVE",
"443 30 CURVE SMOOTH",
"291 30 LINE",
"291 343 LINE",
"549 343 LINE",
"549 373 LINE",
"291 373 LINE",
"291 670 LINE",
"433 670 LINE SMOOTH",
"556 670 OFFCURVE",
"580 617 OFFCURVE",
"617 505 CURVE",
"642 505 LINE",
"642 700 LINE",
"26 700 LINE",
"26 680 LINE",
"63 672 LINE SMOOTH",
"82 668 OFFCURVE",
"87 666 OFFCURVE",
"87 650 CURVE SMOOTH",
"87 50 LINE SMOOTH",
"87 34 OFFCURVE",
"82 32 OFFCURVE",
"63 28 CURVE SMOOTH",
"26 20 LINE"
);
},
{
closed = 1;
nodes = (
"165 1034 OFFCURVE",
"138 1013 OFFCURVE",
"127 984 CURVE",
"175 941 OFFCURVE",
"224 901 OFFCURVE",
"273 876 CURVE",
"284 886 LINE",
"249 937 OFFCURVE",
"218 985 OFFCURVE",
"193 1036 CURVE"
);
},
{
closed = 1;
nodes = (
"354 894 LINE",
"313 849 OFFCURVE",
"275 812 OFFCURVE",
"224 775 CURVE",
"235 760 LINE",
"279 774 OFFCURVE",
"335 795 OFFCURVE",
"380 821 CURVE",
"425 795 OFFCURVE",
"481 774 OFFCURVE",
"525 760 CURVE",
"536 775 LINE",
"489 812 OFFCURVE",
"447 849 OFFCURVE",
"406 894 CURVE"
);
}
);
width = 720;
}
);
unicode = 1EC0;
},
{
glyphname = Ecircumflexhookabove;
layers = (
{
layerId = "0EFCFE59-F23A-4210-A5A1-DE9F39E2245D";
name = Regular;
paths = (
{
closed = 1;
nodes = (
"26 0 LINE",
"656 0 LINE",
"656 199 LINE",
"630 199 LINE",
"593 87 OFFCURVE",
"566 30 OFFCURVE",
"443 30 CURVE SMOOTH",
"291 30 LINE",
"291 343 LINE",
"549 343 LINE",
"549 373 LINE",
"291 373 LINE",
"291 670 LINE",
"433 670 LINE SMOOTH",
"556 670 OFFCURVE",
"580 617 OFFCURVE",
"617 505 CURVE",
"642 505 LINE",
"642 700 LINE",
"26 700 LINE",
"26 680 LINE",
"63 672 LINE SMOOTH",
"82 668 OFFCURVE",
"87 666 OFFCURVE",
"87 650 CURVE SMOOTH",
"87 50 LINE SMOOTH",
"87 34 OFFCURVE",
"82 32 OFFCURVE",
"63 28 CURVE SMOOTH",
"26 20 LINE"
);
},
{
closed = 1;
nodes = (
"354 894 LINE",
"313 849 OFFCURVE",
"275 812 OFFCURVE",
"224 775 CURVE",
"235 760 LINE",
"279 774 OFFCURVE",
"335 795 OFFCURVE",
"380 821 CURVE",
"425 795 OFFCURVE",
"481 774 OFFCURVE",
"525 760 CURVE",
"536 775 LINE",
"489 812 OFFCURVE",
"447 849 OFFCURVE",
"406 894 CURVE"
);
},
{
closed = 1;
nodes = (
"538 880 LINE",
"587 891 OFFCURVE",
"616 914 OFFCURVE",
"616 953 CURVE SMOOTH",
"616 995 OFFCURVE",
"585 1010 OFFCURVE",
"538 1010 CURVE SMOOTH",
"495 1010 OFFCURVE",
"467 999 OFFCURVE",
"448 989 CURVE",
"454 973 LINE",
"472 981 OFFCURVE",
"484 985 OFFCURVE",
"504 985 CURVE SMOOTH",
"527 985 OFFCURVE",
"537 975 OFFCURVE",
"537 955 CURVE SMOOTH",
"537 921 OFFCURVE",
"525 907 OFFCURVE",
"502 892 CURVE",
"508 850 LINE",
"534 850 LINE"
);
}
);
width = 720;
}
);
unicode = 1EC2;
},
{
glyphname = Ecircumflextilde;
layers = (
{
layerId = "0EFCFE59-F23A-4210-A5A1-DE9F39E2245D";
name = Regular;
paths = (
{
closed = 1;
nodes = (
"26 0 LINE",
"656 0 LINE",
"656 199 LINE",
"630 199 LINE",
"593 87 OFFCURVE",
"566 30 OFFCURVE",
"443 30 CURVE SMOOTH",
"291 30 LINE",
"291 343 LINE",
"549 343 LINE",
"549 373 LINE",
"291 373 LINE",
"291 670 LINE",
"433 670 LINE SMOOTH",
"556 670 OFFCURVE",
"580 617 OFFCURVE",
"617 505 CURVE",
"642 505 LINE",
"642 700 LINE",
"26 700 LINE",
"26 680 LINE",
"63 672 LINE SMOOTH",
"82 668 OFFCURVE",
"87 666 OFFCURVE",
"87 650 CURVE SMOOTH",
"87 50 LINE SMOOTH",
"87 34 OFFCURVE",
"82 32 OFFCURVE",
"63 28 CURVE SMOOTH",
"26 20 LINE"
);
},
{
closed = 1;
nodes = (
"354 894 LINE",
"313 849 OFFCURVE",
"275 812 OFFCURVE",
"224 775 CURVE",
"235 760 LINE",
"279 774 OFFCURVE",
"335 795 OFFCURVE",
"380 821 CURVE",
"425 795 OFFCURVE",
"481 774 OFFCURVE",
"525 760 CURVE",
"536 775 LINE",
"489 812 OFFCURVE",
"447 849 OFFCURVE",
"406 894 CURVE"
);
},
{
closed = 1;
nodes = (
"497 930 OFFCURVE",
"523 986 OFFCURVE",
"538 1025 CURVE",
"524 1031 LINE",
"506 1007 LINE SMOOTH",
"496 993 OFFCURVE",
"473 989 OFFCURVE",
"454 996 CURVE SMOOTH",
"379 1025 OFFCURVE",
"332 1042 OFFCURVE",
"309 1042 CURVE SMOOTH",
"263 1042 OFFCURVE",
"236 985 OFFCURVE",
"222 946 CURVE",
"235 941 LINE",
"254 964 LINE",
"264 978 OFFCURVE",
"287 983 OFFCURVE",
"305 976 CURVE SMOOTH",
"380 946 OFFCURVE",
"427 930 OFFCURVE",
"451 930 CURVE SMOOTH"
);
}
);
width = 720;
}
);
unicode = 1EC4;
},
{
glyphname = Edieresis;
layers = (
{
layerId = "0EFCFE59-F23A-4210-A5A1-DE9F39E2245D";
name = Regular;
paths = (
{
closed = 1;
nodes = (
"26 0 LINE",
"656 0 LINE",
"656 199 LINE",
"630 199 LINE",
"593 87 OFFCURVE",
"566 30 OFFCURVE",
"443 30 CURVE SMOOTH",
"291 30 LINE",
"291 343 LINE",
"549 343 LINE",
"549 373 LINE",
"291 373 LINE",
"291 670 LINE",
"433 670 LINE SMOOTH",
"556 670 OFFCURVE",
"580 617 OFFCURVE",
"617 505 CURVE",
"642 505 LINE",
"642 700 LINE",
"26 700 LINE",
"26 680 LINE",
"63 672 LINE SMOOTH",
"82 668 OFFCURVE",
"87 666 OFFCURVE",
"87 650 CURVE SMOOTH",
"87 50 LINE SMOOTH",
"87 34 OFFCURVE",
"82 32 OFFCURVE",
"63 28 CURVE SMOOTH",
"26 20 LINE"
);
},
{
closed = 1;
nodes = (
"297 767 OFFCURVE",
"328 799 OFFCURVE",
"328 840 CURVE SMOOTH",
"328 881 OFFCURVE",
"297 913 OFFCURVE",
"251 913 CURVE SMOOTH",
"205 913 OFFCURVE",
"174 881 OFFCURVE",
"174 840 CURVE SMOOTH",
"174 799 OFFCURVE",
"205 767 OFFCURVE",
"251 767 CURVE SMOOTH"
);
},
{
closed = 1;
nodes = (
"535 767 OFFCURVE",
"566 799 OFFCURVE",
"566 840 CURVE SMOOTH",
"566 881 OFFCURVE",
"535 913 OFFCURVE",
"489 913 CURVE SMOOTH",
"443 913 OFFCURVE",
"412 881 OFFCURVE",
"412 840 CURVE SMOOTH",
"412 799 OFFCURVE",
"443 767 OFFCURVE",
"489 767 CURVE SMOOTH"
);
}
);
width = 720;
}
);
unicode = 00CB;
},
{
glyphname = Edotaccent;
layers = (
{
layerId = "0EFCFE59-F23A-4210-A5A1-DE9F39E2245D";
name = Regular;
paths = (
{
closed = 1;
nodes = (
"26 0 LINE",
"656 0 LINE",
"656 199 LINE",
"630 199 LINE",
"593 87 OFFCURVE",
"566 30 OFFCURVE",
"443 30 CURVE SMOOTH",
"291 30 LINE",
"291 343 LINE",
"549 343 LINE",
"549 373 LINE",
"291 373 LINE",
"291 670 LINE",
"433 670 LINE SMOOTH",
"556 670 OFFCURVE",
"580 617 OFFCURVE",
"617 505 CURVE",
"642 505 LINE",
"642 700 LINE",
"26 700 LINE",
"26 680 LINE",
"63 672 LINE SMOOTH",
"82 668 OFFCURVE",
"87 666 OFFCURVE",
"87 650 CURVE SMOOTH",
"87 50 LINE SMOOTH",
"87 34 OFFCURVE",
"82 32 OFFCURVE",
"63 28 CURVE SMOOTH",
"26 20 LINE"
);
},
{
closed = 1;
nodes = (
"430 763 OFFCURVE",
"467 787 OFFCURVE",
"467 838 CURVE SMOOTH",
"467 889 OFFCURVE",
"430 913 OFFCURVE",
"380 913 CURVE SMOOTH",
"330 913 OFFCURVE",
"293 889 OFFCURVE",
"293 838 CURVE SMOOTH",
"293 787 OFFCURVE",
"330 763 OFFCURVE",
"380 763 CURVE SMOOTH"
);
}
);
width = 720;
}
);
unicode = 0116;
},
{
glyphname = Edotbelow;
layers = (
{
layerId = "0EFCFE59-F23A-4210-A5A1-DE9F39E2245D";
name = Regular;
paths = (
{
closed = 1;
nodes = (
"26 0 LINE",
"656 0 LINE",
"656 199 LINE",
"630 199 LINE",
"593 87 OFFCURVE",
"566 30 OFFCURVE",
"443 30 CURVE SMOOTH",
"291 30 LINE",
"291 343 LINE",
"549 343 LINE",
"549 373 LINE",
"291 373 LINE",
"291 670 LINE",
"433 670 LINE SMOOTH",
"556 670 OFFCURVE",
"580 617 OFFCURVE",
"617 505 CURVE",
"642 505 LINE",
"642 700 LINE",
"26 700 LINE",
"26 680 LINE",
"63 672 LINE SMOOTH",
"82 668 OFFCURVE",
"87 666 OFFCURVE",
"87 650 CURVE SMOOTH",
"87 50 LINE SMOOTH",
"87 34 OFFCURVE",
"82 32 OFFCURVE",
"63 28 CURVE SMOOTH",
"26 20 LINE"
);
},
{
closed = 1;
nodes = (
"428 -208 OFFCURVE",
"463 -182 OFFCURVE",
"463 -133 CURVE SMOOTH",
"463 -84 OFFCURVE",
"428 -58 OFFCURVE",
"380 -58 CURVE SMOOTH",
"332 -58 OFFCURVE",
"297 -84 OFFCURVE",
"297 -133 CURVE SMOOTH",
"297 -182 OFFCURVE",
"332 -208 OFFCURVE",
"380 -208 CURVE SMOOTH"
);
}
);
width = 720;
}
);
unicode = 1EB8;
},
{
glyphname = Egrave;
layers = (
{
layerId = "0EFCFE59-F23A-4210-A5A1-DE9F39E2245D";
name = Regular;
paths = (
{
closed = 1;
nodes = (
"26 0 LINE",
"656 0 LINE",
"656 199 LINE",
"630 199 LINE",
"593 87 OFFCURVE",
"566 30 OFFCURVE",
"443 30 CURVE SMOOTH",
"291 30 LINE",
"291 343 LINE",
"549 343 LINE",
"549 373 LINE",
"291 373 LINE",
"291 670 LINE",
"433 670 LINE SMOOTH",
"556 670 OFFCURVE",
"580 617 OFFCURVE",
"617 505 CURVE",
"642 505 LINE",
"642 700 LINE",
"26 700 LINE",
"26 680 LINE",
"63 672 LINE SMOOTH",
"82 668 OFFCURVE",
"87 666 OFFCURVE",
"87 650 CURVE SMOOTH",
"87 50 LINE SMOOTH",
"87 34 OFFCURVE",
"82 32 OFFCURVE",
"63 28 CURVE SMOOTH",
"26 20 LINE"
);
},
{
closed = 1;
nodes = (
"282 898 OFFCURVE",
"257 863 OFFCURVE",
"256 825 CURVE",
"317 797 OFFCURVE",
"421 770 OFFCURVE",
"482 760 CURVE",
"487 771 LINE",
"432 813 OFFCURVE",
"355 867 OFFCURVE",
"312 912 CURVE"
);
}
);
width = 720;
}
);
unicode = 00C8;
},
{
glyphname = Ehookabove;
layers = (
{
layerId = "0EFCFE59-F23A-4210-A5A1-DE9F39E2245D";
name = Regular;
paths = (
{
closed = 1;
nodes = (
"26 0 LINE",
"656 0 LINE",
"656 199 LINE",
"630 199 LINE",
"593 87 OFFCURVE",
"566 30 OFFCURVE",
"443 30 CURVE SMOOTH",
"291 30 LINE",
"291 343 LINE",
"549 343 LINE",
"549 373 LINE",
"291 373 LINE",
"291 670 LINE",
"433 670 LINE SMOOTH",
"556 670 OFFCURVE",
"580 617 OFFCURVE",
"617 505 CURVE",
"642 505 LINE",
"642 700 LINE",
"26 700 LINE",
"26 680 LINE",
"63 672 LINE SMOOTH",
"82 668 OFFCURVE",
"87 666 OFFCURVE",
"87 650 CURVE SMOOTH",
"87 50 LINE SMOOTH",
"87 34 OFFCURVE",
"82 32 OFFCURVE",
"63 28 CURVE SMOOTH",
"26 20 LINE"
);
},
{
closed = 1;
nodes = (
"393 794 LINE",
"453 808 OFFCURVE",
"495 833 OFFCURVE",
"495 881 CURVE SMOOTH",
"495 932 OFFCURVE",
"453 951 OFFCURVE",
"400 951 CURVE SMOOTH",
"345 951 OFFCURVE",
"308 936 OFFCURVE",
"285 925 CURVE",
"292 905 LINE",
"314 914 OFFCURVE",
"330 919 OFFCURVE",
"358 919 CURVE SMOOTH",
"383 919 OFFCURVE",
"397 908 OFFCURVE",
"397 883 CURVE SMOOTH",
"397 849 OFFCURVE",
"384 827 OFFCURVE",
"355 809 CURVE",
"361 760 LINE",
"389 760 LINE"
);
}
);
width = 720;
}
);
unicode = 1EBA;
},
{
glyphname = Emacron;
layers = (
{
layerId = "0EFCFE59-F23A-4210-A5A1-DE9F39E2245D";
name = Regular;
paths = (
{
closed = 1;
nodes = (
"26 0 LINE",
"656 0 LINE",
"656 199 LINE",
"630 199 LINE",
"593 87 OFFCURVE",
"566 30 OFFCURVE",
"443 30 CURVE SMOOTH",
"291 30 LINE",
"291 343 LINE",
"549 343 LINE",
"549 373 LINE",
"291 373 LINE",
"291 670 LINE",
"433 670 LINE SMOOTH",
"556 670 OFFCURVE",
"580 617 OFFCURVE",
"617 505 CURVE",
"642 505 LINE",
"642 700 LINE",
"26 700 LINE",
"26 680 LINE",
"63 672 LINE SMOOTH",
"82 668 OFFCURVE",
"87 666 OFFCURVE",
"87 650 CURVE SMOOTH",
"87 50 LINE SMOOTH",
"87 34 OFFCURVE",
"82 32 OFFCURVE",
"63 28 CURVE SMOOTH",
"26 20 LINE"
);
},
{
closed = 1;
nodes = (
"190 778 LINE",
"570 778 LINE",
"570 802 LINE",
"190 802 LINE"
);
}
);
width = 720;
}
);
unicode = 0112;
},
{
glyphname = Eogonek;
layers = (
{
layerId = "0EFCFE59-F23A-4210-A5A1-DE9F39E2245D";
name = Regular;
paths = (
{
closed = 1;
nodes = (
"26 0 LINE",
"552 0 LINE",
"480 -21 OFFCURVE",
"420 -63 OFFCURVE",
"420 -131 CURVE SMOOTH",
"420 -178 OFFCURVE",
"456 -205 OFFCURVE",
"526 -205 CURVE SMOOTH",
"578 -205 OFFCURVE",
"612 -180 OFFCURVE",
"636 -153 CURVE",
"629 -142 LINE",
"615 -153 OFFCURVE",
"595 -165 OFFCURVE",
"576 -165 CURVE SMOOTH",
"535 -165 OFFCURVE",
"518 -147 OFFCURVE",
"518 -106 CURVE SMOOTH",
"518 -57 OFFCURVE",
"533 -22 OFFCURVE",
"579 0 CURVE",
"656 0 LINE",
"656 199 LINE",
"630 199 LINE",
"593 87 OFFCURVE",
"566 30 OFFCURVE",
"443 30 CURVE SMOOTH",
"291 30 LINE",
"291 343 LINE",
"549 343 LINE",
"549 373 LINE",
"291 373 LINE",
"291 670 LINE",
"433 670 LINE SMOOTH",
"556 670 OFFCURVE",
"580 617 OFFCURVE",
"617 505 CURVE",
"642 505 LINE",
"642 700 LINE",
"26 700 LINE",
"26 680 LINE",
"63 672 LINE SMOOTH",
"82 668 OFFCURVE",
"87 666 OFFCURVE",
"87 650 CURVE SMOOTH",
"87 50 LINE SMOOTH",
"87 34 OFFCURVE",
"82 32 OFFCURVE",
"63 28 CURVE SMOOTH",
"26 20 LINE"
);
}
);
width = 720;
}
);
unicode = 0118;
},
{
glyphname = Etilde;
layers = (
{
layerId = "0EFCFE59-F23A-4210-A5A1-DE9F39E2245D";
name = Regular;
paths = (
{
closed = 1;
nodes = (
"26 0 LINE",
"656 0 LINE",
"656 199 LINE",
"630 199 LINE",
"593 87 OFFCURVE",
"566 30 OFFCURVE",
"443 30 CURVE SMOOTH",
"291 30 LINE",
"291 343 LINE",
"549 343 LINE",
"549 373 LINE",
"291 373 LINE",
"291 670 LINE",
"433 670 LINE SMOOTH",
"556 670 OFFCURVE",
"580 617 OFFCURVE",
"617 505 CURVE",
"642 505 LINE",
"642 700 LINE",
"26 700 LINE",
"26 680 LINE",
"63 672 LINE SMOOTH",
"82 668 OFFCURVE",
"87 666 OFFCURVE",
"87 650 CURVE SMOOTH",
"87 50 LINE SMOOTH",
"87 34 OFFCURVE",
"82 32 OFFCURVE",
"63 28 CURVE SMOOTH",
"26 20 LINE"
);
},
{
closed = 1;
nodes = (
"524 758 OFFCURVE",
"550 833 OFFCURVE",
"569 883 CURVE",
"557 888 LINE",
"533 858 LINE",
"520 840 OFFCURVE",
"493 834 OFFCURVE",
"469 843 CURVE SMOOTH",
"373 881 OFFCURVE",
"325 902 OFFCURVE",
"295 902 CURVE SMOOTH",
"236 902 OFFCURVE",
"210 827 OFFCURVE",
"191 777 CURVE",
"203 772 LINE",
"227 802 LINE",
"240 820 OFFCURVE",
"267 826 OFFCURVE",
"291 817 CURVE SMOOTH",
"387 779 OFFCURVE",
"435 758 OFFCURVE",
"465 758 CURVE SMOOTH"
);
}
);
width = 720;
}
);
unicode = 1EBC;
},
{
glyphname = F;
layers = (
{
layerId = "0EFCFE59-F23A-4210-A5A1-DE9F39E2245D";
name = Regular;
paths = (
{
closed = 1;
nodes = (
"630 700 LINE",
"26 700 LINE",
"26 680 LINE",
"63 672 LINE SMOOTH",
"82 668 OFFCURVE",
"87 666 OFFCURVE",
"87 650 CURVE SMOOTH",
"87 50 LINE SMOOTH",
"87 34 OFFCURVE",
"82 32 OFFCURVE",
"63 28 CURVE SMOOTH",
"26 20 LINE",
"26 0 LINE",
"358 0 LINE",
"358 20 LINE",
"315 29 LINE SMOOTH",
"296 33 OFFCURVE",
"291 35 OFFCURVE",
"291 51 CURVE SMOOTH",
"291 343 LINE",
"541 343 LINE",
"541 373 LINE",
"291 373 LINE",
"291 670 LINE",
"421 670 LINE SMOOTH",
"544 670 OFFCURVE",
"568 617 OFFCURVE",
"605 505 CURVE",
"630 505 LINE"
);
}
);
width = 674;
}
);
unicode = 0046;
},
{
glyphname = G;
layers = (
{
layerId = "0EFCFE59-F23A-4210-A5A1-DE9F39E2245D";
name = Regular;
paths = (
{
closed = 1;
nodes = (
"276 576 OFFCURVE",
"322 683 OFFCURVE",
"453 683 CURVE SMOOTH",
"575 683 OFFCURVE",
"630 591 OFFCURVE",
"662 495 CURVE",
"690 495 LINE",
"704 667 LINE",
"654 692 OFFCURVE",
"553 712 OFFCURVE",
"452 712 CURVE SMOOTH",
"233 712 OFFCURVE",
"56 616 OFFCURVE",
"56 360 CURVE SMOOTH",
"56 80 OFFCURVE",
"246 -12 OFFCURVE",
"444 -12 CURVE SMOOTH",
"523 -12 OFFCURVE",
"633 27 OFFCURVE",
"722 44 CURVE",
"722 307 LINE",
"449 307 LINE",
"449 277 LINE",
"548 277 LINE",
"548 31 LINE",
"516 31 LINE SMOOTH",
"338 31 OFFCURVE",
"276 134 OFFCURVE",
"276 386 CURVE SMOOTH"
);
}
);
width = 790;
}
);
unicode = 0047;
},
{
glyphname = Gbreve;
layers = (
{
layerId = "0EFCFE59-F23A-4210-A5A1-DE9F39E2245D";
name = Regular;
paths = (
{
closed = 1;
nodes = (
"276 576 OFFCURVE",
"322 683 OFFCURVE",
"453 683 CURVE SMOOTH",
"575 683 OFFCURVE",
"630 591 OFFCURVE",
"662 495 CURVE",
"690 495 LINE",
"704 667 LINE",
"654 692 OFFCURVE",
"553 712 OFFCURVE",
"452 712 CURVE SMOOTH",
"233 712 OFFCURVE",
"56 616 OFFCURVE",
"56 360 CURVE SMOOTH",
"56 80 OFFCURVE",
"246 -12 OFFCURVE",
"444 -12 CURVE SMOOTH",
"523 -12 OFFCURVE",
"633 27 OFFCURVE",
"722 44 CURVE",
"722 307 LINE",
"449 307 LINE",
"449 277 LINE",
"548 277 LINE",
"548 31 LINE",
"516 31 LINE SMOOTH",
"338 31 OFFCURVE",
"276 134 OFFCURVE",
"276 386 CURVE SMOOTH"
);
},
{
closed = 1;
nodes = (
"548 760 OFFCURVE",
"591 820 OFFCURVE",
"593 913 CURVE",
"573 913 LINE",
"560 862 OFFCURVE",
"534 837 OFFCURVE",
"455 837 CURVE SMOOTH",
"376 837 OFFCURVE",
"350 862 OFFCURVE",
"337 913 CURVE",
"317 913 LINE",
"319 820 OFFCURVE",
"362 760 OFFCURVE",
"455 760 CURVE SMOOTH"
);
}
);
width = 790;
}
);
unicode = 011E;
},
{
glyphname = Gcaron;
layers = (
{
layerId = "0EFCFE59-F23A-4210-A5A1-DE9F39E2245D";
name = Regular;
paths = (
{
closed = 1;
nodes = (
"276 576 OFFCURVE",
"322 683 OFFCURVE",
"453 683 CURVE SMOOTH",
"575 683 OFFCURVE",
"630 591 OFFCURVE",
"662 495 CURVE",
"690 495 LINE",
"704 667 LINE",
"654 692 OFFCURVE",
"553 712 OFFCURVE",
"452 712 CURVE SMOOTH",
"233 712 OFFCURVE",
"56 616 OFFCURVE",
"56 360 CURVE SMOOTH",
"56 80 OFFCURVE",
"246 -12 OFFCURVE",
"444 -12 CURVE SMOOTH",
"523 -12 OFFCURVE",
"633 27 OFFCURVE",
"722 44 CURVE",
"722 307 LINE",
"449 307 LINE",
"449 277 LINE",
"548 277 LINE",
"548 31 LINE",
"516 31 LINE SMOOTH",
"338 31 OFFCURVE",
"276 134 OFFCURVE",
"276 386 CURVE SMOOTH"
);
},
{
closed = 1;
nodes = (
"481 760 LINE",
"520 809 OFFCURVE",
"566 856 OFFCURVE",
"615 897 CURVE",
"604 912 LINE",
"554 895 OFFCURVE",
"505 872 OFFCURVE",
"455 843 CURVE",
"405 872 OFFCURVE",
"356 895 OFFCURVE",
"306 912 CURVE",
"295 897 LINE",
"345 856 OFFCURVE",
"390 809 OFFCURVE",
"429 760 CURVE"
);
}
);
width = 790;
}
);
unicode = 01E6;
},
{
glyphname = Gcircumflex;
layers = (
{
layerId = "0EFCFE59-F23A-4210-A5A1-DE9F39E2245D";
name = Regular;
paths = (
{
closed = 1;
nodes = (
"276 576 OFFCURVE",
"322 683 OFFCURVE",
"453 683 CURVE SMOOTH",
"575 683 OFFCURVE",
"630 591 OFFCURVE",
"662 495 CURVE",
"690 495 LINE",
"704 667 LINE",
"654 692 OFFCURVE",
"553 712 OFFCURVE",
"452 712 CURVE SMOOTH",
"233 712 OFFCURVE",
"56 616 OFFCURVE",
"56 360 CURVE SMOOTH",
"56 80 OFFCURVE",
"246 -12 OFFCURVE",
"444 -12 CURVE SMOOTH",
"523 -12 OFFCURVE",
"633 27 OFFCURVE",
"722 44 CURVE",
"722 307 LINE",
"449 307 LINE",
"449 277 LINE",
"548 277 LINE",
"548 31 LINE",
"516 31 LINE SMOOTH",
"338 31 OFFCURVE",
"276 134 OFFCURVE",
"276 386 CURVE SMOOTH"
);
},
{
closed = 1;
nodes = (
"419 912 LINE",
"380 863 OFFCURVE",
"335 816 OFFCURVE",
"285 775 CURVE",
"296 760 LINE",
"346 777 OFFCURVE",
"395 800 OFFCURVE",
"445 829 CURVE",
"495 800 OFFCURVE",
"544 777 OFFCURVE",
"594 760 CURVE",
"605 775 LINE",
"556 816 OFFCURVE",
"510 863 OFFCURVE",
"471 912 CURVE"
);
}
);
width = 790;
}
);
unicode = 011C;
},
{
glyphname = Gcommaaccent;
layers = (
{
layerId = "0EFCFE59-F23A-4210-A5A1-DE9F39E2245D";
name = Regular;
paths = (
{
closed = 1;
nodes = (
"276 576 OFFCURVE",
"322 683 OFFCURVE",
"453 683 CURVE SMOOTH",
"575 683 OFFCURVE",
"630 591 OFFCURVE",
"662 495 CURVE",
"690 495 LINE",
"704 667 LINE",
"654 692 OFFCURVE",
"553 712 OFFCURVE",
"452 712 CURVE SMOOTH",
"233 712 OFFCURVE",
"56 616 OFFCURVE",
"56 360 CURVE SMOOTH",
"56 80 OFFCURVE",
"246 -12 OFFCURVE",
"444 -12 CURVE SMOOTH",
"523 -12 OFFCURVE",
"633 27 OFFCURVE",
"722 44 CURVE",
"722 307 LINE",
"449 307 LINE",
"449 277 LINE",
"548 277 LINE",
"548 31 LINE",
"516 31 LINE SMOOTH",
"338 31 OFFCURVE",
"276 134 OFFCURVE",
"276 386 CURVE SMOOTH"
);
},
{
closed = 1;
nodes = (
"463 -251 OFFCURVE",
"450 -280 OFFCURVE",
"405 -326 CURVE",
"423 -343 LINE",
"485 -295 OFFCURVE",
"537 -220 OFFCURVE",
"537 -142 CURVE SMOOTH",
"537 -86 OFFCURVE",
"503 -58 OFFCURVE",
"453 -58 CURVE SMOOTH",
"401 -58 OFFCURVE",
"373 -93 OFFCURVE",
"373 -134 CURVE SMOOTH",
"373 -176 OFFCURVE",
"400 -213 OFFCURVE",
"464 -206 CURVE"
);
}
);
width = 790;
}
);
unicode = 0122;
},
{
glyphname = Gdotaccent;
layers = (
{
layerId = "0EFCFE59-F23A-4210-A5A1-DE9F39E2245D";
name = Regular;
paths = (
{
closed = 1;
nodes = (
"276 576 OFFCURVE",
"322 683 OFFCURVE",
"453 683 CURVE SMOOTH",
"575 683 OFFCURVE",
"630 591 OFFCURVE",
"662 495 CURVE",
"690 495 LINE",
"704 667 LINE",
"654 692 OFFCURVE",
"553 712 OFFCURVE",
"452 712 CURVE SMOOTH",
"233 712 OFFCURVE",
"56 616 OFFCURVE",
"56 360 CURVE SMOOTH",
"56 80 OFFCURVE",
"246 -12 OFFCURVE",
"444 -12 CURVE SMOOTH",
"523 -12 OFFCURVE",
"633 27 OFFCURVE",
"722 44 CURVE",
"722 307 LINE",
"449 307 LINE",
"449 277 LINE",
"548 277 LINE",
"548 31 LINE",
"516 31 LINE SMOOTH",
"338 31 OFFCURVE",
"276 134 OFFCURVE",
"276 386 CURVE SMOOTH"
);
},
{
closed = 1;
nodes = (
"495 763 OFFCURVE",
"532 787 OFFCURVE",
"532 838 CURVE SMOOTH",
"532 889 OFFCURVE",
"495 913 OFFCURVE",
"445 913 CURVE SMOOTH",
"395 913 OFFCURVE",
"358 889 OFFCURVE",
"358 838 CURVE SMOOTH",
"358 787 OFFCURVE",
"395 763 OFFCURVE",
"445 763 CURVE SMOOTH"
);
}
);
width = 790;
}
);
unicode = 0120;
},
{
glyphname = Gmacron;
layers = (
{
layerId = "0EFCFE59-F23A-4210-A5A1-DE9F39E2245D";
name = Regular;
paths = (
{
closed = 1;
nodes = (
"276 576 OFFCURVE",
"322 683 OFFCURVE",
"453 683 CURVE SMOOTH",
"575 683 OFFCURVE",
"630 591 OFFCURVE",
"662 495 CURVE",
"690 495 LINE",
"704 667 LINE",
"654 692 OFFCURVE",
"553 712 OFFCURVE",
"452 712 CURVE SMOOTH",
"233 712 OFFCURVE",
"56 616 OFFCURVE",
"56 360 CURVE SMOOTH",
"56 80 OFFCURVE",
"246 -12 OFFCURVE",
"444 -12 CURVE SMOOTH",
"523 -12 OFFCURVE",
"633 27 OFFCURVE",
"722 44 CURVE",
"722 307 LINE",
"449 307 LINE",
"449 277 LINE",
"548 277 LINE",
"548 31 LINE",
"516 31 LINE SMOOTH",
"338 31 OFFCURVE",
"276 134 OFFCURVE",
"276 386 CURVE SMOOTH"
);
},
{
closed = 1;
nodes = (
"255 778 LINE",
"635 778 LINE",
"635 802 LINE",
"255 802 LINE"
);
}
);
width = 790;
}
);
unicode = 1E20;
},
{
glyphname = H;
layers = (
{
layerId = "0EFCFE59-F23A-4210-A5A1-DE9F39E2245D";
name = Regular;
paths = (
{
closed = 1;
nodes = (
"553 343 LINE",
"553 49 LINE SMOOTH",
"553 34 OFFCURVE",
"548 32 OFFCURVE",
"530 28 CURVE SMOOTH",
"494 20 LINE",
"494 0 LINE",
"818 0 LINE",
"818 20 LINE",
"781 28 LINE SMOOTH",
"762 32 OFFCURVE",
"757 34 OFFCURVE",
"757 50 CURVE SMOOTH",
"757 650 LINE SMOOTH",
"757 666 OFFCURVE",
"762 668 OFFCURVE",
"781 672 CURVE SMOOTH",
"818 680 LINE",
"818 700 LINE",
"494 700 LINE",
"494 680 LINE",
"530 672 LINE",
"548 669 OFFCURVE",
"553 666 OFFCURVE",
"553 651 CURVE SMOOTH",
"553 373 LINE",
"291 373 LINE",
"291 651 LINE SMOOTH",
"291 666 OFFCURVE",
"296 669 OFFCURVE",
"314 672 CURVE",
"350 680 LINE",
"350 700 LINE",
"26 700 LINE",
"26 680 LINE",
"63 672 LINE SMOOTH",
"82 668 OFFCURVE",
"87 666 OFFCURVE",
"87 650 CURVE SMOOTH",
"87 50 LINE SMOOTH",
"87 34 OFFCURVE",
"82 32 OFFCURVE",
"63 28 CURVE SMOOTH",
"26 20 LINE",
"26 0 LINE",
"350 0 LINE",
"350 20 LINE",
"314 28 LINE SMOOTH",
"296 32 OFFCURVE",
"291 34 OFFCURVE",
"291 49 CURVE SMOOTH",
"291 343 LINE"
);
}
);
width = 844;
}
);
unicode = 0048;
},
{
glyphname = Hbar;
layers = (
{
layerId = "0EFCFE59-F23A-4210-A5A1-DE9F39E2245D";
name = Regular;
paths = (
{
closed = 1;
nodes = (
"26 528 LINE",
"87 528 LINE",
"87 50 LINE SMOOTH",
"87 34 OFFCURVE",
"82 32 OFFCURVE",
"63 28 CURVE SMOOTH",
"26 20 LINE",
"26 0 LINE",
"350 0 LINE",
"350 20 LINE",
"314 28 LINE SMOOTH",
"296 32 OFFCURVE",
"291 34 OFFCURVE",
"291 49 CURVE SMOOTH",
"291 343 LINE",
"553 343 LINE",
"553 49 LINE SMOOTH",
"553 34 OFFCURVE",
"548 32 OFFCURVE",
"530 28 CURVE SMOOTH",
"494 20 LINE",
"494 0 LINE",
"818 0 LINE",
"818 20 LINE",
"781 28 LINE SMOOTH",
"762 32 OFFCURVE",
"757 34 OFFCURVE",
"757 50 CURVE SMOOTH",
"757 528 LINE",
"818 528 LINE",
"818 552 LINE",
"757 552 LINE",
"757 650 LINE SMOOTH",
"757 666 OFFCURVE",
"762 668 OFFCURVE",
"781 672 CURVE SMOOTH",
"818 680 LINE",
"818 700 LINE",
"494 700 LINE",
"494 680 LINE",
"530 672 LINE",
"548 669 OFFCURVE",
"553 666 OFFCURVE",
"553 651 CURVE SMOOTH",
"553 552 LINE",
"291 552 LINE",
"291 651 LINE SMOOTH",
"291 666 OFFCURVE",
"296 669 OFFCURVE",
"314 672 CURVE",
"350 680 LINE",
"350 700 LINE",
"26 700 LINE",
"26 680 LINE",
"63 672 LINE SMOOTH",
"82 668 OFFCURVE",
"87 666 OFFCURVE",
"87 650 CURVE SMOOTH",
"87 552 LINE",
"26 552 LINE"
);
},
{
closed = 1;
nodes = (
"291 373 LINE",
"291 528 LINE",
"553 528 LINE",
"553 373 LINE"
);
}
);
width = 844;
}
);
unicode = 0126;
},
{
glyphname = Hbrevebelow;
layers = (
{
layerId = "0EFCFE59-F23A-4210-A5A1-DE9F39E2245D";
name = Regular;
paths = (
{
closed = 1;
nodes = (
"553 343 LINE",
"553 49 LINE SMOOTH",
"553 34 OFFCURVE",
"548 32 OFFCURVE",
"530 28 CURVE SMOOTH",
"494 20 LINE",
"494 0 LINE",
"818 0 LINE",
"818 20 LINE",
"781 28 LINE SMOOTH",
"762 32 OFFCURVE",
"757 34 OFFCURVE",
"757 50 CURVE SMOOTH",
"757 650 LINE SMOOTH",
"757 666 OFFCURVE",
"762 668 OFFCURVE",
"781 672 CURVE SMOOTH",
"818 680 LINE",
"818 700 LINE",
"494 700 LINE",
"494 680 LINE",
"530 672 LINE",
"548 669 OFFCURVE",
"553 666 OFFCURVE",
"553 651 CURVE SMOOTH",
"553 373 LINE",
"291 373 LINE",
"291 651 LINE SMOOTH",
"291 666 OFFCURVE",
"296 669 OFFCURVE",
"314 672 CURVE",
"350 680 LINE",
"350 700 LINE",
"26 700 LINE",
"26 680 LINE",
"63 672 LINE SMOOTH",
"82 668 OFFCURVE",
"87 666 OFFCURVE",
"87 650 CURVE SMOOTH",
"87 50 LINE SMOOTH",
"87 34 OFFCURVE",
"82 32 OFFCURVE",
"63 28 CURVE SMOOTH",
"26 20 LINE",
"26 0 LINE",
"350 0 LINE",
"350 20 LINE",
"314 28 LINE SMOOTH",
"296 32 OFFCURVE",
"291 34 OFFCURVE",
"291 49 CURVE SMOOTH",
"291 343 LINE"
);
},
{
closed = 1;
nodes = (
"515 -194 OFFCURVE",
"558 -134 OFFCURVE",
"560 -41 CURVE",
"540 -41 LINE",
"527 -92 OFFCURVE",
"501 -117 OFFCURVE",
"422 -117 CURVE SMOOTH",
"343 -117 OFFCURVE",
"317 -92 OFFCURVE",
"304 -41 CURVE",
"284 -41 LINE",
"286 -134 OFFCURVE",
"329 -194 OFFCURVE",
"422 -194 CURVE SMOOTH"
);
}
);
width = 844;
}
);
unicode = 1E2A;
},
{
glyphname = Hcircumflex;
layers = (
{
layerId = "0EFCFE59-F23A-4210-A5A1-DE9F39E2245D";
name = Regular;
paths = (
{
closed = 1;
nodes = (
"553 343 LINE",
"553 49 LINE SMOOTH",
"553 34 OFFCURVE",
"548 32 OFFCURVE",
"530 28 CURVE SMOOTH",
"494 20 LINE",
"494 0 LINE",
"818 0 LINE",
"818 20 LINE",
"781 28 LINE SMOOTH",
"762 32 OFFCURVE",
"757 34 OFFCURVE",
"757 50 CURVE SMOOTH",
"757 650 LINE SMOOTH",
"757 666 OFFCURVE",
"762 668 OFFCURVE",
"781 672 CURVE SMOOTH",
"818 680 LINE",
"818 700 LINE",
"494 700 LINE",
"494 680 LINE",
"530 672 LINE",
"548 669 OFFCURVE",
"553 666 OFFCURVE",
"553 651 CURVE SMOOTH",
"553 373 LINE",
"291 373 LINE",
"291 651 LINE SMOOTH",
"291 666 OFFCURVE",
"296 669 OFFCURVE",
"314 672 CURVE",
"350 680 LINE",
"350 700 LINE",
"26 700 LINE",
"26 680 LINE",
"63 672 LINE SMOOTH",
"82 668 OFFCURVE",
"87 666 OFFCURVE",
"87 650 CURVE SMOOTH",
"87 50 LINE SMOOTH",
"87 34 OFFCURVE",
"82 32 OFFCURVE",
"63 28 CURVE SMOOTH",
"26 20 LINE",
"26 0 LINE",
"350 0 LINE",
"350 20 LINE",
"314 28 LINE SMOOTH",
"296 32 OFFCURVE",
"291 34 OFFCURVE",
"291 49 CURVE SMOOTH",
"291 343 LINE"
);
},
{
closed = 1;
nodes = (
"396 932 LINE",
"357 883 OFFCURVE",
"312 836 OFFCURVE",
"262 795 CURVE",
"273 780 LINE",
"323 797 OFFCURVE",
"372 820 OFFCURVE",
"422 849 CURVE",
"472 820 OFFCURVE",
"521 797 OFFCURVE",
"571 780 CURVE",
"582 795 LINE",
"533 836 OFFCURVE",
"487 883 OFFCURVE",
"448 932 CURVE"
);
}
);
width = 844;
}
);
unicode = 0124;
},
{
glyphname = Hdotbelow;
layers = (
{
layerId = "0EFCFE59-F23A-4210-A5A1-DE9F39E2245D";
name = Regular;
paths = (
{
closed = 1;
nodes = (
"553 343 LINE",
"553 49 LINE SMOOTH",
"553 34 OFFCURVE",
"548 32 OFFCURVE",
"530 28 CURVE SMOOTH",
"494 20 LINE",
"494 0 LINE",
"818 0 LINE",
"818 20 LINE",
"781 28 LINE SMOOTH",
"762 32 OFFCURVE",
"757 34 OFFCURVE",
"757 50 CURVE SMOOTH",
"757 650 LINE SMOOTH",
"757 666 OFFCURVE",
"762 668 OFFCURVE",
"781 672 CURVE SMOOTH",
"818 680 LINE",
"818 700 LINE",
"494 700 LINE",
"494 680 LINE",
"530 672 LINE",
"548 669 OFFCURVE",
"553 666 OFFCURVE",
"553 651 CURVE SMOOTH",
"553 373 LINE",
"291 373 LINE",
"291 651 LINE SMOOTH",
"291 666 OFFCURVE",
"296 669 OFFCURVE",
"314 672 CURVE",
"350 680 LINE",
"350 700 LINE",
"26 700 LINE",
"26 680 LINE",
"63 672 LINE SMOOTH",
"82 668 OFFCURVE",
"87 666 OFFCURVE",
"87 650 CURVE SMOOTH",
"87 50 LINE SMOOTH",
"87 34 OFFCURVE",
"82 32 OFFCURVE",
"63 28 CURVE SMOOTH",
"26 20 LINE",
"26 0 LINE",
"350 0 LINE",
"350 20 LINE",
"314 28 LINE SMOOTH",
"296 32 OFFCURVE",
"291 34 OFFCURVE",
"291 49 CURVE SMOOTH",
"291 343 LINE"
);
},
{
closed = 1;
nodes = (
"470 -208 OFFCURVE",
"505 -182 OFFCURVE",
"505 -133 CURVE SMOOTH",
"505 -84 OFFCURVE",
"470 -58 OFFCURVE",
"422 -58 CURVE SMOOTH",
"374 -58 OFFCURVE",
"339 -84 OFFCURVE",
"339 -133 CURVE SMOOTH",
"339 -182 OFFCURVE",
"374 -208 OFFCURVE",
"422 -208 CURVE SMOOTH"
);
}
);
width = 844;
}
);
unicode = 1E24;
},
{
glyphname = I;
layers = (
{
layerId = "0EFCFE59-F23A-4210-A5A1-DE9F39E2245D";
name = Regular;
paths = (
{
closed = 1;
nodes = (
"91 50 LINE SMOOTH",
"91 34 OFFCURVE",
"86 32 OFFCURVE",
"67 28 CURVE SMOOTH",
"30 20 LINE",
"30 0 LINE",
"356 0 LINE",
"356 20 LINE",
"319 28 LINE SMOOTH",
"300 32 OFFCURVE",
"295 34 OFFCURVE",
"295 50 CURVE SMOOTH",
"295 650 LINE SMOOTH",
"295 666 OFFCURVE",
"300 668 OFFCURVE",
"319 672 CURVE SMOOTH",
"356 680 LINE",
"356 700 LINE",
"30 700 LINE",
"30 680 LINE",
"67 672 LINE SMOOTH",
"86 668 OFFCURVE",
"91 666 OFFCURVE",
"91 650 CURVE SMOOTH"
);
}
);
width = 386;
}
);
unicode = 0049;
},
{
glyphname = IJ;
layers = (
{
layerId = "0EFCFE59-F23A-4210-A5A1-DE9F39E2245D";
name = Regular;
paths = (
{
closed = 1;
nodes = (
"91 50 LINE SMOOTH",
"91 34 OFFCURVE",
"86 32 OFFCURVE",
"67 28 CURVE SMOOTH",
"30 20 LINE",
"30 0 LINE",
"356 0 LINE",
"356 20 LINE",
"319 28 LINE SMOOTH",
"300 32 OFFCURVE",
"295 34 OFFCURVE",
"295 50 CURVE SMOOTH",
"295 650 LINE SMOOTH",
"295 666 OFFCURVE",
"300 668 OFFCURVE",
"319 672 CURVE SMOOTH",
"356 680 LINE",
"356 700 LINE",
"30 700 LINE",
"30 680 LINE",
"67 672 LINE SMOOTH",
"86 668 OFFCURVE",
"91 666 OFFCURVE",
"91 650 CURVE SMOOTH"
);
},
{
closed = 1;
nodes = (
"554 15 OFFCURVE",
"514 46 OFFCURVE",
"487 206 CURVE",
"461 206 LINE",
"438 30 LINE",
"496 4 OFFCURVE",
"576 -12 OFFCURVE",
"631 -12 CURVE SMOOTH",
"791 -12 OFFCURVE",
"925 46 OFFCURVE",
"925 226 CURVE SMOOTH",
"925 650 LINE SMOOTH",
"925 666 OFFCURVE",
"930 668 OFFCURVE",
"949 672 CURVE SMOOTH",
"986 680 LINE",
"986 700 LINE",
"654 700 LINE",
"654 680 LINE",
"697 671 LINE SMOOTH",
"716 667 OFFCURVE",
"721 665 OFFCURVE",
"721 649 CURVE SMOOTH",
"721 206 LINE SMOOTH",
"721 52 OFFCURVE",
"691 15 OFFCURVE",
"623 15 CURVE SMOOTH"
);
}
);
width = 1008;
}
);
unicode = 0132;
},
{
glyphname = Iacute;
layers = (
{
layerId = "0EFCFE59-F23A-4210-A5A1-DE9F39E2245D";
name = Regular;
paths = (
{
closed = 1;
nodes = (
"91 50 LINE SMOOTH",
"91 34 OFFCURVE",
"86 32 OFFCURVE",
"67 28 CURVE SMOOTH",
"30 20 LINE",
"30 0 LINE",
"356 0 LINE",
"356 20 LINE",
"319 28 LINE SMOOTH",
"300 32 OFFCURVE",
"295 34 OFFCURVE",
"295 50 CURVE SMOOTH",
"295 650 LINE SMOOTH",
"295 666 OFFCURVE",
"300 668 OFFCURVE",
"319 672 CURVE SMOOTH",
"356 680 LINE",
"356 700 LINE",
"30 700 LINE",
"30 680 LINE",
"67 672 LINE SMOOTH",
"86 668 OFFCURVE",
"91 666 OFFCURVE",
"91 650 CURVE SMOOTH"
);
},
{
closed = 1;
nodes = (
"248 867 OFFCURVE",
"171 813 OFFCURVE",
"116 771 CURVE",
"121 760 LINE",
"182 770 OFFCURVE",
"286 797 OFFCURVE",
"347 825 CURVE",
"346 863 OFFCURVE",
"321 898 OFFCURVE",
"291 912 CURVE"
);
}
);
width = 386;
}
);
unicode = 00CD;
},
{
glyphname = Ibreve;
layers = (
{
layerId = "0EFCFE59-F23A-4210-A5A1-DE9F39E2245D";
name = Regular;
paths = (
{
closed = 1;
nodes = (
"91 50 LINE SMOOTH",
"91 34 OFFCURVE",
"86 32 OFFCURVE",
"67 28 CURVE SMOOTH",
"30 20 LINE",
"30 0 LINE",
"356 0 LINE",
"356 20 LINE",
"319 28 LINE SMOOTH",
"300 32 OFFCURVE",
"295 34 OFFCURVE",
"295 50 CURVE SMOOTH",
"295 650 LINE SMOOTH",
"295 666 OFFCURVE",
"300 668 OFFCURVE",
"319 672 CURVE SMOOTH",
"356 680 LINE",
"356 700 LINE",
"30 700 LINE",
"30 680 LINE",
"67 672 LINE SMOOTH",
"86 668 OFFCURVE",
"91 666 OFFCURVE",
"91 650 CURVE SMOOTH"
);
},
{
closed = 1;
nodes = (
"286 760 OFFCURVE",
"329 820 OFFCURVE",
"331 913 CURVE",
"311 913 LINE",
"298 862 OFFCURVE",
"272 837 OFFCURVE",
"193 837 CURVE SMOOTH",
"114 837 OFFCURVE",
"88 862 OFFCURVE",
"75 913 CURVE",
"55 913 LINE",
"57 820 OFFCURVE",
"100 760 OFFCURVE",
"193 760 CURVE SMOOTH"
);
}
);
width = 386;
}
);
unicode = 012C;
},
{
glyphname = Icaron;
layers = (
{
layerId = "0EFCFE59-F23A-4210-A5A1-DE9F39E2245D";
name = Regular;
paths = (
{
closed = 1;
nodes = (
"91 50 LINE SMOOTH",
"91 34 OFFCURVE",
"86 32 OFFCURVE",
"67 28 CURVE SMOOTH",
"30 20 LINE",
"30 0 LINE",
"356 0 LINE",
"356 20 LINE",
"319 28 LINE SMOOTH",
"300 32 OFFCURVE",
"295 34 OFFCURVE",
"295 50 CURVE SMOOTH",
"295 650 LINE SMOOTH",
"295 666 OFFCURVE",
"300 668 OFFCURVE",
"319 672 CURVE SMOOTH",
"356 680 LINE",
"356 700 LINE",
"30 700 LINE",
"30 680 LINE",
"67 672 LINE SMOOTH",
"86 668 OFFCURVE",
"91 666 OFFCURVE",
"91 650 CURVE SMOOTH"
);
},
{
closed = 1;
nodes = (
"219 760 LINE",
"258 809 OFFCURVE",
"304 856 OFFCURVE",
"353 897 CURVE",
"342 912 LINE",
"292 895 OFFCURVE",
"243 872 OFFCURVE",
"193 843 CURVE",
"143 872 OFFCURVE",
"94 895 OFFCURVE",
"44 912 CURVE",
"33 897 LINE",
"83 856 OFFCURVE",
"128 809 OFFCURVE",
"167 760 CURVE"
);
}
);
width = 386;
}
);
unicode = 01CF;
},
{
glyphname = Icircumflex;
layers = (
{
layerId = "0EFCFE59-F23A-4210-A5A1-DE9F39E2245D";
name = Regular;
paths = (
{
closed = 1;
nodes = (
"91 50 LINE SMOOTH",
"91 34 OFFCURVE",
"86 32 OFFCURVE",
"67 28 CURVE SMOOTH",
"30 20 LINE",
"30 0 LINE",
"356 0 LINE",
"356 20 LINE",
"319 28 LINE SMOOTH",
"300 32 OFFCURVE",
"295 34 OFFCURVE",
"295 50 CURVE SMOOTH",
"295 650 LINE SMOOTH",
"295 666 OFFCURVE",
"300 668 OFFCURVE",
"319 672 CURVE SMOOTH",
"356 680 LINE",
"356 700 LINE",
"30 700 LINE",
"30 680 LINE",
"67 672 LINE SMOOTH",
"86 668 OFFCURVE",
"91 666 OFFCURVE",
"91 650 CURVE SMOOTH"
);
},
{
closed = 1;
nodes = (
"167 912 LINE",
"128 863 OFFCURVE",
"83 816 OFFCURVE",
"33 775 CURVE",
"44 760 LINE",
"94 777 OFFCURVE",
"143 800 OFFCURVE",
"193 829 CURVE",
"243 800 OFFCURVE",
"292 777 OFFCURVE",
"342 760 CURVE",
"353 775 LINE",
"304 816 OFFCURVE",
"258 863 OFFCURVE",
"219 912 CURVE"
);
}
);
width = 386;
}
);
unicode = 00CE;
},
{
glyphname = Idieresis;
layers = (
{
layerId = "0EFCFE59-F23A-4210-A5A1-DE9F39E2245D";
name = Regular;
paths = (
{
closed = 1;
nodes = (
"91 50 LINE SMOOTH",
"91 34 OFFCURVE",
"86 32 OFFCURVE",
"67 28 CURVE SMOOTH",
"30 20 LINE",
"30 0 LINE",
"356 0 LINE",
"356 20 LINE",
"319 28 LINE SMOOTH",
"300 32 OFFCURVE",
"295 34 OFFCURVE",
"295 50 CURVE SMOOTH",
"295 650 LINE SMOOTH",
"295 666 OFFCURVE",
"300 668 OFFCURVE",
"319 672 CURVE SMOOTH",
"356 680 LINE",
"356 700 LINE",
"30 700 LINE",
"30 680 LINE",
"67 672 LINE SMOOTH",
"86 668 OFFCURVE",
"91 666 OFFCURVE",
"91 650 CURVE SMOOTH"
);
},
{
closed = 1;
nodes = (
"120 767 OFFCURVE",
"151 799 OFFCURVE",
"151 840 CURVE SMOOTH",
"151 881 OFFCURVE",
"120 913 OFFCURVE",
"74 913 CURVE SMOOTH",
"28 913 OFFCURVE",
"-3 881 OFFCURVE",
"-3 840 CURVE SMOOTH",
"-3 799 OFFCURVE",
"28 767 OFFCURVE",
"74 767 CURVE SMOOTH"
);
},
{
closed = 1;
nodes = (
"358 767 OFFCURVE",
"389 799 OFFCURVE",
"389 840 CURVE SMOOTH",
"389 881 OFFCURVE",
"358 913 OFFCURVE",
"312 913 CURVE SMOOTH",
"266 913 OFFCURVE",
"235 881 OFFCURVE",
"235 840 CURVE SMOOTH",
"235 799 OFFCURVE",
"266 767 OFFCURVE",
"312 767 CURVE SMOOTH"
);
}
);
width = 386;
}
);
unicode = 00CF;
},
{
glyphname = Idotaccent;
layers = (
{
layerId = "0EFCFE59-F23A-4210-A5A1-DE9F39E2245D";
name = Regular;
paths = (
{
closed = 1;
nodes = (
"91 50 LINE SMOOTH",
"91 34 OFFCURVE",
"86 32 OFFCURVE",
"67 28 CURVE SMOOTH",
"30 20 LINE",
"30 0 LINE",
"356 0 LINE",
"356 20 LINE",
"319 28 LINE SMOOTH",
"300 32 OFFCURVE",
"295 34 OFFCURVE",
"295 50 CURVE SMOOTH",
"295 650 LINE SMOOTH",
"295 666 OFFCURVE",
"300 668 OFFCURVE",
"319 672 CURVE SMOOTH",
"356 680 LINE",
"356 700 LINE",
"30 700 LINE",
"30 680 LINE",
"67 672 LINE SMOOTH",
"86 668 OFFCURVE",
"91 666 OFFCURVE",
"91 650 CURVE SMOOTH"
);
},
{
closed = 1;
nodes = (
"243 763 OFFCURVE",
"280 787 OFFCURVE",
"280 838 CURVE SMOOTH",
"280 889 OFFCURVE",
"243 913 OFFCURVE",
"193 913 CURVE SMOOTH",
"143 913 OFFCURVE",
"106 889 OFFCURVE",
"106 838 CURVE SMOOTH",
"106 787 OFFCURVE",
"143 763 OFFCURVE",
"193 763 CURVE SMOOTH"
);
}
);
width = 386;
}
);
unicode = 0130;
},
{
glyphname = Idotbelow;
layers = (
{
layerId = "0EFCFE59-F23A-4210-A5A1-DE9F39E2245D";
name = Regular;
paths = (
{
closed = 1;
nodes = (
"91 50 LINE SMOOTH",
"91 34 OFFCURVE",
"86 32 OFFCURVE",
"67 28 CURVE SMOOTH",
"30 20 LINE",
"30 0 LINE",
"356 0 LINE",
"356 20 LINE",
"319 28 LINE SMOOTH",
"300 32 OFFCURVE",
"295 34 OFFCURVE",
"295 50 CURVE SMOOTH",
"295 650 LINE SMOOTH",
"295 666 OFFCURVE",
"300 668 OFFCURVE",
"319 672 CURVE SMOOTH",
"356 680 LINE",
"356 700 LINE",
"30 700 LINE",
"30 680 LINE",
"67 672 LINE SMOOTH",
"86 668 OFFCURVE",
"91 666 OFFCURVE",
"91 650 CURVE SMOOTH"
);
},
{
closed = 1;
nodes = (
"241 -208 OFFCURVE",
"276 -182 OFFCURVE",
"276 -133 CURVE SMOOTH",
"276 -84 OFFCURVE",
"241 -58 OFFCURVE",
"193 -58 CURVE SMOOTH",
"145 -58 OFFCURVE",
"110 -84 OFFCURVE",
"110 -133 CURVE SMOOTH",
"110 -182 OFFCURVE",
"145 -208 OFFCURVE",
"193 -208 CURVE SMOOTH"
);
}
);
width = 386;
}
);
unicode = 1ECA;
},
{
glyphname = Igrave;
layers = (
{
layerId = "0EFCFE59-F23A-4210-A5A1-DE9F39E2245D";
name = Regular;
paths = (
{
closed = 1;
nodes = (
"91 50 LINE SMOOTH",
"91 34 OFFCURVE",
"86 32 OFFCURVE",
"67 28 CURVE SMOOTH",
"30 20 LINE",
"30 0 LINE",
"356 0 LINE",
"356 20 LINE",
"319 28 LINE SMOOTH",
"300 32 OFFCURVE",
"295 34 OFFCURVE",
"295 50 CURVE SMOOTH",
"295 650 LINE SMOOTH",
"295 666 OFFCURVE",
"300 668 OFFCURVE",
"319 672 CURVE SMOOTH",
"356 680 LINE",
"356 700 LINE",
"30 700 LINE",
"30 680 LINE",
"67 672 LINE SMOOTH",
"86 668 OFFCURVE",
"91 666 OFFCURVE",
"91 650 CURVE SMOOTH"
);
},
{
closed = 1;
nodes = (
"75 898 OFFCURVE",
"50 863 OFFCURVE",
"49 825 CURVE",
"110 797 OFFCURVE",
"214 770 OFFCURVE",
"275 760 CURVE",
"280 771 LINE",
"225 813 OFFCURVE",
"148 867 OFFCURVE",
"105 912 CURVE"
);
}
);
width = 386;
}
);
unicode = 00CC;
},
{
glyphname = Ihookabove;
layers = (
{
layerId = "0EFCFE59-F23A-4210-A5A1-DE9F39E2245D";
name = Regular;
paths = (
{
closed = 1;
nodes = (
"91 50 LINE SMOOTH",
"91 34 OFFCURVE",
"86 32 OFFCURVE",
"67 28 CURVE SMOOTH",
"30 20 LINE",
"30 0 LINE",
"356 0 LINE",
"356 20 LINE",
"319 28 LINE SMOOTH",
"300 32 OFFCURVE",
"295 34 OFFCURVE",
"295 50 CURVE SMOOTH",
"295 650 LINE SMOOTH",
"295 666 OFFCURVE",
"300 668 OFFCURVE",
"319 672 CURVE SMOOTH",
"356 680 LINE",
"356 700 LINE",
"30 700 LINE",
"30 680 LINE",
"67 672 LINE SMOOTH",
"86 668 OFFCURVE",
"91 666 OFFCURVE",
"91 650 CURVE SMOOTH"
);
},
{
closed = 1;
nodes = (
"216 794 LINE",
"276 808 OFFCURVE",
"318 833 OFFCURVE",
"318 881 CURVE SMOOTH",
"318 932 OFFCURVE",
"276 951 OFFCURVE",
"223 951 CURVE SMOOTH",
"168 951 OFFCURVE",
"131 936 OFFCURVE",
"108 925 CURVE",
"115 905 LINE",
"137 914 OFFCURVE",
"153 919 OFFCURVE",
"181 919 CURVE SMOOTH",
"206 919 OFFCURVE",
"220 908 OFFCURVE",
"220 883 CURVE SMOOTH",
"220 849 OFFCURVE",
"207 827 OFFCURVE",
"178 809 CURVE",
"184 760 LINE",
"212 760 LINE"
);
}
);
width = 386;
}
);
unicode = 1EC8;
},
{
glyphname = Imacron;
layers = (
{
layerId = "0EFCFE59-F23A-4210-A5A1-DE9F39E2245D";
name = Regular;
paths = (
{
closed = 1;
nodes = (
"91 50 LINE SMOOTH",
"91 34 OFFCURVE",
"86 32 OFFCURVE",
"67 28 CURVE SMOOTH",
"30 20 LINE",
"30 0 LINE",
"356 0 LINE",
"356 20 LINE",
"319 28 LINE SMOOTH",
"300 32 OFFCURVE",
"295 34 OFFCURVE",
"295 50 CURVE SMOOTH",
"295 650 LINE SMOOTH",
"295 666 OFFCURVE",
"300 668 OFFCURVE",
"319 672 CURVE SMOOTH",
"356 680 LINE",
"356 700 LINE",
"30 700 LINE",
"30 680 LINE",
"67 672 LINE SMOOTH",
"86 668 OFFCURVE",
"91 666 OFFCURVE",
"91 650 CURVE SMOOTH"
);
},
{
closed = 1;
nodes = (
"3 778 LINE",
"383 778 LINE",
"383 802 LINE",
"3 802 LINE"
);
}
);
width = 386;
}
);
unicode = 012A;
},
{
glyphname = Iogonek;
layers = (
{
layerId = "0EFCFE59-F23A-4210-A5A1-DE9F39E2245D";
name = Regular;
paths = (
{
closed = 1;
nodes = (
"289 -142 LINE",
"275 -153 OFFCURVE",
"255 -165 OFFCURVE",
"236 -165 CURVE SMOOTH",
"195 -165 OFFCURVE",
"178 -147 OFFCURVE",
"178 -106 CURVE SMOOTH",
"178 -57 OFFCURVE",
"193 -22 OFFCURVE",
"239 0 CURVE",
"356 0 LINE",
"356 20 LINE",
"319 28 LINE SMOOTH",
"300 32 OFFCURVE",
"295 34 OFFCURVE",
"295 50 CURVE SMOOTH",
"295 650 LINE SMOOTH",
"295 666 OFFCURVE",
"300 668 OFFCURVE",
"319 672 CURVE SMOOTH",
"356 680 LINE",
"356 700 LINE",
"30 700 LINE",
"30 680 LINE",
"67 672 LINE SMOOTH",
"86 668 OFFCURVE",
"91 666 OFFCURVE",
"91 650 CURVE SMOOTH",
"91 50 LINE SMOOTH",
"91 34 OFFCURVE",
"86 32 OFFCURVE",
"67 28 CURVE SMOOTH",
"30 20 LINE",
"30 0 LINE",
"212 0 LINE",
"140 -21 OFFCURVE",
"80 -63 OFFCURVE",
"80 -131 CURVE SMOOTH",
"80 -178 OFFCURVE",
"116 -205 OFFCURVE",
"186 -205 CURVE SMOOTH",
"238 -205 OFFCURVE",
"272 -180 OFFCURVE",
"296 -153 CURVE"
);
}
);
width = 386;
}
);
unicode = 012E;
},
{
glyphname = Itilde;
layers = (
{
layerId = "0EFCFE59-F23A-4210-A5A1-DE9F39E2245D";
name = Regular;
paths = (
{
closed = 1;
nodes = (
"91 50 LINE SMOOTH",
"91 34 OFFCURVE",
"86 32 OFFCURVE",
"67 28 CURVE SMOOTH",
"30 20 LINE",
"30 0 LINE",
"356 0 LINE",
"356 20 LINE",
"319 28 LINE SMOOTH",
"300 32 OFFCURVE",
"295 34 OFFCURVE",
"295 50 CURVE SMOOTH",
"295 650 LINE SMOOTH",
"295 666 OFFCURVE",
"300 668 OFFCURVE",
"319 672 CURVE SMOOTH",
"356 680 LINE",
"356 700 LINE",
"30 700 LINE",
"30 680 LINE",
"67 672 LINE SMOOTH",
"86 668 OFFCURVE",
"91 666 OFFCURVE",
"91 650 CURVE SMOOTH"
);
},
{
closed = 1;
nodes = (
"337 758 OFFCURVE",
"363 833 OFFCURVE",
"382 883 CURVE",
"370 888 LINE",
"346 858 LINE",
"333 840 OFFCURVE",
"306 834 OFFCURVE",
"282 843 CURVE SMOOTH",
"186 881 OFFCURVE",
"138 902 OFFCURVE",
"108 902 CURVE SMOOTH",
"49 902 OFFCURVE",
"23 827 OFFCURVE",
"4 777 CURVE",
"16 772 LINE",
"40 802 LINE",
"53 820 OFFCURVE",
"80 826 OFFCURVE",
"104 817 CURVE SMOOTH",
"200 779 OFFCURVE",
"248 758 OFFCURVE",
"278 758 CURVE SMOOTH"
);
}
);
width = 386;
}
);
unicode = 0128;
},
{
glyphname = J;
layers = (
{
layerId = "0EFCFE59-F23A-4210-A5A1-DE9F39E2245D";
name = Regular;
paths = (
{
closed = 1;
nodes = (
"168 15 OFFCURVE",
"128 46 OFFCURVE",
"101 206 CURVE",
"75 206 LINE",
"52 30 LINE",
"110 4 OFFCURVE",
"190 -12 OFFCURVE",
"245 -12 CURVE SMOOTH",
"405 -12 OFFCURVE",
"539 46 OFFCURVE",
"539 226 CURVE SMOOTH",
"539 650 LINE SMOOTH",
"539 666 OFFCURVE",
"544 668 OFFCURVE",
"563 672 CURVE SMOOTH",
"600 680 LINE",
"600 700 LINE",
"268 700 LINE",
"268 680 LINE",
"311 671 LINE SMOOTH",
"330 667 OFFCURVE",
"335 665 OFFCURVE",
"335 649 CURVE SMOOTH",
"335 206 LINE SMOOTH",
"335 52 OFFCURVE",
"305 15 OFFCURVE",
"237 15 CURVE SMOOTH"
);
}
);
width = 622;
}
);
unicode = 004A;
},
{
glyphname = Jcircumflex;
layers = (
{
layerId = "0EFCFE59-F23A-4210-A5A1-DE9F39E2245D";
name = Regular;
paths = (
{
closed = 1;
nodes = (
"168 15 OFFCURVE",
"128 46 OFFCURVE",
"101 206 CURVE",
"75 206 LINE",
"52 30 LINE",
"110 4 OFFCURVE",
"190 -12 OFFCURVE",
"245 -12 CURVE SMOOTH",
"405 -12 OFFCURVE",
"539 46 OFFCURVE",
"539 226 CURVE SMOOTH",
"539 650 LINE SMOOTH",
"539 666 OFFCURVE",
"544 668 OFFCURVE",
"563 672 CURVE SMOOTH",
"600 680 LINE",
"600 700 LINE",
"268 700 LINE",
"268 680 LINE",
"311 671 LINE SMOOTH",
"330 667 OFFCURVE",
"335 665 OFFCURVE",
"335 649 CURVE SMOOTH",
"335 206 LINE SMOOTH",
"335 52 OFFCURVE",
"305 15 OFFCURVE",
"237 15 CURVE SMOOTH"
);
},
{
closed = 1;
nodes = (
"411 912 LINE",
"372 863 OFFCURVE",
"327 816 OFFCURVE",
"277 775 CURVE",
"288 760 LINE",
"338 777 OFFCURVE",
"387 800 OFFCURVE",
"437 829 CURVE",
"487 800 OFFCURVE",
"536 777 OFFCURVE",
"586 760 CURVE",
"597 775 LINE",
"548 816 OFFCURVE",
"502 863 OFFCURVE",
"463 912 CURVE"
);
}
);
width = 622;
}
);
unicode = 0134;
},
{
glyphname = K;
layers = (
{
layerId = "0EFCFE59-F23A-4210-A5A1-DE9F39E2245D";
name = Regular;
paths = (
{
closed = 1;
nodes = (
"661 652 LINE SMOOTH",
"676 665 OFFCURVE",
"687 676 OFFCURVE",
"712 677 CURVE SMOOTH",
"754 680 LINE",
"754 700 LINE",
"575 700 LINE",
"575 681 LINE",
"618 677 LINE SMOOTH",
"631 676 OFFCURVE",
"634 665 OFFCURVE",
"621 653 CURVE SMOOTH",
"291 367 LINE",
"291 651 LINE SMOOTH",
"291 666 OFFCURVE",
"296 669 OFFCURVE",
"314 672 CURVE",
"350 680 LINE",
"350 700 LINE",
"26 700 LINE",
"26 680 LINE",
"63 672 LINE SMOOTH",
"82 668 OFFCURVE",
"87 666 OFFCURVE",
"87 650 CURVE SMOOTH",
"87 50 LINE SMOOTH",
"87 34 OFFCURVE",
"82 32 OFFCURVE",
"63 28 CURVE SMOOTH",
"26 20 LINE",
"26 0 LINE",
"350 0 LINE",
"350 20 LINE",
"314 28 LINE SMOOTH",
"296 32 OFFCURVE",
"291 34 OFFCURVE",
"291 49 CURVE SMOOTH",
"291 331 LINE",
"310 348 LINE",
"497 34 LINE",
"510 15 OFFCURVE",
"526 0 OFFCURVE",
"565 0 CURVE SMOOTH",
"776 0 LINE",
"776 20 LINE",
"733 27 LINE",
"717 29 OFFCURVE",
"712 34 OFFCURVE",
"702 49 CURVE SMOOTH",
"483 398 LINE SMOOTH",
"465 425 OFFCURVE",
"450 439 OFFCURVE",
"427 449 CURVE"
);
}
);
width = 788;
}
);
unicode = 004B;
},
{
glyphname = Kcommaaccent;
layers = (
{
layerId = "0EFCFE59-F23A-4210-A5A1-DE9F39E2245D";
name = Regular;
paths = (
{
closed = 1;
nodes = (
"661 652 LINE SMOOTH",
"676 665 OFFCURVE",
"687 676 OFFCURVE",
"712 677 CURVE SMOOTH",
"754 680 LINE",
"754 700 LINE",
"575 700 LINE",
"575 681 LINE",
"618 677 LINE SMOOTH",
"631 676 OFFCURVE",
"634 665 OFFCURVE",
"621 653 CURVE SMOOTH",
"291 367 LINE",
"291 651 LINE SMOOTH",
"291 666 OFFCURVE",
"296 669 OFFCURVE",
"314 672 CURVE",
"350 680 LINE",
"350 700 LINE",
"26 700 LINE",
"26 680 LINE",
"63 672 LINE SMOOTH",
"82 668 OFFCURVE",
"87 666 OFFCURVE",
"87 650 CURVE SMOOTH",
"87 50 LINE SMOOTH",
"87 34 OFFCURVE",
"82 32 OFFCURVE",
"63 28 CURVE SMOOTH",
"26 20 LINE",
"26 0 LINE",
"350 0 LINE",
"350 20 LINE",
"314 28 LINE SMOOTH",
"296 32 OFFCURVE",
"291 34 OFFCURVE",
"291 49 CURVE SMOOTH",
"291 331 LINE",
"310 348 LINE",
"497 34 LINE",
"510 15 OFFCURVE",
"526 0 OFFCURVE",
"565 0 CURVE SMOOTH",
"776 0 LINE",
"776 20 LINE",
"733 27 LINE",
"717 29 OFFCURVE",
"712 34 OFFCURVE",
"702 49 CURVE SMOOTH",
"483 398 LINE SMOOTH",
"465 425 OFFCURVE",
"450 439 OFFCURVE",
"427 449 CURVE"
);
},
{
closed = 1;
nodes = (
"422 -251 OFFCURVE",
"409 -280 OFFCURVE",
"364 -326 CURVE",
"382 -343 LINE",
"444 -295 OFFCURVE",
"496 -220 OFFCURVE",
"496 -142 CURVE SMOOTH",
"496 -86 OFFCURVE",
"462 -58 OFFCURVE",
"412 -58 CURVE SMOOTH",
"360 -58 OFFCURVE",
"332 -93 OFFCURVE",
"332 -134 CURVE SMOOTH",
"332 -176 OFFCURVE",
"359 -213 OFFCURVE",
"423 -206 CURVE"
);
}
);
width = 788;
}
);
unicode = 0136;
},
{
glyphname = L;
layers = (
{
layerId = "0EFCFE59-F23A-4210-A5A1-DE9F39E2245D";
name = Regular;
paths = (
{
closed = 1;
nodes = (
"87 50 LINE SMOOTH",
"87 34 OFFCURVE",
"82 32 OFFCURVE",
"63 28 CURVE SMOOTH",
"26 20 LINE",
"26 0 LINE",
"630 0 LINE",
"630 199 LINE",
"602 199 LINE",
"563 87 OFFCURVE",
"540 30 OFFCURVE",
"417 30 CURVE SMOOTH",
"291 30 LINE",
"291 649 LINE SMOOTH",
"291 665 OFFCURVE",
"296 667 OFFCURVE",
"315 671 CURVE SMOOTH",
"358 680 LINE",
"358 700 LINE",
"26 700 LINE",
"26 680 LINE",
"63 672 LINE SMOOTH",
"82 668 OFFCURVE",
"87 666 OFFCURVE",
"87 650 CURVE SMOOTH"
);
}
);
width = 668;
}
);
unicode = 004C;
},
{
glyphname = Lacute;
layers = (
{
layerId = "0EFCFE59-F23A-4210-A5A1-DE9F39E2245D";
name = Regular;
paths = (
{
closed = 1;
nodes = (
"87 50 LINE SMOOTH",
"87 34 OFFCURVE",
"82 32 OFFCURVE",
"63 28 CURVE SMOOTH",
"26 20 LINE",
"26 0 LINE",
"630 0 LINE",
"630 199 LINE",
"602 199 LINE",
"563 87 OFFCURVE",
"540 30 OFFCURVE",
"417 30 CURVE SMOOTH",
"291 30 LINE",
"291 649 LINE SMOOTH",
"291 665 OFFCURVE",
"296 667 OFFCURVE",
"315 671 CURVE SMOOTH",
"358 680 LINE",
"358 700 LINE",
"26 700 LINE",
"26 680 LINE",
"63 672 LINE SMOOTH",
"82 668 OFFCURVE",
"87 666 OFFCURVE",
"87 650 CURVE SMOOTH"
);
},
{
closed = 1;
nodes = (
"350 867 OFFCURVE",
"273 813 OFFCURVE",
"218 771 CURVE",
"223 760 LINE",
"284 770 OFFCURVE",
"388 797 OFFCURVE",
"449 825 CURVE",
"448 863 OFFCURVE",
"423 898 OFFCURVE",
"393 912 CURVE"
);
}
);
width = 668;
}
);
unicode = 0139;
},
{
glyphname = Lcaron;
layers = (
{
layerId = "0EFCFE59-F23A-4210-A5A1-DE9F39E2245D";
name = Regular;
paths = (
{
closed = 1;
nodes = (
"87 50 LINE SMOOTH",
"87 34 OFFCURVE",
"82 32 OFFCURVE",
"63 28 CURVE SMOOTH",
"26 20 LINE",
"26 0 LINE",
"630 0 LINE",
"630 199 LINE",
"602 199 LINE",
"563 87 OFFCURVE",
"540 30 OFFCURVE",
"417 30 CURVE SMOOTH",
"291 30 LINE",
"291 649 LINE SMOOTH",
"291 665 OFFCURVE",
"296 667 OFFCURVE",
"315 671 CURVE SMOOTH",
"358 680 LINE",
"358 700 LINE",
"26 700 LINE",
"26 680 LINE",
"63 672 LINE SMOOTH",
"82 668 OFFCURVE",
"87 666 OFFCURVE",
"87 650 CURVE SMOOTH"
);
},
{
closed = 1;
nodes = (
"546 515 OFFCURVE",
"533 486 OFFCURVE",
"488 440 CURVE",
"506 423 LINE",
"568 471 OFFCURVE",
"620 546 OFFCURVE",
"620 624 CURVE SMOOTH",
"620 680 OFFCURVE",
"586 708 OFFCURVE",
"536 708 CURVE SMOOTH",
"484 708 OFFCURVE",
"456 673 OFFCURVE",
"456 632 CURVE SMOOTH",
"456 590 OFFCURVE",
"483 553 OFFCURVE",
"547 560 CURVE"
);
}
);
width = 668;
}
);
unicode = 013D;
},
{
glyphname = Lcommaaccent;
layers = (
{
layerId = "0EFCFE59-F23A-4210-A5A1-DE9F39E2245D";
name = Regular;
paths = (
{
closed = 1;
nodes = (
"87 50 LINE SMOOTH",
"87 34 OFFCURVE",
"82 32 OFFCURVE",
"63 28 CURVE SMOOTH",
"26 20 LINE",
"26 0 LINE",
"630 0 LINE",
"630 199 LINE",
"602 199 LINE",
"563 87 OFFCURVE",
"540 30 OFFCURVE",
"417 30 CURVE SMOOTH",
"291 30 LINE",
"291 649 LINE SMOOTH",
"291 665 OFFCURVE",
"296 667 OFFCURVE",
"315 671 CURVE SMOOTH",
"358 680 LINE",
"358 700 LINE",
"26 700 LINE",
"26 680 LINE",
"63 672 LINE SMOOTH",
"82 668 OFFCURVE",
"87 666 OFFCURVE",
"87 650 CURVE SMOOTH"
);
},
{
closed = 1;
nodes = (
"362 -251 OFFCURVE",
"349 -280 OFFCURVE",
"304 -326 CURVE",
"322 -343 LINE",
"384 -295 OFFCURVE",
"436 -220 OFFCURVE",
"436 -142 CURVE SMOOTH",
"436 -86 OFFCURVE",
"402 -58 OFFCURVE",
"352 -58 CURVE SMOOTH",
"300 -58 OFFCURVE",
"272 -93 OFFCURVE",
"272 -134 CURVE SMOOTH",
"272 -176 OFFCURVE",
"299 -213 OFFCURVE",
"363 -206 CURVE"
);
}
);
width = 668;
}
);
unicode = 013B;
},
{
glyphname = Ldot;
layers = (
{
layerId = "0EFCFE59-F23A-4210-A5A1-DE9F39E2245D";
name = Regular;
paths = (
{
closed = 1;
nodes = (
"87 50 LINE SMOOTH",
"87 34 OFFCURVE",
"82 32 OFFCURVE",
"63 28 CURVE SMOOTH",
"26 20 LINE",
"26 0 LINE",
"630 0 LINE",
"630 199 LINE",
"602 199 LINE",
"563 87 OFFCURVE",
"540 30 OFFCURVE",
"417 30 CURVE SMOOTH",
"291 30 LINE",
"291 649 LINE SMOOTH",
"291 665 OFFCURVE",
"296 667 OFFCURVE",
"315 671 CURVE SMOOTH",
"358 680 LINE",
"358 700 LINE",
"26 700 LINE",
"26 680 LINE",
"63 672 LINE SMOOTH",
"82 668 OFFCURVE",
"87 666 OFFCURVE",
"87 650 CURVE SMOOTH"
);
},
{
closed = 1;
nodes = (
"496 196 OFFCURVE",
"534 232 OFFCURVE",
"534 278 CURVE SMOOTH",
"534 324 OFFCURVE",
"496 360 OFFCURVE",
"450 360 CURVE SMOOTH",
"404 360 OFFCURVE",
"366 324 OFFCURVE",
"366 278 CURVE SMOOTH",
"366 232 OFFCURVE",
"404 196 OFFCURVE",
"450 196 CURVE SMOOTH"
);
}
);
width = 668;
}
);
unicode = 013F;
},
{
glyphname = Ldotbelow;
layers = (
{
layerId = "0EFCFE59-F23A-4210-A5A1-DE9F39E2245D";
name = Regular;
paths = (
{
closed = 1;
nodes = (
"87 50 LINE SMOOTH",
"87 34 OFFCURVE",
"82 32 OFFCURVE",
"63 28 CURVE SMOOTH",
"26 20 LINE",
"26 0 LINE",
"630 0 LINE",
"630 199 LINE",
"602 199 LINE",
"563 87 OFFCURVE",
"540 30 OFFCURVE",
"417 30 CURVE SMOOTH",
"291 30 LINE",
"291 649 LINE SMOOTH",
"291 665 OFFCURVE",
"296 667 OFFCURVE",
"315 671 CURVE SMOOTH",
"358 680 LINE",
"358 700 LINE",
"26 700 LINE",
"26 680 LINE",
"63 672 LINE SMOOTH",
"82 668 OFFCURVE",
"87 666 OFFCURVE",
"87 650 CURVE SMOOTH"
);
},
{
closed = 1;
nodes = (
"392 -208 OFFCURVE",
"427 -182 OFFCURVE",
"427 -133 CURVE SMOOTH",
"427 -84 OFFCURVE",
"392 -58 OFFCURVE",
"344 -58 CURVE SMOOTH",
"296 -58 OFFCURVE",
"261 -84 OFFCURVE",
"261 -133 CURVE SMOOTH",
"261 -182 OFFCURVE",
"296 -208 OFFCURVE",
"344 -208 CURVE SMOOTH"
);
}
);
width = 668;
}
);
unicode = 1E36;
},
{
glyphname = Ldotbelowmacron;
layers = (
{
layerId = "0EFCFE59-F23A-4210-A5A1-DE9F39E2245D";
name = Regular;
paths = (
{
closed = 1;
nodes = (
"87 50 LINE SMOOTH",
"87 34 OFFCURVE",
"82 32 OFFCURVE",
"63 28 CURVE SMOOTH",
"26 20 LINE",
"26 0 LINE",
"630 0 LINE",
"630 199 LINE",
"602 199 LINE",
"563 87 OFFCURVE",
"540 30 OFFCURVE",
"417 30 CURVE SMOOTH",
"291 30 LINE",
"291 649 LINE SMOOTH",
"291 665 OFFCURVE",
"296 667 OFFCURVE",
"315 671 CURVE SMOOTH",
"358 680 LINE",
"358 700 LINE",
"26 700 LINE",
"26 680 LINE",
"63 672 LINE SMOOTH",
"82 668 OFFCURVE",
"87 666 OFFCURVE",
"87 650 CURVE SMOOTH"
);
},
{
closed = 1;
nodes = (
"392 -208 OFFCURVE",
"427 -182 OFFCURVE",
"427 -133 CURVE SMOOTH",
"427 -84 OFFCURVE",
"392 -58 OFFCURVE",
"344 -58 CURVE SMOOTH",
"296 -58 OFFCURVE",
"261 -84 OFFCURVE",
"261 -133 CURVE SMOOTH",
"261 -182 OFFCURVE",
"296 -208 OFFCURVE",
"344 -208 CURVE SMOOTH"
);
},
{
closed = 1;
nodes = (
"144 778 LINE",
"524 778 LINE",
"524 802 LINE",
"144 802 LINE"
);
}
);
width = 668;
}
);
unicode = 1E38;
},
{
glyphname = Llinebelow;
layers = (
{
layerId = "0EFCFE59-F23A-4210-A5A1-DE9F39E2245D";
name = Regular;
paths = (
{
closed = 1;
nodes = (
"87 50 LINE SMOOTH",
"87 34 OFFCURVE",
"82 32 OFFCURVE",
"63 28 CURVE SMOOTH",
"26 20 LINE",
"26 0 LINE",
"630 0 LINE",
"630 199 LINE",
"602 199 LINE",
"563 87 OFFCURVE",
"540 30 OFFCURVE",
"417 30 CURVE SMOOTH",
"291 30 LINE",
"291 649 LINE SMOOTH",
"291 665 OFFCURVE",
"296 667 OFFCURVE",
"315 671 CURVE SMOOTH",
"358 680 LINE",
"358 700 LINE",
"26 700 LINE",
"26 680 LINE",
"63 672 LINE SMOOTH",
"82 668 OFFCURVE",
"87 666 OFFCURVE",
"87 650 CURVE SMOOTH"
);
},
{
closed = 1;
nodes = (
"164 -96 LINE",
"544 -96 LINE",
"544 -72 LINE",
"164 -72 LINE"
);
}
);
width = 668;
}
);
unicode = 1E3A;
},
{
glyphname = Lslash;
layers = (
{
layerId = "0EFCFE59-F23A-4210-A5A1-DE9F39E2245D";
name = Regular;
paths = (
{
closed = 1;
nodes = (
"87 50 LINE SMOOTH",
"87 34 OFFCURVE",
"82 32 OFFCURVE",
"63 28 CURVE SMOOTH",
"26 20 LINE",
"26 0 LINE",
"630 0 LINE",
"630 199 LINE",
"602 199 LINE",
"563 87 OFFCURVE",
"540 30 OFFCURVE",
"417 30 CURVE SMOOTH",
"291 30 LINE",
"291 366 LINE",
"398 404 LINE",
"398 432 LINE",
"291 394 LINE",
"291 649 LINE SMOOTH",
"291 665 OFFCURVE",
"296 667 OFFCURVE",
"315 671 CURVE SMOOTH",
"358 680 LINE",
"358 700 LINE",
"26 700 LINE",
"26 680 LINE",
"63 672 LINE SMOOTH",
"82 668 OFFCURVE",
"87 666 OFFCURVE",
"87 650 CURVE SMOOTH",
"87 323 LINE",
"26 302 LINE",
"26 274 LINE",
"87 295 LINE"
);
}
);
width = 668;
}
);
unicode = 0141;
},
{
glyphname = M;
layers = (
{
layerId = "0EFCFE59-F23A-4210-A5A1-DE9F39E2245D";
name = Regular;
paths = (
{
closed = 1;
nodes = (
"387 0 LINE",
"417 0 LINE",
"671 615 LINE",
"671 49 LINE SMOOTH",
"671 34 OFFCURVE",
"666 32 OFFCURVE",
"648 28 CURVE SMOOTH",
"612 20 LINE",
"612 0 LINE",
"936 0 LINE",
"936 20 LINE",
"899 28 LINE SMOOTH",
"880 32 OFFCURVE",
"875 34 OFFCURVE",
"875 50 CURVE SMOOTH",
"875 650 LINE SMOOTH",
"875 666 OFFCURVE",
"880 668 OFFCURVE",
"899 672 CURVE SMOOTH",
"936 680 LINE",
"936 700 LINE",
"672 700 LINE",
"488 255 LINE",
"282 700 LINE",
"26 700 LINE",
"26 680 LINE",
"63 672 LINE SMOOTH",
"82 668 OFFCURVE",
"87 666 OFFCURVE",
"87 650 CURVE SMOOTH",
"87 50 LINE SMOOTH",
"87 34 OFFCURVE",
"82 32 OFFCURVE",
"63 28 CURVE SMOOTH",
"26 20 LINE",
"26 0 LINE",
"178 0 LINE",
"178 20 LINE",
"142 28 LINE SMOOTH",
"124 32 OFFCURVE",
"119 34 OFFCURVE",
"119 49 CURVE SMOOTH",
"119 589 LINE"
);
}
);
width = 962;
}
);
unicode = 004D;
},
{
glyphname = Mdotbelow;
layers = (
{
layerId = "0EFCFE59-F23A-4210-A5A1-DE9F39E2245D";
name = Regular;
paths = (
{
closed = 1;
nodes = (
"387 0 LINE",
"417 0 LINE",
"671 615 LINE",
"671 49 LINE SMOOTH",
"671 34 OFFCURVE",
"666 32 OFFCURVE",
"648 28 CURVE SMOOTH",
"612 20 LINE",
"612 0 LINE",
"936 0 LINE",
"936 20 LINE",
"899 28 LINE SMOOTH",
"880 32 OFFCURVE",
"875 34 OFFCURVE",
"875 50 CURVE SMOOTH",
"875 650 LINE SMOOTH",
"875 666 OFFCURVE",
"880 668 OFFCURVE",
"899 672 CURVE SMOOTH",
"936 680 LINE",
"936 700 LINE",
"672 700 LINE",
"488 255 LINE",
"282 700 LINE",
"26 700 LINE",
"26 680 LINE",
"63 672 LINE SMOOTH",
"82 668 OFFCURVE",
"87 666 OFFCURVE",
"87 650 CURVE SMOOTH",
"87 50 LINE SMOOTH",
"87 34 OFFCURVE",
"82 32 OFFCURVE",
"63 28 CURVE SMOOTH",
"26 20 LINE",
"26 0 LINE",
"178 0 LINE",
"178 20 LINE",
"142 28 LINE SMOOTH",
"124 32 OFFCURVE",
"119 34 OFFCURVE",
"119 49 CURVE SMOOTH",
"119 589 LINE"
);
},
{
closed = 1;
nodes = (
"453 -208 OFFCURVE",
"488 -182 OFFCURVE",
"488 -133 CURVE SMOOTH",
"488 -84 OFFCURVE",
"453 -58 OFFCURVE",
"405 -58 CURVE SMOOTH",
"357 -58 OFFCURVE",
"322 -84 OFFCURVE",
"322 -133 CURVE SMOOTH",
"322 -182 OFFCURVE",
"357 -208 OFFCURVE",
"405 -208 CURVE SMOOTH"
);
}
);
width = 962;
}
);
unicode = 1E42;
},
{
glyphname = N;
layers = (
{
layerId = "0EFCFE59-F23A-4210-A5A1-DE9F39E2245D";
name = Regular;
paths = (
{
closed = 1;
nodes = (
"87 50 LINE SMOOTH",
"87 34 OFFCURVE",
"82 32 OFFCURVE",
"63 28 CURVE SMOOTH",
"26 20 LINE",
"26 0 LINE",
"178 0 LINE",
"178 20 LINE",
"142 28 LINE SMOOTH",
"124 32 OFFCURVE",
"119 34 OFFCURVE",
"119 49 CURVE SMOOTH",
"119 635 LINE",
"621 0 LINE",
"657 0 LINE",
"657 650 LINE SMOOTH",
"657 666 OFFCURVE",
"662 668 OFFCURVE",
"681 672 CURVE SMOOTH",
"718 680 LINE",
"718 700 LINE",
"566 700 LINE",
"566 680 LINE",
"602 672 LINE SMOOTH",
"620 668 OFFCURVE",
"625 666 OFFCURVE",
"625 651 CURVE SMOOTH",
"625 294 LINE",
"303 700 LINE",
"26 700 LINE",
"26 680 LINE",
"63 672 LINE SMOOTH",
"82 668 OFFCURVE",
"87 666 OFFCURVE",
"87 650 CURVE SMOOTH"
);
}
);
width = 744;
}
);
unicode = 004E;
},
{
glyphname = Nacute;
layers = (
{
layerId = "0EFCFE59-F23A-4210-A5A1-DE9F39E2245D";
name = Regular;
paths = (
{
closed = 1;
nodes = (
"87 50 LINE SMOOTH",
"87 34 OFFCURVE",
"82 32 OFFCURVE",
"63 28 CURVE SMOOTH",
"26 20 LINE",
"26 0 LINE",
"178 0 LINE",
"178 20 LINE",
"142 28 LINE SMOOTH",
"124 32 OFFCURVE",
"119 34 OFFCURVE",
"119 49 CURVE SMOOTH",
"119 635 LINE",
"621 0 LINE",
"657 0 LINE",
"657 650 LINE SMOOTH",
"657 666 OFFCURVE",
"662 668 OFFCURVE",
"681 672 CURVE SMOOTH",
"718 680 LINE",
"718 700 LINE",
"566 700 LINE",
"566 680 LINE",
"602 672 LINE SMOOTH",
"620 668 OFFCURVE",
"625 666 OFFCURVE",
"625 651 CURVE SMOOTH",
"625 294 LINE",
"303 700 LINE",
"26 700 LINE",
"26 680 LINE",
"63 672 LINE SMOOTH",
"82 668 OFFCURVE",
"87 666 OFFCURVE",
"87 650 CURVE SMOOTH"
);
},
{
closed = 1;
nodes = (
"448 887 OFFCURVE",
"371 833 OFFCURVE",
"316 791 CURVE",
"321 780 LINE",
"382 790 OFFCURVE",
"486 817 OFFCURVE",
"547 845 CURVE",
"546 883 OFFCURVE",
"521 918 OFFCURVE",
"491 932 CURVE"
);
}
);
width = 744;
}
);
unicode = 0143;
},
{
glyphname = Ncaron;
layers = (
{
layerId = "0EFCFE59-F23A-4210-A5A1-DE9F39E2245D";
name = Regular;
paths = (
{
closed = 1;
nodes = (
"87 50 LINE SMOOTH",
"87 34 OFFCURVE",
"82 32 OFFCURVE",
"63 28 CURVE SMOOTH",
"26 20 LINE",
"26 0 LINE",
"178 0 LINE",
"178 20 LINE",
"142 28 LINE SMOOTH",
"124 32 OFFCURVE",
"119 34 OFFCURVE",
"119 49 CURVE SMOOTH",
"119 635 LINE",
"621 0 LINE",
"657 0 LINE",
"657 650 LINE SMOOTH",
"657 666 OFFCURVE",
"662 668 OFFCURVE",
"681 672 CURVE SMOOTH",
"718 680 LINE",
"718 700 LINE",
"566 700 LINE",
"566 680 LINE",
"602 672 LINE SMOOTH",
"620 668 OFFCURVE",
"625 666 OFFCURVE",
"625 651 CURVE SMOOTH",
"625 294 LINE",
"303 700 LINE",
"26 700 LINE",
"26 680 LINE",
"63 672 LINE SMOOTH",
"82 668 OFFCURVE",
"87 666 OFFCURVE",
"87 650 CURVE SMOOTH"
);
},
{
closed = 1;
nodes = (
"408 760 LINE",
"447 809 OFFCURVE",
"493 856 OFFCURVE",
"542 897 CURVE",
"531 912 LINE",
"481 895 OFFCURVE",
"432 872 OFFCURVE",
"382 843 CURVE",
"332 872 OFFCURVE",
"283 895 OFFCURVE",
"233 912 CURVE",
"222 897 LINE",
"272 856 OFFCURVE",
"317 809 OFFCURVE",
"356 760 CURVE"
);
}
);
width = 744;
}
);
unicode = 0147;
},
{
glyphname = Ncommaaccent;
layers = (
{
layerId = "0EFCFE59-F23A-4210-A5A1-DE9F39E2245D";
name = Regular;
paths = (
{
closed = 1;
nodes = (
"87 50 LINE SMOOTH",
"87 34 OFFCURVE",
"82 32 OFFCURVE",
"63 28 CURVE SMOOTH",
"26 20 LINE",
"26 0 LINE",
"178 0 LINE",
"178 20 LINE",
"142 28 LINE SMOOTH",
"124 32 OFFCURVE",
"119 34 OFFCURVE",
"119 49 CURVE SMOOTH",
"119 635 LINE",
"621 0 LINE",
"657 0 LINE",
"657 650 LINE SMOOTH",
"657 666 OFFCURVE",
"662 668 OFFCURVE",
"681 672 CURVE SMOOTH",
"718 680 LINE",
"718 700 LINE",
"566 700 LINE",
"566 680 LINE",
"602 672 LINE SMOOTH",
"620 668 OFFCURVE",
"625 666 OFFCURVE",
"625 651 CURVE SMOOTH",
"625 294 LINE",
"303 700 LINE",
"26 700 LINE",
"26 680 LINE",
"63 672 LINE SMOOTH",
"82 668 OFFCURVE",
"87 666 OFFCURVE",
"87 650 CURVE SMOOTH"
);
},
{
closed = 1;
nodes = (
"388 -251 OFFCURVE",
"375 -280 OFFCURVE",
"330 -326 CURVE",
"348 -343 LINE",
"410 -295 OFFCURVE",
"462 -220 OFFCURVE",
"462 -142 CURVE SMOOTH",
"462 -86 OFFCURVE",
"428 -58 OFFCURVE",
"378 -58 CURVE SMOOTH",
"326 -58 OFFCURVE",
"298 -93 OFFCURVE",
"298 -134 CURVE SMOOTH",
"298 -176 OFFCURVE",
"325 -213 OFFCURVE",
"389 -206 CURVE"
);
}
);
width = 744;
}
);
unicode = 0145;
},
{
glyphname = Ndotaccent;
layers = (
{
layerId = "0EFCFE59-F23A-4210-A5A1-DE9F39E2245D";
name = Regular;
paths = (
{
closed = 1;
nodes = (
"87 50 LINE SMOOTH",
"87 34 OFFCURVE",
"82 32 OFFCURVE",
"63 28 CURVE SMOOTH",
"26 20 LINE",
"26 0 LINE",
"178 0 LINE",
"178 20 LINE",
"142 28 LINE SMOOTH",
"124 32 OFFCURVE",
"119 34 OFFCURVE",
"119 49 CURVE SMOOTH",
"119 635 LINE",
"621 0 LINE",
"657 0 LINE",
"657 650 LINE SMOOTH",
"657 666 OFFCURVE",
"662 668 OFFCURVE",
"681 672 CURVE SMOOTH",
"718 680 LINE",
"718 700 LINE",
"566 700 LINE",
"566 680 LINE",
"602 672 LINE SMOOTH",
"620 668 OFFCURVE",
"625 666 OFFCURVE",
"625 651 CURVE SMOOTH",
"625 294 LINE",
"303 700 LINE",
"26 700 LINE",
"26 680 LINE",
"63 672 LINE SMOOTH",
"82 668 OFFCURVE",
"87 666 OFFCURVE",
"87 650 CURVE SMOOTH"
);
},
{
closed = 1;
nodes = (
"432 763 OFFCURVE",
"469 787 OFFCURVE",
"469 838 CURVE SMOOTH",
"469 889 OFFCURVE",
"432 913 OFFCURVE",
"382 913 CURVE SMOOTH",
"332 913 OFFCURVE",
"295 889 OFFCURVE",
"295 838 CURVE SMOOTH",
"295 787 OFFCURVE",
"332 763 OFFCURVE",
"382 763 CURVE SMOOTH"
);
}
);
width = 744;
}
);
unicode = 1E44;
},
{
glyphname = Ndotbelow;
layers = (
{
layerId = "0EFCFE59-F23A-4210-A5A1-DE9F39E2245D";
name = Regular;
paths = (
{
closed = 1;
nodes = (
"87 50 LINE SMOOTH",
"87 34 OFFCURVE",
"82 32 OFFCURVE",
"63 28 CURVE SMOOTH",
"26 20 LINE",
"26 0 LINE",
"178 0 LINE",
"178 20 LINE",
"142 28 LINE SMOOTH",
"124 32 OFFCURVE",
"119 34 OFFCURVE",
"119 49 CURVE SMOOTH",
"119 635 LINE",
"621 0 LINE",
"657 0 LINE",
"657 650 LINE SMOOTH",
"657 666 OFFCURVE",
"662 668 OFFCURVE",
"681 672 CURVE SMOOTH",
"718 680 LINE",
"718 700 LINE",
"566 700 LINE",
"566 680 LINE",
"602 672 LINE SMOOTH",
"620 668 OFFCURVE",
"625 666 OFFCURVE",
"625 651 CURVE SMOOTH",
"625 294 LINE",
"303 700 LINE",
"26 700 LINE",
"26 680 LINE",
"63 672 LINE SMOOTH",
"82 668 OFFCURVE",
"87 666 OFFCURVE",
"87 650 CURVE SMOOTH"
);
},
{
closed = 1;
nodes = (
"430 -208 OFFCURVE",
"465 -182 OFFCURVE",
"465 -133 CURVE SMOOTH",
"465 -84 OFFCURVE",
"430 -58 OFFCURVE",
"382 -58 CURVE SMOOTH",
"334 -58 OFFCURVE",
"299 -84 OFFCURVE",
"299 -133 CURVE SMOOTH",
"299 -182 OFFCURVE",
"334 -208 OFFCURVE",
"382 -208 CURVE SMOOTH"
);
}
);
width = 744;
}
);
unicode = 1E46;
},
{
glyphname = Eng;
layers = (
{
layerId = "0EFCFE59-F23A-4210-A5A1-DE9F39E2245D";
name = Regular;
paths = (
{
closed = 1;
nodes = (
"657 650 LINE SMOOTH",
"657 666 OFFCURVE",
"662 668 OFFCURVE",
"681 672 CURVE SMOOTH",
"718 680 LINE",
"718 700 LINE",
"566 700 LINE",
"566 680 LINE",
"602 672 LINE SMOOTH",
"620 668 OFFCURVE",
"625 666 OFFCURVE",
"625 651 CURVE SMOOTH",
"625 294 LINE",
"303 700 LINE",
"26 700 LINE",
"26 680 LINE",
"63 672 LINE SMOOTH",
"82 668 OFFCURVE",
"87 666 OFFCURVE",
"87 650 CURVE SMOOTH",
"87 50 LINE SMOOTH",
"87 34 OFFCURVE",
"82 32 OFFCURVE",
"63 28 CURVE SMOOTH",
"26 20 LINE",
"26 0 LINE",
"178 0 LINE",
"178 20 LINE",
"142 28 LINE SMOOTH",
"124 32 OFFCURVE",
"119 34 OFFCURVE",
"119 49 CURVE SMOOTH",
"119 635 LINE",
"625 -5 LINE",
"625 -40 LINE SMOOTH",
"625 -171 OFFCURVE",
"571 -198 OFFCURVE",
"507 -198 CURVE SMOOTH",
"466 -198 OFFCURVE",
"427 -184 OFFCURVE",
"401 -167 CURVE",
"387 -195 LINE",
"417 -214 OFFCURVE",
"460 -230 OFFCURVE",
"508 -230 CURVE SMOOTH",
"592 -230 OFFCURVE",
"657 -192 OFFCURVE",
"657 -41 CURVE SMOOTH"
);
}
);
width = 744;
}
);
unicode = 014A;
},
{
glyphname = Nlinebelow;
layers = (
{
layerId = "0EFCFE59-F23A-4210-A5A1-DE9F39E2245D";
name = Regular;
paths = (
{
closed = 1;
nodes = (
"87 50 LINE SMOOTH",
"87 34 OFFCURVE",
"82 32 OFFCURVE",
"63 28 CURVE SMOOTH",
"26 20 LINE",
"26 0 LINE",
"178 0 LINE",
"178 20 LINE",
"142 28 LINE SMOOTH",
"124 32 OFFCURVE",
"119 34 OFFCURVE",
"119 49 CURVE SMOOTH",
"119 635 LINE",
"621 0 LINE",
"657 0 LINE",
"657 650 LINE SMOOTH",
"657 666 OFFCURVE",
"662 668 OFFCURVE",
"681 672 CURVE SMOOTH",
"718 680 LINE",
"718 700 LINE",
"566 700 LINE",
"566 680 LINE",
"602 672 LINE SMOOTH",
"620 668 OFFCURVE",
"625 666 OFFCURVE",
"625 651 CURVE SMOOTH",
"625 294 LINE",
"303 700 LINE",
"26 700 LINE",
"26 680 LINE",
"63 672 LINE SMOOTH",
"82 668 OFFCURVE",
"87 666 OFFCURVE",
"87 650 CURVE SMOOTH"
);
},
{
closed = 1;
nodes = (
"164 -96 LINE",
"544 -96 LINE",
"544 -72 LINE",
"164 -72 LINE"
);
}
);
width = 744;
}
);
unicode = 1E48;
},
{
glyphname = Ntilde;
layers = (
{
layerId = "0EFCFE59-F23A-4210-A5A1-DE9F39E2245D";
name = Regular;
paths = (
{
closed = 1;
nodes = (
"87 50 LINE SMOOTH",
"87 34 OFFCURVE",
"82 32 OFFCURVE",
"63 28 CURVE SMOOTH",
"26 20 LINE",
"26 0 LINE",
"178 0 LINE",
"178 20 LINE",
"142 28 LINE SMOOTH",
"124 32 OFFCURVE",
"119 34 OFFCURVE",
"119 49 CURVE SMOOTH",
"119 635 LINE",
"621 0 LINE",
"657 0 LINE",
"657 650 LINE SMOOTH",
"657 666 OFFCURVE",
"662 668 OFFCURVE",
"681 672 CURVE SMOOTH",
"718 680 LINE",
"718 700 LINE",
"566 700 LINE",
"566 680 LINE",
"602 672 LINE SMOOTH",
"620 668 OFFCURVE",
"625 666 OFFCURVE",
"625 651 CURVE SMOOTH",
"625 294 LINE",
"303 700 LINE",
"26 700 LINE",
"26 680 LINE",
"63 672 LINE SMOOTH",
"82 668 OFFCURVE",
"87 666 OFFCURVE",
"87 650 CURVE SMOOTH"
);
},
{
closed = 1;
nodes = (
"516 758 OFFCURVE",
"542 833 OFFCURVE",
"561 883 CURVE",
"549 888 LINE",
"525 858 LINE",
"512 840 OFFCURVE",
"485 834 OFFCURVE",
"461 843 CURVE SMOOTH",
"365 881 OFFCURVE",
"317 902 OFFCURVE",
"287 902 CURVE SMOOTH",
"228 902 OFFCURVE",
"202 827 OFFCURVE",
"183 777 CURVE",
"195 772 LINE",
"219 802 LINE",
"232 820 OFFCURVE",
"259 826 OFFCURVE",
"283 817 CURVE SMOOTH",
"379 779 OFFCURVE",
"427 758 OFFCURVE",
"457 758 CURVE SMOOTH"
);
}
);
width = 744;
}
);
unicode = 00D1;
},
{
glyphname = O;
layers = (
{
layerId = "0EFCFE59-F23A-4210-A5A1-DE9F39E2245D";
name = Regular;
paths = (
{
closed = 1;
nodes = (
"222 712 OFFCURVE",
"56 620 OFFCURVE",
"56 350 CURVE SMOOTH",
"56 80 OFFCURVE",
"221 -12 OFFCURVE",
"427 -12 CURVE SMOOTH",
"633 -12 OFFCURVE",
"798 80 OFFCURVE",
"798 350 CURVE SMOOTH",
"798 620 OFFCURVE",
"633 712 OFFCURVE",
"427 712 CURVE SMOOTH"
);
},
{
closed = 1;
nodes = (
"304 17 OFFCURVE",
"277 112 OFFCURVE",
"277 350 CURVE SMOOTH",
"277 588 OFFCURVE",
"304 683 OFFCURVE",
"427 683 CURVE SMOOTH",
"550 683 OFFCURVE",
"577 588 OFFCURVE",
"577 350 CURVE SMOOTH",
"577 112 OFFCURVE",
"550 17 OFFCURVE",
"427 17 CURVE SMOOTH"
);
}
);
width = 854;
}
);
unicode = 004F;
},
{
glyphname = Oacute;
layers = (
{
layerId = "0EFCFE59-F23A-4210-A5A1-DE9F39E2245D";
name = Regular;
paths = (
{
closed = 1;
nodes = (
"222 712 OFFCURVE",
"56 620 OFFCURVE",
"56 350 CURVE SMOOTH",
"56 80 OFFCURVE",
"221 -12 OFFCURVE",
"427 -12 CURVE SMOOTH",
"633 -12 OFFCURVE",
"798 80 OFFCURVE",
"798 350 CURVE SMOOTH",
"798 620 OFFCURVE",
"633 712 OFFCURVE",
"427 712 CURVE SMOOTH"
);
},
{
closed = 1;
nodes = (
"304 17 OFFCURVE",
"277 112 OFFCURVE",
"277 350 CURVE SMOOTH",
"277 588 OFFCURVE",
"304 683 OFFCURVE",
"427 683 CURVE SMOOTH",
"550 683 OFFCURVE",
"577 588 OFFCURVE",
"577 350 CURVE SMOOTH",
"577 112 OFFCURVE",
"550 17 OFFCURVE",
"427 17 CURVE SMOOTH"
);
},
{
closed = 1;
nodes = (
"502 867 OFFCURVE",
"425 813 OFFCURVE",
"370 771 CURVE",
"375 760 LINE",
"436 770 OFFCURVE",
"540 797 OFFCURVE",
"601 825 CURVE",
"600 863 OFFCURVE",
"575 898 OFFCURVE",
"545 912 CURVE"
);
}
);
width = 854;
}
);
unicode = 00D3;
},
{
glyphname = Obreve;
layers = (
{
layerId = "0EFCFE59-F23A-4210-A5A1-DE9F39E2245D";
name = Regular;
paths = (
{
closed = 1;
nodes = (
"222 712 OFFCURVE",
"56 620 OFFCURVE",
"56 350 CURVE SMOOTH",
"56 80 OFFCURVE",
"221 -12 OFFCURVE",
"427 -12 CURVE SMOOTH",
"633 -12 OFFCURVE",
"798 80 OFFCURVE",
"798 350 CURVE SMOOTH",
"798 620 OFFCURVE",
"633 712 OFFCURVE",
"427 712 CURVE SMOOTH"
);
},
{
closed = 1;
nodes = (
"304 17 OFFCURVE",
"277 112 OFFCURVE",
"277 350 CURVE SMOOTH",
"277 588 OFFCURVE",
"304 683 OFFCURVE",
"427 683 CURVE SMOOTH",
"550 683 OFFCURVE",
"577 588 OFFCURVE",
"577 350 CURVE SMOOTH",
"577 112 OFFCURVE",
"550 17 OFFCURVE",
"427 17 CURVE SMOOTH"
);
},
{
closed = 1;
nodes = (
"520 760 OFFCURVE",
"563 820 OFFCURVE",
"565 913 CURVE",
"545 913 LINE",
"532 862 OFFCURVE",
"506 837 OFFCURVE",
"427 837 CURVE SMOOTH",
"348 837 OFFCURVE",
"322 862 OFFCURVE",
"309 913 CURVE",
"289 913 LINE",
"291 820 OFFCURVE",
"334 760 OFFCURVE",
"427 760 CURVE SMOOTH"
);
}
);
width = 854;
}
);
unicode = 014E;
},
{
glyphname = Ocaron;
layers = (
{
layerId = "0EFCFE59-F23A-4210-A5A1-DE9F39E2245D";
name = Regular;
paths = (
{
closed = 1;
nodes = (
"222 712 OFFCURVE",
"56 620 OFFCURVE",
"56 350 CURVE SMOOTH",
"56 80 OFFCURVE",
"221 -12 OFFCURVE",
"427 -12 CURVE SMOOTH",
"633 -12 OFFCURVE",
"798 80 OFFCURVE",
"798 350 CURVE SMOOTH",
"798 620 OFFCURVE",
"633 712 OFFCURVE",
"427 712 CURVE SMOOTH"
);
},
{
closed = 1;
nodes = (
"304 17 OFFCURVE",
"277 112 OFFCURVE",
"277 350 CURVE SMOOTH",
"277 588 OFFCURVE",
"304 683 OFFCURVE",
"427 683 CURVE SMOOTH",
"550 683 OFFCURVE",
"577 588 OFFCURVE",
"577 350 CURVE SMOOTH",
"577 112 OFFCURVE",
"550 17 OFFCURVE",
"427 17 CURVE SMOOTH"
);
},
{
closed = 1;
nodes = (
"453 760 LINE",
"492 809 OFFCURVE",
"538 856 OFFCURVE",
"587 897 CURVE",
"576 912 LINE",
"526 895 OFFCURVE",
"477 872 OFFCURVE",
"427 843 CURVE",
"377 872 OFFCURVE",
"328 895 OFFCURVE",
"278 912 CURVE",
"267 897 LINE",
"317 856 OFFCURVE",
"362 809 OFFCURVE",
"401 760 CURVE"
);
}
);
width = 854;
}
);
unicode = 01D1;
},
{
glyphname = Ocircumflex;
layers = (
{
layerId = "0EFCFE59-F23A-4210-A5A1-DE9F39E2245D";
name = Regular;
paths = (
{
closed = 1;
nodes = (
"222 712 OFFCURVE",
"56 620 OFFCURVE",
"56 350 CURVE SMOOTH",
"56 80 OFFCURVE",
"221 -12 OFFCURVE",
"427 -12 CURVE SMOOTH",
"633 -12 OFFCURVE",
"798 80 OFFCURVE",
"798 350 CURVE SMOOTH",
"798 620 OFFCURVE",
"633 712 OFFCURVE",
"427 712 CURVE SMOOTH"
);
},
{
closed = 1;
nodes = (
"304 17 OFFCURVE",
"277 112 OFFCURVE",
"277 350 CURVE SMOOTH",
"277 588 OFFCURVE",
"304 683 OFFCURVE",
"427 683 CURVE SMOOTH",
"550 683 OFFCURVE",
"577 588 OFFCURVE",
"577 350 CURVE SMOOTH",
"577 112 OFFCURVE",
"550 17 OFFCURVE",
"427 17 CURVE SMOOTH"
);
},
{
closed = 1;
nodes = (
"401 912 LINE",
"362 863 OFFCURVE",
"317 816 OFFCURVE",
"267 775 CURVE",
"278 760 LINE",
"328 777 OFFCURVE",
"377 800 OFFCURVE",
"427 829 CURVE",
"477 800 OFFCURVE",
"526 777 OFFCURVE",
"576 760 CURVE",
"587 775 LINE",
"538 816 OFFCURVE",
"492 863 OFFCURVE",
"453 912 CURVE"
);
}
);
width = 854;
}
);
unicode = 00D4;
},
{
glyphname = Ocircumflexacute;
layers = (
{
layerId = "0EFCFE59-F23A-4210-A5A1-DE9F39E2245D";
name = Regular;
paths = (
{
closed = 1;
nodes = (
"222 712 OFFCURVE",
"56 620 OFFCURVE",
"56 350 CURVE SMOOTH",
"56 80 OFFCURVE",
"221 -12 OFFCURVE",
"427 -12 CURVE SMOOTH",
"633 -12 OFFCURVE",
"798 80 OFFCURVE",
"798 350 CURVE SMOOTH",
"798 620 OFFCURVE",
"633 712 OFFCURVE",
"427 712 CURVE SMOOTH"
);
},
{
closed = 1;
nodes = (
"304 17 OFFCURVE",
"277 112 OFFCURVE",
"277 350 CURVE SMOOTH",
"277 588 OFFCURVE",
"304 683 OFFCURVE",
"427 683 CURVE SMOOTH",
"550 683 OFFCURVE",
"577 588 OFFCURVE",
"577 350 CURVE SMOOTH",
"577 112 OFFCURVE",
"550 17 OFFCURVE",
"427 17 CURVE SMOOTH"
);
},
{
closed = 1;
nodes = (
"407 894 LINE",
"366 849 OFFCURVE",
"328 812 OFFCURVE",
"277 775 CURVE",
"288 760 LINE",
"332 774 OFFCURVE",
"388 795 OFFCURVE",
"433 821 CURVE",
"478 795 OFFCURVE",
"534 774 OFFCURVE",
"578 760 CURVE",
"589 775 LINE",
"542 812 OFFCURVE",
"500 849 OFFCURVE",
"459 894 CURVE"
);
},
{
closed = 1;
nodes = (
"595 985 OFFCURVE",
"564 937 OFFCURVE",
"529 886 CURVE",
"540 876 LINE",
"589 901 OFFCURVE",
"638 941 OFFCURVE",
"686 984 CURVE",
"675 1013 OFFCURVE",
"648 1034 OFFCURVE",
"620 1036 CURVE"
);
}
);
width = 854;
}
);
unicode = 1ED0;
},
{
glyphname = Ocircumflexdotbelow;
layers = (
{
layerId = "0EFCFE59-F23A-4210-A5A1-DE9F39E2245D";
name = Regular;
paths = (
{
closed = 1;
nodes = (
"222 712 OFFCURVE",
"56 620 OFFCURVE",
"56 350 CURVE SMOOTH",
"56 80 OFFCURVE",
"221 -12 OFFCURVE",
"427 -12 CURVE SMOOTH",
"633 -12 OFFCURVE",
"798 80 OFFCURVE",
"798 350 CURVE SMOOTH",
"798 620 OFFCURVE",
"633 712 OFFCURVE",
"427 712 CURVE SMOOTH"
);
},
{
closed = 1;
nodes = (
"304 17 OFFCURVE",
"277 112 OFFCURVE",
"277 350 CURVE SMOOTH",
"277 588 OFFCURVE",
"304 683 OFFCURVE",
"427 683 CURVE SMOOTH",
"550 683 OFFCURVE",
"577 588 OFFCURVE",
"577 350 CURVE SMOOTH",
"577 112 OFFCURVE",
"550 17 OFFCURVE",
"427 17 CURVE SMOOTH"
);
},
{
closed = 1;
nodes = (
"401 912 LINE",
"362 863 OFFCURVE",
"317 816 OFFCURVE",
"267 775 CURVE",
"278 760 LINE",
"328 777 OFFCURVE",
"377 800 OFFCURVE",
"427 829 CURVE",
"477 800 OFFCURVE",
"526 777 OFFCURVE",
"576 760 CURVE",
"587 775 LINE",
"538 816 OFFCURVE",
"492 863 OFFCURVE",
"453 912 CURVE"
);
},
{
closed = 1;
nodes = (
"475 -208 OFFCURVE",
"510 -182 OFFCURVE",
"510 -133 CURVE SMOOTH",
"510 -84 OFFCURVE",
"475 -58 OFFCURVE",
"427 -58 CURVE SMOOTH",
"379 -58 OFFCURVE",
"344 -84 OFFCURVE",
"344 -133 CURVE SMOOTH",
"344 -182 OFFCURVE",
"379 -208 OFFCURVE",
"427 -208 CURVE SMOOTH"
);
}
);
width = 854;
}
);
unicode = 1ED8;
},
{
glyphname = Ocircumflexgrave;
layers = (
{
layerId = "0EFCFE59-F23A-4210-A5A1-DE9F39E2245D";
name = Regular;
paths = (
{
closed = 1;
nodes = (
"222 712 OFFCURVE",
"56 620 OFFCURVE",
"56 350 CURVE SMOOTH",
"56 80 OFFCURVE",
"221 -12 OFFCURVE",
"427 -12 CURVE SMOOTH",
"633 -12 OFFCURVE",
"798 80 OFFCURVE",
"798 350 CURVE SMOOTH",
"798 620 OFFCURVE",
"633 712 OFFCURVE",
"427 712 CURVE SMOOTH"
);
},
{
closed = 1;
nodes = (
"304 17 OFFCURVE",
"277 112 OFFCURVE",
"277 350 CURVE SMOOTH",
"277 588 OFFCURVE",
"304 683 OFFCURVE",
"427 683 CURVE SMOOTH",
"550 683 OFFCURVE",
"577 588 OFFCURVE",
"577 350 CURVE SMOOTH",
"577 112 OFFCURVE",
"550 17 OFFCURVE",
"427 17 CURVE SMOOTH"
);
},
{
closed = 1;
nodes = (
"218 1034 OFFCURVE",
"191 1013 OFFCURVE",
"180 984 CURVE",
"228 941 OFFCURVE",
"277 901 OFFCURVE",
"326 876 CURVE",
"337 886 LINE",
"302 937 OFFCURVE",
"271 985 OFFCURVE",
"246 1036 CURVE"
);
},
{
closed = 1;
nodes = (
"407 894 LINE",
"366 849 OFFCURVE",
"328 812 OFFCURVE",
"277 775 CURVE",
"288 760 LINE",
"332 774 OFFCURVE",
"388 795 OFFCURVE",
"433 821 CURVE",
"478 795 OFFCURVE",
"534 774 OFFCURVE",
"578 760 CURVE",
"589 775 LINE",
"542 812 OFFCURVE",
"500 849 OFFCURVE",
"459 894 CURVE"
);
}
);
width = 854;
}
);
unicode = 1ED2;
},
{
glyphname = Ocircumflexhookabove;
layers = (
{
layerId = "0EFCFE59-F23A-4210-A5A1-DE9F39E2245D";
name = Regular;
paths = (
{
closed = 1;
nodes = (
"222 712 OFFCURVE",
"56 620 OFFCURVE",
"56 350 CURVE SMOOTH",
"56 80 OFFCURVE",
"221 -12 OFFCURVE",
"427 -12 CURVE SMOOTH",
"633 -12 OFFCURVE",
"798 80 OFFCURVE",
"798 350 CURVE SMOOTH",
"798 620 OFFCURVE",
"633 712 OFFCURVE",
"427 712 CURVE SMOOTH"
);
},
{
closed = 1;
nodes = (
"304 17 OFFCURVE",
"277 112 OFFCURVE",
"277 350 CURVE SMOOTH",
"277 588 OFFCURVE",
"304 683 OFFCURVE",
"427 683 CURVE SMOOTH",
"550 683 OFFCURVE",
"577 588 OFFCURVE",
"577 350 CURVE SMOOTH",
"577 112 OFFCURVE",
"550 17 OFFCURVE",
"427 17 CURVE SMOOTH"
);
},
{
closed = 1;
nodes = (
"407 894 LINE",
"366 849 OFFCURVE",
"328 812 OFFCURVE",
"277 775 CURVE",
"288 760 LINE",
"332 774 OFFCURVE",
"388 795 OFFCURVE",
"433 821 CURVE",
"478 795 OFFCURVE",
"534 774 OFFCURVE",
"578 760 CURVE",
"589 775 LINE",
"542 812 OFFCURVE",
"500 849 OFFCURVE",
"459 894 CURVE"
);
},
{
closed = 1;
nodes = (
"591 880 LINE",
"640 891 OFFCURVE",
"669 914 OFFCURVE",
"669 953 CURVE SMOOTH",
"669 995 OFFCURVE",
"638 1010 OFFCURVE",
"591 1010 CURVE SMOOTH",
"548 1010 OFFCURVE",
"520 999 OFFCURVE",
"501 989 CURVE",
"507 973 LINE",
"525 981 OFFCURVE",
"537 985 OFFCURVE",
"557 985 CURVE SMOOTH",
"580 985 OFFCURVE",
"590 975 OFFCURVE",
"590 955 CURVE SMOOTH",
"590 921 OFFCURVE",
"578 907 OFFCURVE",
"555 892 CURVE",
"561 850 LINE",
"587 850 LINE"
);
}
);
width = 854;
}
);
unicode = 1ED4;
},
{
glyphname = Ocircumflextilde;
layers = (
{
layerId = "0EFCFE59-F23A-4210-A5A1-DE9F39E2245D";
name = Regular;
paths = (
{
closed = 1;
nodes = (
"222 712 OFFCURVE",
"56 620 OFFCURVE",
"56 350 CURVE SMOOTH",
"56 80 OFFCURVE",
"221 -12 OFFCURVE",
"427 -12 CURVE SMOOTH",
"633 -12 OFFCURVE",
"798 80 OFFCURVE",
"798 350 CURVE SMOOTH",
"798 620 OFFCURVE",
"633 712 OFFCURVE",
"427 712 CURVE SMOOTH"
);
},
{
closed = 1;
nodes = (
"304 17 OFFCURVE",
"277 112 OFFCURVE",
"277 350 CURVE SMOOTH",
"277 588 OFFCURVE",
"304 683 OFFCURVE",
"427 683 CURVE SMOOTH",
"550 683 OFFCURVE",
"577 588 OFFCURVE",
"577 350 CURVE SMOOTH",
"577 112 OFFCURVE",
"550 17 OFFCURVE",
"427 17 CURVE SMOOTH"
);
},
{
closed = 1;
nodes = (
"516 760 OFFCURVE",
"565 804 OFFCURVE",
"567 897 CURVE",
"547 897 LINE",
"534 846 OFFCURVE",
"502 827 OFFCURVE",
"433 827 CURVE SMOOTH",
"364 827 OFFCURVE",
"332 846 OFFCURVE",
"319 897 CURVE",
"299 897 LINE",
"301 804 OFFCURVE",
"350 760 OFFCURVE",
"433 760 CURVE SMOOTH"
);
},
{
closed = 1;
nodes = (
"550 930 OFFCURVE",
"576 986 OFFCURVE",
"591 1025 CURVE",
"577 1031 LINE",
"559 1007 LINE SMOOTH",
"549 993 OFFCURVE",
"526 989 OFFCURVE",
"507 996 CURVE SMOOTH",
"432 1025 OFFCURVE",
"385 1042 OFFCURVE",
"362 1042 CURVE SMOOTH",
"316 1042 OFFCURVE",
"289 985 OFFCURVE",
"275 946 CURVE",
"288 941 LINE",
"307 964 LINE",
"317 978 OFFCURVE",
"340 983 OFFCURVE",
"358 976 CURVE SMOOTH",
"433 946 OFFCURVE",
"480 930 OFFCURVE",
"504 930 CURVE SMOOTH"
);
}
);
width = 854;
}
);
unicode = 1ED6;
},
{
glyphname = Odieresis;
layers = (
{
layerId = "0EFCFE59-F23A-4210-A5A1-DE9F39E2245D";
name = Regular;
paths = (
{
closed = 1;
nodes = (
"222 712 OFFCURVE",
"56 620 OFFCURVE",
"56 350 CURVE SMOOTH",
"56 80 OFFCURVE",
"221 -12 OFFCURVE",
"427 -12 CURVE SMOOTH",
"633 -12 OFFCURVE",
"798 80 OFFCURVE",
"798 350 CURVE SMOOTH",
"798 620 OFFCURVE",
"633 712 OFFCURVE",
"427 712 CURVE SMOOTH"
);
},
{
closed = 1;
nodes = (
"304 17 OFFCURVE",
"277 112 OFFCURVE",
"277 350 CURVE SMOOTH",
"277 588 OFFCURVE",
"304 683 OFFCURVE",
"427 683 CURVE SMOOTH",
"550 683 OFFCURVE",
"577 588 OFFCURVE",
"577 350 CURVE SMOOTH",
"577 112 OFFCURVE",
"550 17 OFFCURVE",
"427 17 CURVE SMOOTH"
);
},
{
closed = 1;
nodes = (
"354 767 OFFCURVE",
"385 799 OFFCURVE",
"385 840 CURVE SMOOTH",
"385 881 OFFCURVE",
"354 913 OFFCURVE",
"308 913 CURVE SMOOTH",
"262 913 OFFCURVE",
"231 881 OFFCURVE",
"231 840 CURVE SMOOTH",
"231 799 OFFCURVE",
"262 767 OFFCURVE",
"308 767 CURVE SMOOTH"
);
},
{
closed = 1;
nodes = (
"592 767 OFFCURVE",
"623 799 OFFCURVE",
"623 840 CURVE SMOOTH",
"623 881 OFFCURVE",
"592 913 OFFCURVE",
"546 913 CURVE SMOOTH",
"500 913 OFFCURVE",
"469 881 OFFCURVE",
"469 840 CURVE SMOOTH",
"469 799 OFFCURVE",
"500 767 OFFCURVE",
"546 767 CURVE SMOOTH"
);
}
);
width = 854;
}
);
unicode = 00D6;
},
{
glyphname = Odotbelow;
layers = (
{
layerId = "0EFCFE59-F23A-4210-A5A1-DE9F39E2245D";
name = Regular;
paths = (
{
closed = 1;
nodes = (
"222 712 OFFCURVE",
"56 620 OFFCURVE",
"56 350 CURVE SMOOTH",
"56 80 OFFCURVE",
"221 -12 OFFCURVE",
"427 -12 CURVE SMOOTH",
"633 -12 OFFCURVE",
"798 80 OFFCURVE",
"798 350 CURVE SMOOTH",
"798 620 OFFCURVE",
"633 712 OFFCURVE",
"427 712 CURVE SMOOTH"
);
},
{
closed = 1;
nodes = (
"304 17 OFFCURVE",
"277 112 OFFCURVE",
"277 350 CURVE SMOOTH",
"277 588 OFFCURVE",
"304 683 OFFCURVE",
"427 683 CURVE SMOOTH",
"550 683 OFFCURVE",
"577 588 OFFCURVE",
"577 350 CURVE SMOOTH",
"577 112 OFFCURVE",
"550 17 OFFCURVE",
"427 17 CURVE SMOOTH"
);
},
{
closed = 1;
nodes = (
"475 -208 OFFCURVE",
"510 -182 OFFCURVE",
"510 -133 CURVE SMOOTH",
"510 -84 OFFCURVE",
"475 -58 OFFCURVE",
"427 -58 CURVE SMOOTH",
"379 -58 OFFCURVE",
"344 -84 OFFCURVE",
"344 -133 CURVE SMOOTH",
"344 -182 OFFCURVE",
"379 -208 OFFCURVE",
"427 -208 CURVE SMOOTH"
);
}
);
width = 854;
}
);
unicode = 1ECC;
},
{
glyphname = Ograve;
layers = (
{
layerId = "0EFCFE59-F23A-4210-A5A1-DE9F39E2245D";
name = Regular;
paths = (
{
closed = 1;
nodes = (
"222 712 OFFCURVE",
"56 620 OFFCURVE",
"56 350 CURVE SMOOTH",
"56 80 OFFCURVE",
"221 -12 OFFCURVE",
"427 -12 CURVE SMOOTH",
"633 -12 OFFCURVE",
"798 80 OFFCURVE",
"798 350 CURVE SMOOTH",
"798 620 OFFCURVE",
"633 712 OFFCURVE",
"427 712 CURVE SMOOTH"
);
},
{
closed = 1;
nodes = (
"304 17 OFFCURVE",
"277 112 OFFCURVE",
"277 350 CURVE SMOOTH",
"277 588 OFFCURVE",
"304 683 OFFCURVE",
"427 683 CURVE SMOOTH",
"550 683 OFFCURVE",
"577 588 OFFCURVE",
"577 350 CURVE SMOOTH",
"577 112 OFFCURVE",
"550 17 OFFCURVE",
"427 17 CURVE SMOOTH"
);
},
{
closed = 1;
nodes = (
"279 898 OFFCURVE",
"254 863 OFFCURVE",
"253 825 CURVE",
"314 797 OFFCURVE",
"418 770 OFFCURVE",
"479 760 CURVE",
"484 771 LINE",
"429 813 OFFCURVE",
"352 867 OFFCURVE",
"309 912 CURVE"
);
}
);
width = 854;
}
);
unicode = 00D2;
},
{
glyphname = Ohookabove;
layers = (
{
layerId = "0EFCFE59-F23A-4210-A5A1-DE9F39E2245D";
name = Regular;
paths = (
{
closed = 1;
nodes = (
"222 712 OFFCURVE",
"56 620 OFFCURVE",
"56 350 CURVE SMOOTH",
"56 80 OFFCURVE",
"221 -12 OFFCURVE",
"427 -12 CURVE SMOOTH",
"633 -12 OFFCURVE",
"798 80 OFFCURVE",
"798 350 CURVE SMOOTH",
"798 620 OFFCURVE",
"633 712 OFFCURVE",
"427 712 CURVE SMOOTH"
);
},
{
closed = 1;
nodes = (
"304 17 OFFCURVE",
"277 112 OFFCURVE",
"277 350 CURVE SMOOTH",
"277 588 OFFCURVE",
"304 683 OFFCURVE",
"427 683 CURVE SMOOTH",
"550 683 OFFCURVE",
"577 588 OFFCURVE",
"577 350 CURVE SMOOTH",
"577 112 OFFCURVE",
"550 17 OFFCURVE",
"427 17 CURVE SMOOTH"
);
},
{
closed = 1;
nodes = (
"452 794 LINE",
"512 808 OFFCURVE",
"554 833 OFFCURVE",
"554 881 CURVE SMOOTH",
"554 932 OFFCURVE",
"512 951 OFFCURVE",
"459 951 CURVE SMOOTH",
"404 951 OFFCURVE",
"367 936 OFFCURVE",
"344 925 CURVE",
"351 905 LINE",
"373 914 OFFCURVE",
"389 919 OFFCURVE",
"417 919 CURVE SMOOTH",
"442 919 OFFCURVE",
"456 908 OFFCURVE",
"456 883 CURVE SMOOTH",
"456 849 OFFCURVE",
"443 827 OFFCURVE",
"414 809 CURVE",
"420 760 LINE",
"448 760 LINE"
);
}
);
width = 854;
}
);
unicode = 1ECE;
},
{
glyphname = Ohorn;
layers = (
{
layerId = "0EFCFE59-F23A-4210-A5A1-DE9F39E2245D";
name = Regular;
paths = (
{
closed = 1;
nodes = (
"672 783 LINE",
"716 774 OFFCURVE",
"740 757 OFFCURVE",
"740 716 CURVE SMOOTH",
"740 682 OFFCURVE",
"729 654 OFFCURVE",
"692 630 CURVE",
"625 688 OFFCURVE",
"531 712 OFFCURVE",
"427 712 CURVE SMOOTH",
"222 712 OFFCURVE",
"56 620 OFFCURVE",
"56 350 CURVE SMOOTH",
"56 80 OFFCURVE",
"221 -12 OFFCURVE",
"427 -12 CURVE SMOOTH",
"633 -12 OFFCURVE",
"798 80 OFFCURVE",
"798 350 CURVE SMOOTH",
"798 468 OFFCURVE",
"766 552 OFFCURVE",
"713 609 CURVE",
"779 637 OFFCURVE",
"838 678 OFFCURVE",
"838 736 CURVE SMOOTH",
"838 796 OFFCURVE",
"772 813 OFFCURVE",
"692 813 CURVE"
);
},
{
closed = 1;
nodes = (
"304 17 OFFCURVE",
"277 112 OFFCURVE",
"277 350 CURVE SMOOTH",
"277 588 OFFCURVE",
"304 683 OFFCURVE",
"427 683 CURVE SMOOTH",
"550 683 OFFCURVE",
"577 588 OFFCURVE",
"577 350 CURVE SMOOTH",
"577 112 OFFCURVE",
"550 17 OFFCURVE",
"427 17 CURVE SMOOTH"
);
}
);
width = 858;
}
);
unicode = 01A0;
},
{
glyphname = Ohornacute;
layers = (
{
layerId = "0EFCFE59-F23A-4210-A5A1-DE9F39E2245D";
name = Regular;
paths = (
{
closed = 1;
nodes = (
"222 712 OFFCURVE",
"56 620 OFFCURVE",
"56 350 CURVE SMOOTH",
"56 80 OFFCURVE",
"221 -12 OFFCURVE",
"427 -12 CURVE SMOOTH",
"633 -12 OFFCURVE",
"798 80 OFFCURVE",
"798 350 CURVE SMOOTH",
"798 620 OFFCURVE",
"633 712 OFFCURVE",
"427 712 CURVE SMOOTH"
);
},
{
closed = 1;
nodes = (
"304 17 OFFCURVE",
"277 112 OFFCURVE",
"277 350 CURVE SMOOTH",
"277 588 OFFCURVE",
"304 683 OFFCURVE",
"427 683 CURVE SMOOTH",
"550 683 OFFCURVE",
"577 588 OFFCURVE",
"577 350 CURVE SMOOTH",
"577 112 OFFCURVE",
"550 17 OFFCURVE",
"427 17 CURVE SMOOTH"
);
},
{
closed = 1;
nodes = (
"672 783 LINE",
"716 774 OFFCURVE",
"740 757 OFFCURVE",
"740 716 CURVE SMOOTH",
"740 675 OFFCURVE",
"723 642 OFFCURVE",
"663 614 CURVE",
"673 594 LINE",
"752 621 OFFCURVE",
"838 667 OFFCURVE",
"838 736 CURVE SMOOTH",
"838 796 OFFCURVE",
"772 813 OFFCURVE",
"692 813 CURVE"
);
},
{
closed = 1;
nodes = (
"506 867 OFFCURVE",
"429 813 OFFCURVE",
"374 771 CURVE",
"379 760 LINE",
"440 770 OFFCURVE",
"544 797 OFFCURVE",
"605 825 CURVE",
"604 863 OFFCURVE",
"579 898 OFFCURVE",
"549 912 CURVE"
);
}
);
width = 858;
}
);
unicode = 1EDA;
},
{
glyphname = Ohorndotbelow;
layers = (
{
layerId = "0EFCFE59-F23A-4210-A5A1-DE9F39E2245D";
name = Regular;
paths = (
{
closed = 1;
nodes = (
"672 783 LINE",
"716 774 OFFCURVE",
"740 757 OFFCURVE",
"740 716 CURVE SMOOTH",
"740 682 OFFCURVE",
"729 654 OFFCURVE",
"692 630 CURVE",
"625 688 OFFCURVE",
"531 712 OFFCURVE",
"427 712 CURVE SMOOTH",
"222 712 OFFCURVE",
"56 620 OFFCURVE",
"56 350 CURVE SMOOTH",
"56 80 OFFCURVE",
"221 -12 OFFCURVE",
"427 -12 CURVE SMOOTH",
"633 -12 OFFCURVE",
"798 80 OFFCURVE",
"798 350 CURVE SMOOTH",
"798 468 OFFCURVE",
"766 552 OFFCURVE",
"713 609 CURVE",
"779 637 OFFCURVE",
"838 678 OFFCURVE",
"838 736 CURVE SMOOTH",
"838 796 OFFCURVE",
"772 813 OFFCURVE",
"692 813 CURVE"
);
},
{
closed = 1;
nodes = (
"304 17 OFFCURVE",
"277 112 OFFCURVE",
"277 350 CURVE SMOOTH",
"277 588 OFFCURVE",
"304 683 OFFCURVE",
"427 683 CURVE SMOOTH",
"550 683 OFFCURVE",
"577 588 OFFCURVE",
"577 350 CURVE SMOOTH",
"577 112 OFFCURVE",
"550 17 OFFCURVE",
"427 17 CURVE SMOOTH"
);
},
{
closed = 1;
nodes = (
"475 -208 OFFCURVE",
"510 -182 OFFCURVE",
"510 -133 CURVE SMOOTH",
"510 -84 OFFCURVE",
"475 -58 OFFCURVE",
"427 -58 CURVE SMOOTH",
"379 -58 OFFCURVE",
"344 -84 OFFCURVE",
"344 -133 CURVE SMOOTH",
"344 -182 OFFCURVE",
"379 -208 OFFCURVE",
"427 -208 CURVE SMOOTH"
);
}
);
width = 858;
}
);
unicode = 1EE2;
},
{
glyphname = Ohorngrave;
layers = (
{
layerId = "0EFCFE59-F23A-4210-A5A1-DE9F39E2245D";
name = Regular;
paths = (
{
closed = 1;
nodes = (
"672 783 LINE",
"716 774 OFFCURVE",
"740 757 OFFCURVE",
"740 716 CURVE SMOOTH",
"740 682 OFFCURVE",
"729 654 OFFCURVE",
"692 630 CURVE",
"625 688 OFFCURVE",
"531 712 OFFCURVE",
"427 712 CURVE SMOOTH",
"222 712 OFFCURVE",
"56 620 OFFCURVE",
"56 350 CURVE SMOOTH",
"56 80 OFFCURVE",
"221 -12 OFFCURVE",
"427 -12 CURVE SMOOTH",
"633 -12 OFFCURVE",
"798 80 OFFCURVE",
"798 350 CURVE SMOOTH",
"798 468 OFFCURVE",
"766 552 OFFCURVE",
"713 609 CURVE",
"779 637 OFFCURVE",
"838 678 OFFCURVE",
"838 736 CURVE SMOOTH",
"838 796 OFFCURVE",
"772 813 OFFCURVE",
"692 813 CURVE"
);
},
{
closed = 1;
nodes = (
"304 17 OFFCURVE",
"277 112 OFFCURVE",
"277 350 CURVE SMOOTH",
"277 588 OFFCURVE",
"304 683 OFFCURVE",
"427 683 CURVE SMOOTH",
"550 683 OFFCURVE",
"577 588 OFFCURVE",
"577 350 CURVE SMOOTH",
"577 112 OFFCURVE",
"550 17 OFFCURVE",
"427 17 CURVE SMOOTH"
);
},
{
closed = 1;
nodes = (
"279 898 OFFCURVE",
"254 863 OFFCURVE",
"253 825 CURVE",
"314 797 OFFCURVE",
"418 770 OFFCURVE",
"479 760 CURVE",
"484 771 LINE",
"429 813 OFFCURVE",
"352 867 OFFCURVE",
"309 912 CURVE"
);
}
);
width = 858;
}
);
unicode = 1EDC;
},
{
glyphname = Ohornhookabove;
layers = (
{
layerId = "0EFCFE59-F23A-4210-A5A1-DE9F39E2245D";
name = Regular;
paths = (
{
closed = 1;
nodes = (
"672 783 LINE",
"716 774 OFFCURVE",
"740 757 OFFCURVE",
"740 716 CURVE SMOOTH",
"740 682 OFFCURVE",
"729 654 OFFCURVE",
"692 630 CURVE",
"625 688 OFFCURVE",
"531 712 OFFCURVE",
"427 712 CURVE SMOOTH",
"222 712 OFFCURVE",
"56 620 OFFCURVE",
"56 350 CURVE SMOOTH",
"56 80 OFFCURVE",
"221 -12 OFFCURVE",
"427 -12 CURVE SMOOTH",
"633 -12 OFFCURVE",
"798 80 OFFCURVE",
"798 350 CURVE SMOOTH",
"798 468 OFFCURVE",
"766 552 OFFCURVE",
"713 609 CURVE",
"779 637 OFFCURVE",
"838 678 OFFCURVE",
"838 736 CURVE SMOOTH",
"838 796 OFFCURVE",
"772 813 OFFCURVE",
"692 813 CURVE"
);
},
{
closed = 1;
nodes = (
"304 17 OFFCURVE",
"277 112 OFFCURVE",
"277 350 CURVE SMOOTH",
"277 588 OFFCURVE",
"304 683 OFFCURVE",
"427 683 CURVE SMOOTH",
"550 683 OFFCURVE",
"577 588 OFFCURVE",
"577 350 CURVE SMOOTH",
"577 112 OFFCURVE",
"550 17 OFFCURVE",
"427 17 CURVE SMOOTH"
);
},
{
closed = 1;
nodes = (
"452 794 LINE",
"512 808 OFFCURVE",
"554 833 OFFCURVE",
"554 881 CURVE SMOOTH",
"554 932 OFFCURVE",
"512 951 OFFCURVE",
"459 951 CURVE SMOOTH",
"404 951 OFFCURVE",
"367 936 OFFCURVE",
"344 925 CURVE",
"351 905 LINE",
"373 914 OFFCURVE",
"389 919 OFFCURVE",
"417 919 CURVE SMOOTH",
"442 919 OFFCURVE",
"456 908 OFFCURVE",
"456 883 CURVE SMOOTH",
"456 849 OFFCURVE",
"443 827 OFFCURVE",
"414 809 CURVE",
"420 760 LINE",
"448 760 LINE"
);
}
);
width = 858;
}
);
unicode = 1EDE;
},
{
glyphname = Ohorntilde;
layers = (
{
layerId = "0EFCFE59-F23A-4210-A5A1-DE9F39E2245D";
name = Regular;
paths = (
{
closed = 1;
nodes = (
"672 783 LINE",
"716 774 OFFCURVE",
"740 757 OFFCURVE",
"740 716 CURVE SMOOTH",
"740 682 OFFCURVE",
"729 654 OFFCURVE",
"692 630 CURVE",
"625 688 OFFCURVE",
"531 712 OFFCURVE",
"427 712 CURVE SMOOTH",
"222 712 OFFCURVE",
"56 620 OFFCURVE",
"56 350 CURVE SMOOTH",
"56 80 OFFCURVE",
"221 -12 OFFCURVE",
"427 -12 CURVE SMOOTH",
"633 -12 OFFCURVE",
"798 80 OFFCURVE",
"798 350 CURVE SMOOTH",
"798 468 OFFCURVE",
"766 552 OFFCURVE",
"713 609 CURVE",
"779 637 OFFCURVE",
"838 678 OFFCURVE",
"838 736 CURVE SMOOTH",
"838 796 OFFCURVE",
"772 813 OFFCURVE",
"692 813 CURVE"
);
},
{
closed = 1;
nodes = (
"304 17 OFFCURVE",
"277 112 OFFCURVE",
"277 350 CURVE SMOOTH",
"277 588 OFFCURVE",
"304 683 OFFCURVE",
"427 683 CURVE SMOOTH",
"550 683 OFFCURVE",
"577 588 OFFCURVE",
"577 350 CURVE SMOOTH",
"577 112 OFFCURVE",
"550 17 OFFCURVE",
"427 17 CURVE SMOOTH"
);
},
{
closed = 1;
nodes = (
"571 758 OFFCURVE",
"597 833 OFFCURVE",
"616 883 CURVE",
"604 888 LINE",
"580 858 LINE",
"567 840 OFFCURVE",
"540 834 OFFCURVE",
"516 843 CURVE SMOOTH",
"420 881 OFFCURVE",
"372 902 OFFCURVE",
"342 902 CURVE SMOOTH",
"283 902 OFFCURVE",
"257 827 OFFCURVE",
"238 777 CURVE",
"250 772 LINE",
"274 802 LINE",
"287 820 OFFCURVE",
"314 826 OFFCURVE",
"338 817 CURVE SMOOTH",
"434 779 OFFCURVE",
"482 758 OFFCURVE",
"512 758 CURVE SMOOTH"
);
}
);
width = 858;
}
);
unicode = 1EE0;
},
{
glyphname = Ohungarumlaut;
layers = (
{
layerId = "0EFCFE59-F23A-4210-A5A1-DE9F39E2245D";
name = Regular;
paths = (
{
closed = 1;
nodes = (
"222 712 OFFCURVE",
"56 620 OFFCURVE",
"56 350 CURVE SMOOTH",
"56 80 OFFCURVE",
"221 -12 OFFCURVE",
"427 -12 CURVE SMOOTH",
"633 -12 OFFCURVE",
"798 80 OFFCURVE",
"798 350 CURVE SMOOTH",
"798 620 OFFCURVE",
"633 712 OFFCURVE",
"427 712 CURVE SMOOTH"
);
},
{
closed = 1;
nodes = (
"304 17 OFFCURVE",
"277 112 OFFCURVE",
"277 350 CURVE SMOOTH",
"277 588 OFFCURVE",
"304 683 OFFCURVE",
"427 683 CURVE SMOOTH",
"550 683 OFFCURVE",
"577 588 OFFCURVE",
"577 350 CURVE SMOOTH",
"577 112 OFFCURVE",
"550 17 OFFCURVE",
"427 17 CURVE SMOOTH"
);
},
{
closed = 1;
nodes = (
"395 906 OFFCURVE",
"344 842 OFFCURVE",
"302 787 CURVE",
"310 778 LINE",
"366 803 OFFCURVE",
"451 849 OFFCURVE",
"507 892 CURVE",
"496 928 OFFCURVE",
"463 955 OFFCURVE",
"430 961 CURVE"
);
},
{
closed = 1;
nodes = (
"600 906 OFFCURVE",
"549 842 OFFCURVE",
"507 787 CURVE",
"515 778 LINE",
"571 803 OFFCURVE",
"656 849 OFFCURVE",
"712 892 CURVE",
"701 928 OFFCURVE",
"668 955 OFFCURVE",
"635 961 CURVE"
);
}
);
width = 854;
}
);
unicode = 0150;
},
{
glyphname = Omacron;
layers = (
{
layerId = "0EFCFE59-F23A-4210-A5A1-DE9F39E2245D";
name = Regular;
paths = (
{
closed = 1;
nodes = (
"222 712 OFFCURVE",
"56 620 OFFCURVE",
"56 350 CURVE SMOOTH",
"56 80 OFFCURVE",
"221 -12 OFFCURVE",
"427 -12 CURVE SMOOTH",
"633 -12 OFFCURVE",
"798 80 OFFCURVE",
"798 350 CURVE SMOOTH",
"798 620 OFFCURVE",
"633 712 OFFCURVE",
"427 712 CURVE SMOOTH"
);
},
{
closed = 1;
nodes = (
"304 17 OFFCURVE",
"277 112 OFFCURVE",
"277 350 CURVE SMOOTH",
"277 588 OFFCURVE",
"304 683 OFFCURVE",
"427 683 CURVE SMOOTH",
"550 683 OFFCURVE",
"577 588 OFFCURVE",
"577 350 CURVE SMOOTH",
"577 112 OFFCURVE",
"550 17 OFFCURVE",
"427 17 CURVE SMOOTH"
);
},
{
closed = 1;
nodes = (
"237 778 LINE",
"617 778 LINE",
"617 802 LINE",
"237 802 LINE"
);
}
);
width = 854;
}
);
unicode = 014C;
},
{
glyphname = Oslash;
layers = (
{
layerId = "0EFCFE59-F23A-4210-A5A1-DE9F39E2245D";
name = Regular;
paths = (
{
closed = 1;
nodes = (
"222 712 OFFCURVE",
"56 620 OFFCURVE",
"56 350 CURVE SMOOTH",
"56 182 OFFCURVE",
"120 83 OFFCURVE",
"218 32 CURVE",
"176 -38 LINE",
"201 -53 LINE",
"244 19 LINE",
"298 -2 OFFCURVE",
"360 -12 OFFCURVE",
"427 -12 CURVE SMOOTH",
"633 -12 OFFCURVE",
"798 80 OFFCURVE",
"798 350 CURVE SMOOTH",
"798 518 OFFCURVE",
"734 617 OFFCURVE",
"636 668 CURVE",
"678 738 LINE",
"653 753 LINE",
"609 680 LINE",
"555 702 OFFCURVE",
"493 712 OFFCURVE",
"427 712 CURVE SMOOTH"
);
},
{
closed = 1;
nodes = (
"359 17 OFFCURVE",
"320 45 OFFCURVE",
"299 111 CURVE",
"564 549 LINE",
"573 498 OFFCURVE",
"577 433 OFFCURVE",
"577 350 CURVE SMOOTH",
"577 112 OFFCURVE",
"550 17 OFFCURVE",
"427 17 CURVE SMOOTH"
);
},
{
closed = 1;
nodes = (
"277 588 OFFCURVE",
"304 683 OFFCURVE",
"427 683 CURVE SMOOTH",
"494 683 OFFCURVE",
"533 654 OFFCURVE",
"554 589 CURVE",
"290 151 LINE",
"280 201 OFFCURVE",
"277 267 OFFCURVE",
"277 350 CURVE SMOOTH"
);
}
);
width = 854;
}
);
unicode = 00D8;
},
{
glyphname = Oslashacute;
layers = (
{
layerId = "0EFCFE59-F23A-4210-A5A1-DE9F39E2245D";
name = Regular;
paths = (
{
closed = 1;
nodes = (
"222 712 OFFCURVE",
"56 620 OFFCURVE",
"56 350 CURVE SMOOTH",
"56 182 OFFCURVE",
"120 83 OFFCURVE",
"218 32 CURVE",
"176 -38 LINE",
"201 -53 LINE",
"244 19 LINE",
"298 -2 OFFCURVE",
"360 -12 OFFCURVE",
"427 -12 CURVE SMOOTH",
"633 -12 OFFCURVE",
"798 80 OFFCURVE",
"798 350 CURVE SMOOTH",
"798 518 OFFCURVE",
"734 617 OFFCURVE",
"636 668 CURVE",
"678 738 LINE",
"653 753 LINE",
"609 680 LINE",
"555 702 OFFCURVE",
"493 712 OFFCURVE",
"427 712 CURVE SMOOTH"
);
},
{
closed = 1;
nodes = (
"359 17 OFFCURVE",
"320 45 OFFCURVE",
"299 111 CURVE",
"564 549 LINE",
"573 498 OFFCURVE",
"577 433 OFFCURVE",
"577 350 CURVE SMOOTH",
"577 112 OFFCURVE",
"550 17 OFFCURVE",
"427 17 CURVE SMOOTH"
);
},
{
closed = 1;
nodes = (
"277 588 OFFCURVE",
"304 683 OFFCURVE",
"427 683 CURVE SMOOTH",
"494 683 OFFCURVE",
"533 654 OFFCURVE",
"554 589 CURVE",
"290 151 LINE",
"280 201 OFFCURVE",
"277 267 OFFCURVE",
"277 350 CURVE SMOOTH"
);
},
{
closed = 1;
nodes = (
"502 867 OFFCURVE",
"425 813 OFFCURVE",
"370 771 CURVE",
"375 760 LINE",
"436 770 OFFCURVE",
"540 797 OFFCURVE",
"601 825 CURVE",
"600 863 OFFCURVE",
"575 898 OFFCURVE",
"545 912 CURVE"
);
}
);
width = 854;
}
);
unicode = 01FE;
},
{
glyphname = Otilde;
layers = (
{
layerId = "0EFCFE59-F23A-4210-A5A1-DE9F39E2245D";
name = Regular;
paths = (
{
closed = 1;
nodes = (
"222 712 OFFCURVE",
"56 620 OFFCURVE",
"56 350 CURVE SMOOTH",
"56 80 OFFCURVE",
"221 -12 OFFCURVE",
"427 -12 CURVE SMOOTH",
"633 -12 OFFCURVE",
"798 80 OFFCURVE",
"798 350 CURVE SMOOTH",
"798 620 OFFCURVE",
"633 712 OFFCURVE",
"427 712 CURVE SMOOTH"
);
},
{
closed = 1;
nodes = (
"304 17 OFFCURVE",
"277 112 OFFCURVE",
"277 350 CURVE SMOOTH",
"277 588 OFFCURVE",
"304 683 OFFCURVE",
"427 683 CURVE SMOOTH",
"550 683 OFFCURVE",
"577 588 OFFCURVE",
"577 350 CURVE SMOOTH",
"577 112 OFFCURVE",
"550 17 OFFCURVE",
"427 17 CURVE SMOOTH"
);
},
{
closed = 1;
nodes = (
"571 758 OFFCURVE",
"597 833 OFFCURVE",
"616 883 CURVE",
"604 888 LINE",
"580 858 LINE",
"567 840 OFFCURVE",
"540 834 OFFCURVE",
"516 843 CURVE SMOOTH",
"420 881 OFFCURVE",
"372 902 OFFCURVE",
"342 902 CURVE SMOOTH",
"283 902 OFFCURVE",
"257 827 OFFCURVE",
"238 777 CURVE",
"250 772 LINE",
"274 802 LINE",
"287 820 OFFCURVE",
"314 826 OFFCURVE",
"338 817 CURVE SMOOTH",
"434 779 OFFCURVE",
"482 758 OFFCURVE",
"512 758 CURVE SMOOTH"
);
}
);
width = 854;
}
);
unicode = 00D5;
},
{
glyphname = OE;
layers = (
{
layerId = "0EFCFE59-F23A-4210-A5A1-DE9F39E2245D";
name = Regular;
paths = (
{
closed = 1;
nodes = (
"1102 0 LINE",
"1102 199 LINE",
"1074 199 LINE",
"1035 87 OFFCURVE",
"1012 30 OFFCURVE",
"889 30 CURVE SMOOTH",
"769 30 LINE",
"769 343 LINE",
"995 343 LINE",
"995 373 LINE",
"769 373 LINE",
"769 670 LINE",
"879 670 LINE SMOOTH",
"1002 670 OFFCURVE",
"1022 617 OFFCURVE",
"1061 505 CURVE",
"1088 505 LINE",
"1088 700 LINE",
"486 700 LINE SMOOTH",
"226 700 OFFCURVE",
"56 620 OFFCURVE",
"56 350 CURVE SMOOTH",
"56 80 OFFCURVE",
"226 0 OFFCURVE",
"486 0 CURVE SMOOTH"
);
},
{
closed = 1;
nodes = (
"277 592 OFFCURVE",
"321 670 OFFCURVE",
"486 670 CURVE SMOOTH",
"546 670 LINE SMOOTH",
"559 670 OFFCURVE",
"565 663 OFFCURVE",
"565 650 CURVE SMOOTH",
"565 50 LINE SMOOTH",
"565 37 OFFCURVE",
"559 30 OFFCURVE",
"546 30 CURVE SMOOTH",
"486 30 LINE SMOOTH",
"321 30 OFFCURVE",
"277 108 OFFCURVE",
"277 350 CURVE SMOOTH"
);
}
);
width = 1166;
}
);
unicode = 0152;
},
{
glyphname = P;
layers = (
{
layerId = "0EFCFE59-F23A-4210-A5A1-DE9F39E2245D";
name = Regular;
paths = (
{
closed = 1;
nodes = (
"692 651 OFFCURVE",
"580 700 OFFCURVE",
"317 700 CURVE SMOOTH",
"26 700 LINE",
"26 680 LINE",
"63 672 LINE SMOOTH",
"82 668 OFFCURVE",
"87 666 OFFCURVE",
"87 650 CURVE SMOOTH",
"87 50 LINE SMOOTH",
"87 34 OFFCURVE",
"82 32 OFFCURVE",
"63 28 CURVE SMOOTH",
"26 20 LINE",
"26 0 LINE",
"358 0 LINE",
"358 20 LINE",
"315 29 LINE SMOOTH",
"296 33 OFFCURVE",
"291 35 OFFCURVE",
"291 51 CURVE SMOOTH",
"291 278 LINE",
"317 278 LINE SMOOTH",
"580 278 OFFCURVE",
"692 327 OFFCURVE",
"692 489 CURVE SMOOTH"
);
},
{
closed = 1;
nodes = (
"326 670 LINE SMOOTH",
"443 670 OFFCURVE",
"482 620 OFFCURVE",
"482 489 CURVE SMOOTH",
"482 358 OFFCURVE",
"443 308 OFFCURVE",
"326 308 CURVE SMOOTH",
"291 308 LINE",
"291 670 LINE"
);
}
);
width = 740;
}
);
unicode = 0050;
},
{
glyphname = Thorn;
layers = (
{
layerId = "0EFCFE59-F23A-4210-A5A1-DE9F39E2245D";
name = Regular;
paths = (
{
closed = 1;
nodes = (
"291 649 LINE SMOOTH",
"291 665 OFFCURVE",
"296 667 OFFCURVE",
"315 671 CURVE SMOOTH",
"358 680 LINE",
"358 700 LINE",
"26 700 LINE",
"26 680 LINE",
"63 672 LINE SMOOTH",
"82 668 OFFCURVE",
"87 666 OFFCURVE",
"87 650 CURVE SMOOTH",
"87 50 LINE SMOOTH",
"87 34 OFFCURVE",
"82 32 OFFCURVE",
"63 28 CURVE SMOOTH",
"26 20 LINE",
"26 0 LINE",
"358 0 LINE",
"358 20 LINE",
"315 29 LINE SMOOTH",
"296 33 OFFCURVE",
"291 35 OFFCURVE",
"291 51 CURVE SMOOTH",
"291 162 LINE",
"313 162 LINE SMOOTH",
"576 162 OFFCURVE",
"686 205 OFFCURVE",
"686 359 CURVE SMOOTH",
"686 513 OFFCURVE",
"576 556 OFFCURVE",
"313 556 CURVE SMOOTH",
"291 556 LINE"
);
},
{
closed = 1;
nodes = (
"476 236 OFFCURVE",
"439 192 OFFCURVE",
"322 192 CURVE SMOOTH",
"291 192 LINE",
"291 526 LINE",
"322 526 LINE SMOOTH",
"439 526 OFFCURVE",
"476 482 OFFCURVE",
"476 359 CURVE SMOOTH"
);
}
);
width = 736;
}
);
unicode = 00DE;
},
{
glyphname = Q;
layers = (
{
layerId = "0EFCFE59-F23A-4210-A5A1-DE9F39E2245D";
name = Regular;
paths = (
{
closed = 1;
nodes = (
"222 712 OFFCURVE",
"56 624 OFFCURVE",
"56 354 CURVE SMOOTH",
"56 84 OFFCURVE",
"221 -4 OFFCURVE",
"427 -4 CURVE SMOOTH",
"633 -4 OFFCURVE",
"798 84 OFFCURVE",
"798 354 CURVE SMOOTH",
"798 624 OFFCURVE",
"633 712 OFFCURVE",
"427 712 CURVE SMOOTH"
);
},
{
closed = 1;
nodes = (
"304 25 OFFCURVE",
"277 116 OFFCURVE",
"277 354 CURVE SMOOTH",
"277 592 OFFCURVE",
"304 683 OFFCURVE",
"427 683 CURVE SMOOTH",
"550 683 OFFCURVE",
"577 592 OFFCURVE",
"577 354 CURVE SMOOTH",
"577 116 OFFCURVE",
"550 25 OFFCURVE",
"427 25 CURVE SMOOTH"
);
},
{
closed = 1;
nodes = (
"647 -225 OFFCURVE",
"680 -165 OFFCURVE",
"706 -63 CURVE",
"684 -58 LINE",
"676 -69 LINE SMOOTH",
"662 -88 OFFCURVE",
"651 -100 OFFCURVE",
"626 -100 CURVE SMOOTH",
"525 -100 OFFCURVE",
"404 -40 OFFCURVE",
"319 -40 CURVE SMOOTH",
"272 -40 OFFCURVE",
"241 -64 OFFCURVE",
"222 -90 CURVE",
"222 -102 LINE",
"393 -108 OFFCURVE",
"461 -225 OFFCURVE",
"581 -225 CURVE SMOOTH"
);
}
);
width = 856;
}
);
unicode = 0051;
},
{
glyphname = R;
layers = (
{
layerId = "0EFCFE59-F23A-4210-A5A1-DE9F39E2245D";
name = Regular;
paths = (
{
closed = 1;
nodes = (
"460 156 LINE SMOOTH",
"482 24 OFFCURVE",
"527 -10 OFFCURVE",
"651 -10 CURVE SMOOTH",
"747 -10 OFFCURVE",
"772 25 OFFCURVE",
"786 55 CURVE",
"765 73 LINE",
"755 51 OFFCURVE",
"742 36 OFFCURVE",
"723 36 CURVE SMOOTH",
"695 36 OFFCURVE",
"693 57 OFFCURVE",
"681 125 CURVE SMOOTH",
"670 185 LINE SMOOTH",
"649 298 OFFCURVE",
"604 334 OFFCURVE",
"489 341 CURVE",
"627 361 OFFCURVE",
"684 413 OFFCURVE",
"684 516 CURVE SMOOTH",
"684 653 OFFCURVE",
"583 700 OFFCURVE",
"320 700 CURVE SMOOTH",
"26 700 LINE",
"26 680 LINE",
"63 672 LINE SMOOTH",
"82 668 OFFCURVE",
"87 666 OFFCURVE",
"87 650 CURVE SMOOTH",
"87 50 LINE SMOOTH",
"87 34 OFFCURVE",
"82 32 OFFCURVE",
"63 28 CURVE SMOOTH",
"26 20 LINE",
"26 0 LINE",
"358 0 LINE",
"358 20 LINE",
"315 29 LINE SMOOTH",
"296 33 OFFCURVE",
"291 35 OFFCURVE",
"291 51 CURVE SMOOTH",
"291 332 LINE",
"320 332 LINE SMOOTH",
"420 332 OFFCURVE",
"432 323 OFFCURVE",
"448 231 CURVE SMOOTH"
);
},
{
closed = 1;
nodes = (
"329 670 LINE SMOOTH",
"446 670 OFFCURVE",
"474 622 OFFCURVE",
"474 516 CURVE SMOOTH",
"474 410 OFFCURVE",
"446 362 OFFCURVE",
"329 362 CURVE SMOOTH",
"291 362 LINE",
"291 670 LINE"
);
}
);
width = 796;
}
);
unicode = 0052;
},
{
glyphname = Racute;
layers = (
{
layerId = "0EFCFE59-F23A-4210-A5A1-DE9F39E2245D";
name = Regular;
paths = (
{
closed = 1;
nodes = (
"460 156 LINE SMOOTH",
"482 24 OFFCURVE",
"527 -10 OFFCURVE",
"651 -10 CURVE SMOOTH",
"747 -10 OFFCURVE",
"772 25 OFFCURVE",
"786 55 CURVE",
"765 73 LINE",
"755 51 OFFCURVE",
"742 36 OFFCURVE",
"723 36 CURVE SMOOTH",
"695 36 OFFCURVE",
"693 57 OFFCURVE",
"681 125 CURVE SMOOTH",
"670 185 LINE SMOOTH",
"649 298 OFFCURVE",
"604 334 OFFCURVE",
"489 341 CURVE",
"627 361 OFFCURVE",
"684 413 OFFCURVE",
"684 516 CURVE SMOOTH",
"684 653 OFFCURVE",
"583 700 OFFCURVE",
"320 700 CURVE SMOOTH",
"26 700 LINE",
"26 680 LINE",
"63 672 LINE SMOOTH",
"82 668 OFFCURVE",
"87 666 OFFCURVE",
"87 650 CURVE SMOOTH",
"87 50 LINE SMOOTH",
"87 34 OFFCURVE",
"82 32 OFFCURVE",
"63 28 CURVE SMOOTH",
"26 20 LINE",
"26 0 LINE",
"358 0 LINE",
"358 20 LINE",
"315 29 LINE SMOOTH",
"296 33 OFFCURVE",
"291 35 OFFCURVE",
"291 51 CURVE SMOOTH",
"291 332 LINE",
"320 332 LINE SMOOTH",
"420 332 OFFCURVE",
"432 323 OFFCURVE",
"448 231 CURVE SMOOTH"
);
},
{
closed = 1;
nodes = (
"329 670 LINE SMOOTH",
"446 670 OFFCURVE",
"474 622 OFFCURVE",
"474 516 CURVE SMOOTH",
"474 410 OFFCURVE",
"446 362 OFFCURVE",
"329 362 CURVE SMOOTH",
"291 362 LINE",
"291 670 LINE"
);
},
{
closed = 1;
nodes = (
"454 867 OFFCURVE",
"377 813 OFFCURVE",
"322 771 CURVE",
"327 760 LINE",
"388 770 OFFCURVE",
"492 797 OFFCURVE",
"553 825 CURVE",
"552 863 OFFCURVE",
"527 898 OFFCURVE",
"497 912 CURVE"
);
}
);
width = 796;
}
);
unicode = 0154;
},
{
glyphname = Rcaron;
layers = (
{
layerId = "0EFCFE59-F23A-4210-A5A1-DE9F39E2245D";
name = Regular;
paths = (
{
closed = 1;
nodes = (
"460 156 LINE SMOOTH",
"482 24 OFFCURVE",
"527 -10 OFFCURVE",
"651 -10 CURVE SMOOTH",
"747 -10 OFFCURVE",
"772 25 OFFCURVE",
"786 55 CURVE",
"765 73 LINE",
"755 51 OFFCURVE",
"742 36 OFFCURVE",
"723 36 CURVE SMOOTH",
"695 36 OFFCURVE",
"693 57 OFFCURVE",
"681 125 CURVE SMOOTH",
"670 185 LINE SMOOTH",
"649 298 OFFCURVE",
"604 334 OFFCURVE",
"489 341 CURVE",
"627 361 OFFCURVE",
"684 413 OFFCURVE",
"684 516 CURVE SMOOTH",
"684 653 OFFCURVE",
"583 700 OFFCURVE",
"320 700 CURVE SMOOTH",
"26 700 LINE",
"26 680 LINE",
"63 672 LINE SMOOTH",
"82 668 OFFCURVE",
"87 666 OFFCURVE",
"87 650 CURVE SMOOTH",
"87 50 LINE SMOOTH",
"87 34 OFFCURVE",
"82 32 OFFCURVE",
"63 28 CURVE SMOOTH",
"26 20 LINE",
"26 0 LINE",
"358 0 LINE",
"358 20 LINE",
"315 29 LINE SMOOTH",
"296 33 OFFCURVE",
"291 35 OFFCURVE",
"291 51 CURVE SMOOTH",
"291 332 LINE",
"320 332 LINE SMOOTH",
"420 332 OFFCURVE",
"432 323 OFFCURVE",
"448 231 CURVE SMOOTH"
);
},
{
closed = 1;
nodes = (
"329 670 LINE SMOOTH",
"446 670 OFFCURVE",
"474 622 OFFCURVE",
"474 516 CURVE SMOOTH",
"474 410 OFFCURVE",
"446 362 OFFCURVE",
"329 362 CURVE SMOOTH",
"291 362 LINE",
"291 670 LINE"
);
},
{
closed = 1;
nodes = (
"424 760 LINE",
"463 809 OFFCURVE",
"509 856 OFFCURVE",
"558 897 CURVE",
"547 912 LINE",
"497 895 OFFCURVE",
"448 872 OFFCURVE",
"398 843 CURVE",
"348 872 OFFCURVE",
"299 895 OFFCURVE",
"249 912 CURVE",
"238 897 LINE",
"288 856 OFFCURVE",
"333 809 OFFCURVE",
"372 760 CURVE"
);
}
);
width = 796;
}
);
unicode = 0158;
},
{
glyphname = Rcommaaccent;
layers = (
{
layerId = "0EFCFE59-F23A-4210-A5A1-DE9F39E2245D";
name = Regular;
paths = (
{
closed = 1;
nodes = (
"460 156 LINE SMOOTH",
"482 24 OFFCURVE",
"527 -10 OFFCURVE",
"651 -10 CURVE SMOOTH",
"747 -10 OFFCURVE",
"772 25 OFFCURVE",
"786 55 CURVE",
"765 73 LINE",
"755 51 OFFCURVE",
"742 36 OFFCURVE",
"723 36 CURVE SMOOTH",
"695 36 OFFCURVE",
"693 57 OFFCURVE",
"681 125 CURVE SMOOTH",
"670 185 LINE SMOOTH",
"649 298 OFFCURVE",
"604 334 OFFCURVE",
"489 341 CURVE",
"627 361 OFFCURVE",
"684 413 OFFCURVE",
"684 516 CURVE SMOOTH",
"684 653 OFFCURVE",
"583 700 OFFCURVE",
"320 700 CURVE SMOOTH",
"26 700 LINE",
"26 680 LINE",
"63 672 LINE SMOOTH",
"82 668 OFFCURVE",
"87 666 OFFCURVE",
"87 650 CURVE SMOOTH",
"87 50 LINE SMOOTH",
"87 34 OFFCURVE",
"82 32 OFFCURVE",
"63 28 CURVE SMOOTH",
"26 20 LINE",
"26 0 LINE",
"358 0 LINE",
"358 20 LINE",
"315 29 LINE SMOOTH",
"296 33 OFFCURVE",
"291 35 OFFCURVE",
"291 51 CURVE SMOOTH",
"291 332 LINE",
"320 332 LINE SMOOTH",
"420 332 OFFCURVE",
"432 323 OFFCURVE",
"448 231 CURVE SMOOTH"
);
},
{
closed = 1;
nodes = (
"329 670 LINE SMOOTH",
"446 670 OFFCURVE",
"474 622 OFFCURVE",
"474 516 CURVE SMOOTH",
"474 410 OFFCURVE",
"446 362 OFFCURVE",
"329 362 CURVE SMOOTH",
"291 362 LINE",
"291 670 LINE"
);
},
{
closed = 1;
nodes = (
"424 -251 OFFCURVE",
"411 -280 OFFCURVE",
"366 -326 CURVE",
"384 -343 LINE",
"446 -295 OFFCURVE",
"498 -220 OFFCURVE",
"498 -142 CURVE SMOOTH",
"498 -86 OFFCURVE",
"464 -58 OFFCURVE",
"414 -58 CURVE SMOOTH",
"362 -58 OFFCURVE",
"334 -93 OFFCURVE",
"334 -134 CURVE SMOOTH",
"334 -176 OFFCURVE",
"361 -213 OFFCURVE",
"425 -206 CURVE"
);
}
);
width = 796;
}
);
unicode = 0156;
},
{
glyphname = Rdotbelow;
layers = (
{
layerId = "0EFCFE59-F23A-4210-A5A1-DE9F39E2245D";
name = Regular;
paths = (
{
closed = 1;
nodes = (
"460 156 LINE SMOOTH",
"482 24 OFFCURVE",
"527 -10 OFFCURVE",
"651 -10 CURVE SMOOTH",
"747 -10 OFFCURVE",
"772 25 OFFCURVE",
"786 55 CURVE",
"765 73 LINE",
"755 51 OFFCURVE",
"742 36 OFFCURVE",
"723 36 CURVE SMOOTH",
"695 36 OFFCURVE",
"693 57 OFFCURVE",
"681 125 CURVE SMOOTH",
"670 185 LINE SMOOTH",
"649 298 OFFCURVE",
"604 334 OFFCURVE",
"489 341 CURVE",
"627 361 OFFCURVE",
"684 413 OFFCURVE",
"684 516 CURVE SMOOTH",
"684 653 OFFCURVE",
"583 700 OFFCURVE",
"320 700 CURVE SMOOTH",
"26 700 LINE",
"26 680 LINE",
"63 672 LINE SMOOTH",
"82 668 OFFCURVE",
"87 666 OFFCURVE",
"87 650 CURVE SMOOTH",
"87 50 LINE SMOOTH",
"87 34 OFFCURVE",
"82 32 OFFCURVE",
"63 28 CURVE SMOOTH",
"26 20 LINE",
"26 0 LINE",
"358 0 LINE",
"358 20 LINE",
"315 29 LINE SMOOTH",
"296 33 OFFCURVE",
"291 35 OFFCURVE",
"291 51 CURVE SMOOTH",
"291 332 LINE",
"320 332 LINE SMOOTH",
"420 332 OFFCURVE",
"432 323 OFFCURVE",
"448 231 CURVE SMOOTH"
);
},
{
closed = 1;
nodes = (
"329 670 LINE SMOOTH",
"446 670 OFFCURVE",
"474 622 OFFCURVE",
"474 516 CURVE SMOOTH",
"474 410 OFFCURVE",
"446 362 OFFCURVE",
"329 362 CURVE SMOOTH",
"291 362 LINE",
"291 670 LINE"
);
},
{
closed = 1;
nodes = (
"452 -208 OFFCURVE",
"487 -182 OFFCURVE",
"487 -133 CURVE SMOOTH",
"487 -84 OFFCURVE",
"452 -58 OFFCURVE",
"404 -58 CURVE SMOOTH",
"356 -58 OFFCURVE",
"321 -84 OFFCURVE",
"321 -133 CURVE SMOOTH",
"321 -182 OFFCURVE",
"356 -208 OFFCURVE",
"404 -208 CURVE SMOOTH"
);
}
);
width = 796;
}
);
unicode = 1E5A;
},
{
glyphname = Rdotbelowmacron;
layers = (
{
layerId = "0EFCFE59-F23A-4210-A5A1-DE9F39E2245D";
name = Regular;
paths = (
{
closed = 1;
nodes = (
"460 156 LINE SMOOTH",
"482 24 OFFCURVE",
"527 -10 OFFCURVE",
"651 -10 CURVE SMOOTH",
"747 -10 OFFCURVE",
"772 25 OFFCURVE",
"786 55 CURVE",
"765 73 LINE",
"755 51 OFFCURVE",
"742 36 OFFCURVE",
"723 36 CURVE SMOOTH",
"695 36 OFFCURVE",
"693 57 OFFCURVE",
"681 125 CURVE SMOOTH",
"670 185 LINE SMOOTH",
"649 298 OFFCURVE",
"604 334 OFFCURVE",
"489 341 CURVE",
"627 361 OFFCURVE",
"684 413 OFFCURVE",
"684 516 CURVE SMOOTH",
"684 653 OFFCURVE",
"583 700 OFFCURVE",
"320 700 CURVE SMOOTH",
"26 700 LINE",
"26 680 LINE",
"63 672 LINE SMOOTH",
"82 668 OFFCURVE",
"87 666 OFFCURVE",
"87 650 CURVE SMOOTH",
"87 50 LINE SMOOTH",
"87 34 OFFCURVE",
"82 32 OFFCURVE",
"63 28 CURVE SMOOTH",
"26 20 LINE",
"26 0 LINE",
"358 0 LINE",
"358 20 LINE",
"315 29 LINE SMOOTH",
"296 33 OFFCURVE",
"291 35 OFFCURVE",
"291 51 CURVE SMOOTH",
"291 332 LINE",
"320 332 LINE SMOOTH",
"420 332 OFFCURVE",
"432 323 OFFCURVE",
"448 231 CURVE SMOOTH"
);
},
{
closed = 1;
nodes = (
"329 670 LINE SMOOTH",
"446 670 OFFCURVE",
"474 622 OFFCURVE",
"474 516 CURVE SMOOTH",
"474 410 OFFCURVE",
"446 362 OFFCURVE",
"329 362 CURVE SMOOTH",
"291 362 LINE",
"291 670 LINE"
);
},
{
closed = 1;
nodes = (
"452 -208 OFFCURVE",
"487 -182 OFFCURVE",
"487 -133 CURVE SMOOTH",
"487 -84 OFFCURVE",
"452 -58 OFFCURVE",
"404 -58 CURVE SMOOTH",
"356 -58 OFFCURVE",
"321 -84 OFFCURVE",
"321 -133 CURVE SMOOTH",
"321 -182 OFFCURVE",
"356 -208 OFFCURVE",
"404 -208 CURVE SMOOTH"
);
},
{
closed = 1;
nodes = (
"208 778 LINE",
"588 778 LINE",
"588 802 LINE",
"208 802 LINE"
);
}
);
width = 796;
}
);
unicode = 1E5C;
},
{
glyphname = Rlinebelow;
layers = (
{
layerId = "0EFCFE59-F23A-4210-A5A1-DE9F39E2245D";
name = Regular;
paths = (
{
closed = 1;
nodes = (
"460 156 LINE SMOOTH",
"482 24 OFFCURVE",
"527 -10 OFFCURVE",
"651 -10 CURVE SMOOTH",
"747 -10 OFFCURVE",
"772 25 OFFCURVE",
"786 55 CURVE",
"765 73 LINE",
"755 51 OFFCURVE",
"742 36 OFFCURVE",
"723 36 CURVE SMOOTH",
"695 36 OFFCURVE",
"693 57 OFFCURVE",
"681 125 CURVE SMOOTH",
"670 185 LINE SMOOTH",
"649 298 OFFCURVE",
"604 334 OFFCURVE",
"489 341 CURVE",
"627 361 OFFCURVE",
"684 413 OFFCURVE",
"684 516 CURVE SMOOTH",
"684 653 OFFCURVE",
"583 700 OFFCURVE",
"320 700 CURVE SMOOTH",
"26 700 LINE",
"26 680 LINE",
"63 672 LINE SMOOTH",
"82 668 OFFCURVE",
"87 666 OFFCURVE",
"87 650 CURVE SMOOTH",
"87 50 LINE SMOOTH",
"87 34 OFFCURVE",
"82 32 OFFCURVE",
"63 28 CURVE SMOOTH",
"26 20 LINE",
"26 0 LINE",
"358 0 LINE",
"358 20 LINE",
"315 29 LINE SMOOTH",
"296 33 OFFCURVE",
"291 35 OFFCURVE",
"291 51 CURVE SMOOTH",
"291 332 LINE",
"320 332 LINE SMOOTH",
"420 332 OFFCURVE",
"432 323 OFFCURVE",
"448 231 CURVE SMOOTH"
);
},
{
closed = 1;
nodes = (
"329 670 LINE SMOOTH",
"446 670 OFFCURVE",
"474 622 OFFCURVE",
"474 516 CURVE SMOOTH",
"474 410 OFFCURVE",
"446 362 OFFCURVE",
"329 362 CURVE SMOOTH",
"291 362 LINE",
"291 670 LINE"
);
},
{
closed = 1;
nodes = (
"218 -96 LINE",
"598 -96 LINE",
"598 -72 LINE",
"218 -72 LINE"
);
}
);
width = 796;
}
);
unicode = 1E5E;
},
{
glyphname = S;
layers = (
{
layerId = "0EFCFE59-F23A-4210-A5A1-DE9F39E2245D";
name = Regular;
paths = (
{
closed = 1;
nodes = (
"208 15 OFFCURVE",
"142 52 OFFCURVE",
"115 212 CURVE",
"89 212 LINE",
"62 36 LINE",
"120 8 OFFCURVE",
"239 -12 OFFCURVE",
"320 -12 CURVE SMOOTH",
"533 -12 OFFCURVE",
"624 58 OFFCURVE",
"624 186 CURVE SMOOTH",
"624 323 OFFCURVE",
"540 363 OFFCURVE",
"390 436 CURVE SMOOTH",
"250 503 OFFCURVE",
"200 523 OFFCURVE",
"200 599 CURVE SMOOTH",
"200 664 OFFCURVE",
"256 685 OFFCURVE",
"332 685 CURVE SMOOTH",
"452 685 OFFCURVE",
"486 622 OFFCURVE",
"520 513 CURVE",
"547 513 LINE",
"571 666 LINE",
"520 690 OFFCURVE",
"433 712 OFFCURVE",
"340 712 CURVE SMOOTH",
"138 712 OFFCURVE",
"56 643 OFFCURVE",
"56 519 CURVE SMOOTH",
"56 378 OFFCURVE",
"144 333 OFFCURVE",
"285 271 CURVE SMOOTH",
"405 218 OFFCURVE",
"452 189 OFFCURVE",
"452 112 CURVE SMOOTH",
"452 48 OFFCURVE",
"400 15 OFFCURVE",
"315 15 CURVE SMOOTH"
);
}
);
width = 678;
}
);
unicode = 0053;
},
{
glyphname = Sacute;
layers = (
{
layerId = "0EFCFE59-F23A-4210-A5A1-DE9F39E2245D";
name = Regular;
paths = (
{
closed = 1;
nodes = (
"208 15 OFFCURVE",
"142 52 OFFCURVE",
"115 212 CURVE",
"89 212 LINE",
"62 36 LINE",
"120 8 OFFCURVE",
"239 -12 OFFCURVE",
"320 -12 CURVE SMOOTH",
"533 -12 OFFCURVE",
"624 58 OFFCURVE",
"624 186 CURVE SMOOTH",
"624 323 OFFCURVE",
"540 363 OFFCURVE",
"390 436 CURVE SMOOTH",
"250 503 OFFCURVE",
"200 523 OFFCURVE",
"200 599 CURVE SMOOTH",
"200 664 OFFCURVE",
"256 685 OFFCURVE",
"332 685 CURVE SMOOTH",
"452 685 OFFCURVE",
"486 622 OFFCURVE",
"520 513 CURVE",
"547 513 LINE",
"571 666 LINE",
"520 690 OFFCURVE",
"433 712 OFFCURVE",
"340 712 CURVE SMOOTH",
"138 712 OFFCURVE",
"56 643 OFFCURVE",
"56 519 CURVE SMOOTH",
"56 378 OFFCURVE",
"144 333 OFFCURVE",
"285 271 CURVE SMOOTH",
"405 218 OFFCURVE",
"452 189 OFFCURVE",
"452 112 CURVE SMOOTH",
"452 48 OFFCURVE",
"400 15 OFFCURVE",
"315 15 CURVE SMOOTH"
);
},
{
closed = 1;
nodes = (
"415 867 OFFCURVE",
"338 813 OFFCURVE",
"283 771 CURVE",
"288 760 LINE",
"349 770 OFFCURVE",
"453 797 OFFCURVE",
"514 825 CURVE",
"513 863 OFFCURVE",
"488 898 OFFCURVE",
"458 912 CURVE"
);
}
);
width = 678;
}
);
unicode = 015A;
},
{
glyphname = Scaron;
layers = (
{
layerId = "0EFCFE59-F23A-4210-A5A1-DE9F39E2245D";
name = Regular;
paths = (
{
closed = 1;
nodes = (
"208 15 OFFCURVE",
"142 52 OFFCURVE",
"115 212 CURVE",
"89 212 LINE",
"62 36 LINE",
"120 8 OFFCURVE",
"239 -12 OFFCURVE",
"320 -12 CURVE SMOOTH",
"533 -12 OFFCURVE",
"624 58 OFFCURVE",
"624 186 CURVE SMOOTH",
"624 323 OFFCURVE",
"540 363 OFFCURVE",
"390 436 CURVE SMOOTH",
"250 503 OFFCURVE",
"200 523 OFFCURVE",
"200 599 CURVE SMOOTH",
"200 664 OFFCURVE",
"256 685 OFFCURVE",
"332 685 CURVE SMOOTH",
"452 685 OFFCURVE",
"486 622 OFFCURVE",
"520 513 CURVE",
"547 513 LINE",
"571 666 LINE",
"520 690 OFFCURVE",
"433 712 OFFCURVE",
"340 712 CURVE SMOOTH",
"138 712 OFFCURVE",
"56 643 OFFCURVE",
"56 519 CURVE SMOOTH",
"56 378 OFFCURVE",
"144 333 OFFCURVE",
"285 271 CURVE SMOOTH",
"405 218 OFFCURVE",
"452 189 OFFCURVE",
"452 112 CURVE SMOOTH",
"452 48 OFFCURVE",
"400 15 OFFCURVE",
"315 15 CURVE SMOOTH"
);
},
{
closed = 1;
nodes = (
"355 760 LINE",
"394 809 OFFCURVE",
"440 856 OFFCURVE",
"489 897 CURVE",
"478 912 LINE",
"428 895 OFFCURVE",
"379 872 OFFCURVE",
"329 843 CURVE",
"279 872 OFFCURVE",
"230 895 OFFCURVE",
"180 912 CURVE",
"169 897 LINE",
"219 856 OFFCURVE",
"264 809 OFFCURVE",
"303 760 CURVE"
);
}
);
width = 678;
}
);
unicode = 0160;
},
{
glyphname = Scedilla;
layers = (
{
layerId = "0EFCFE59-F23A-4210-A5A1-DE9F39E2245D";
name = Regular;
paths = (
{
closed = 1;
nodes = (
"280 -76 LINE",
"327 -84 OFFCURVE",
"363 -99 OFFCURVE",
"363 -141 CURVE SMOOTH",
"363 -172 OFFCURVE",
"345 -183 OFFCURVE",
"307 -183 CURVE SMOOTH",
"277 -183 OFFCURVE",
"255 -178 OFFCURVE",
"238 -170 CURVE",
"231 -188 LINE",
"252 -199 OFFCURVE",
"292 -208 OFFCURVE",
"326 -208 CURVE SMOOTH",
"390 -208 OFFCURVE",
"447 -182 OFFCURVE",
"447 -123 CURVE SMOOTH",
"447 -67 OFFCURVE",
"393 -40 OFFCURVE",
"309 -36 CURVE",
"311 -12 LINE",
"320 -12 LINE SMOOTH",
"533 -12 OFFCURVE",
"624 58 OFFCURVE",
"624 186 CURVE SMOOTH",
"624 323 OFFCURVE",
"540 363 OFFCURVE",
"390 436 CURVE SMOOTH",
"250 503 OFFCURVE",
"200 523 OFFCURVE",
"200 599 CURVE SMOOTH",
"200 664 OFFCURVE",
"256 685 OFFCURVE",
"332 685 CURVE SMOOTH",
"452 685 OFFCURVE",
"486 622 OFFCURVE",
"520 513 CURVE",
"547 513 LINE",
"571 666 LINE",
"520 690 OFFCURVE",
"433 712 OFFCURVE",
"340 712 CURVE SMOOTH",
"138 712 OFFCURVE",
"56 643 OFFCURVE",
"56 519 CURVE SMOOTH",
"56 378 OFFCURVE",
"144 333 OFFCURVE",
"285 271 CURVE SMOOTH",
"405 218 OFFCURVE",
"452 189 OFFCURVE",
"452 112 CURVE SMOOTH",
"452 48 OFFCURVE",
"400 15 OFFCURVE",
"315 15 CURVE SMOOTH",
"208 15 OFFCURVE",
"142 52 OFFCURVE",
"115 212 CURVE",
"89 212 LINE",
"62 36 LINE",
"113 11 OFFCURVE",
"211 -7 OFFCURVE",
"289 -11 CURVE"
);
}
);
width = 678;
}
);
unicode = 015E;
},
{
glyphname = Scircumflex;
layers = (
{
layerId = "0EFCFE59-F23A-4210-A5A1-DE9F39E2245D";
name = Regular;
paths = (
{
closed = 1;
nodes = (
"208 15 OFFCURVE",
"142 52 OFFCURVE",
"115 212 CURVE",
"89 212 LINE",
"62 36 LINE",
"120 8 OFFCURVE",
"239 -12 OFFCURVE",
"320 -12 CURVE SMOOTH",
"533 -12 OFFCURVE",
"624 58 OFFCURVE",
"624 186 CURVE SMOOTH",
"624 323 OFFCURVE",
"540 363 OFFCURVE",
"390 436 CURVE SMOOTH",
"250 503 OFFCURVE",
"200 523 OFFCURVE",
"200 599 CURVE SMOOTH",
"200 664 OFFCURVE",
"256 685 OFFCURVE",
"332 685 CURVE SMOOTH",
"452 685 OFFCURVE",
"486 622 OFFCURVE",
"520 513 CURVE",
"547 513 LINE",
"571 666 LINE",
"520 690 OFFCURVE",
"433 712 OFFCURVE",
"340 712 CURVE SMOOTH",
"138 712 OFFCURVE",
"56 643 OFFCURVE",
"56 519 CURVE SMOOTH",
"56 378 OFFCURVE",
"144 333 OFFCURVE",
"285 271 CURVE SMOOTH",
"405 218 OFFCURVE",
"452 189 OFFCURVE",
"452 112 CURVE SMOOTH",
"452 48 OFFCURVE",
"400 15 OFFCURVE",
"315 15 CURVE SMOOTH"
);
},
{
closed = 1;
nodes = (
"303 912 LINE",
"264 863 OFFCURVE",
"219 816 OFFCURVE",
"169 775 CURVE",
"180 760 LINE",
"230 777 OFFCURVE",
"279 800 OFFCURVE",
"329 829 CURVE",
"379 800 OFFCURVE",
"428 777 OFFCURVE",
"478 760 CURVE",
"489 775 LINE",
"440 816 OFFCURVE",
"394 863 OFFCURVE",
"355 912 CURVE"
);
}
);
width = 678;
}
);
unicode = 015C;
},
{
glyphname = Scommaaccent;
layers = (
{
layerId = "0EFCFE59-F23A-4210-A5A1-DE9F39E2245D";
name = Regular;
paths = (
{
closed = 1;
nodes = (
"208 15 OFFCURVE",
"142 52 OFFCURVE",
"115 212 CURVE",
"89 212 LINE",
"62 36 LINE",
"120 8 OFFCURVE",
"239 -12 OFFCURVE",
"320 -12 CURVE SMOOTH",
"533 -12 OFFCURVE",
"624 58 OFFCURVE",
"624 186 CURVE SMOOTH",
"624 323 OFFCURVE",
"540 363 OFFCURVE",
"390 436 CURVE SMOOTH",
"250 503 OFFCURVE",
"200 523 OFFCURVE",
"200 599 CURVE SMOOTH",
"200 664 OFFCURVE",
"256 685 OFFCURVE",
"332 685 CURVE SMOOTH",
"452 685 OFFCURVE",
"486 622 OFFCURVE",
"520 513 CURVE",
"547 513 LINE",
"571 666 LINE",
"520 690 OFFCURVE",
"433 712 OFFCURVE",
"340 712 CURVE SMOOTH",
"138 712 OFFCURVE",
"56 643 OFFCURVE",
"56 519 CURVE SMOOTH",
"56 378 OFFCURVE",
"144 333 OFFCURVE",
"285 271 CURVE SMOOTH",
"405 218 OFFCURVE",
"452 189 OFFCURVE",
"452 112 CURVE SMOOTH",
"452 48 OFFCURVE",
"400 15 OFFCURVE",
"315 15 CURVE SMOOTH"
);
},
{
closed = 1;
nodes = (
"347 -251 OFFCURVE",
"334 -280 OFFCURVE",
"289 -326 CURVE",
"307 -343 LINE",
"369 -295 OFFCURVE",
"421 -220 OFFCURVE",
"421 -142 CURVE SMOOTH",
"421 -86 OFFCURVE",
"387 -58 OFFCURVE",
"337 -58 CURVE SMOOTH",
"285 -58 OFFCURVE",
"257 -93 OFFCURVE",
"257 -134 CURVE SMOOTH",
"257 -176 OFFCURVE",
"284 -213 OFFCURVE",
"348 -206 CURVE"
);
}
);
width = 678;
}
);
unicode = 0218;
},
{
glyphname = Sdotaccent;
layers = (
{
layerId = "0EFCFE59-F23A-4210-A5A1-DE9F39E2245D";
name = Regular;
paths = (
{
closed = 1;
nodes = (
"208 15 OFFCURVE",
"142 52 OFFCURVE",
"115 212 CURVE",
"89 212 LINE",
"62 36 LINE",
"120 8 OFFCURVE",
"239 -12 OFFCURVE",
"320 -12 CURVE SMOOTH",
"533 -12 OFFCURVE",
"624 58 OFFCURVE",
"624 186 CURVE SMOOTH",
"624 323 OFFCURVE",
"540 363 OFFCURVE",
"390 436 CURVE SMOOTH",
"250 503 OFFCURVE",
"200 523 OFFCURVE",
"200 599 CURVE SMOOTH",
"200 664 OFFCURVE",
"256 685 OFFCURVE",
"332 685 CURVE SMOOTH",
"452 685 OFFCURVE",
"486 622 OFFCURVE",
"520 513 CURVE",
"547 513 LINE",
"571 666 LINE",
"520 690 OFFCURVE",
"433 712 OFFCURVE",
"340 712 CURVE SMOOTH",
"138 712 OFFCURVE",
"56 643 OFFCURVE",
"56 519 CURVE SMOOTH",
"56 378 OFFCURVE",
"144 333 OFFCURVE",
"285 271 CURVE SMOOTH",
"405 218 OFFCURVE",
"452 189 OFFCURVE",
"452 112 CURVE SMOOTH",
"452 48 OFFCURVE",
"400 15 OFFCURVE",
"315 15 CURVE SMOOTH"
);
},
{
closed = 1;
nodes = (
"389 763 OFFCURVE",
"426 787 OFFCURVE",
"426 838 CURVE SMOOTH",
"426 889 OFFCURVE",
"389 913 OFFCURVE",
"339 913 CURVE SMOOTH",
"289 913 OFFCURVE",
"252 889 OFFCURVE",
"252 838 CURVE SMOOTH",
"252 787 OFFCURVE",
"289 763 OFFCURVE",
"339 763 CURVE SMOOTH"
);
}
);
width = 678;
}
);
unicode = 1E60;
},
{
glyphname = Sdotbelow;
layers = (
{
layerId = "0EFCFE59-F23A-4210-A5A1-DE9F39E2245D";
name = Regular;
paths = (
{
closed = 1;
nodes = (
"208 15 OFFCURVE",
"142 52 OFFCURVE",
"115 212 CURVE",
"89 212 LINE",
"62 36 LINE",
"120 8 OFFCURVE",
"239 -12 OFFCURVE",
"320 -12 CURVE SMOOTH",
"533 -12 OFFCURVE",
"624 58 OFFCURVE",
"624 186 CURVE SMOOTH",
"624 323 OFFCURVE",
"540 363 OFFCURVE",
"390 436 CURVE SMOOTH",
"250 503 OFFCURVE",
"200 523 OFFCURVE",
"200 599 CURVE SMOOTH",
"200 664 OFFCURVE",
"256 685 OFFCURVE",
"332 685 CURVE SMOOTH",
"452 685 OFFCURVE",
"486 622 OFFCURVE",
"520 513 CURVE",
"547 513 LINE",
"571 666 LINE",
"520 690 OFFCURVE",
"433 712 OFFCURVE",
"340 712 CURVE SMOOTH",
"138 712 OFFCURVE",
"56 643 OFFCURVE",
"56 519 CURVE SMOOTH",
"56 378 OFFCURVE",
"144 333 OFFCURVE",
"285 271 CURVE SMOOTH",
"405 218 OFFCURVE",
"452 189 OFFCURVE",
"452 112 CURVE SMOOTH",
"452 48 OFFCURVE",
"400 15 OFFCURVE",
"315 15 CURVE SMOOTH"
);
},
{
closed = 1;
nodes = (
"377 -208 OFFCURVE",
"412 -182 OFFCURVE",
"412 -133 CURVE SMOOTH",
"412 -84 OFFCURVE",
"377 -58 OFFCURVE",
"329 -58 CURVE SMOOTH",
"281 -58 OFFCURVE",
"246 -84 OFFCURVE",
"246 -133 CURVE SMOOTH",
"246 -182 OFFCURVE",
"281 -208 OFFCURVE",
"329 -208 CURVE SMOOTH"
);
}
);
width = 678;
}
);
unicode = 1E62;
},
{
glyphname = uni1E9E;
layers = (
{
layerId = "0EFCFE59-F23A-4210-A5A1-DE9F39E2245D";
name = Regular;
paths = (
{
closed = 1;
nodes = (
"26 0 LINE",
"291 0 LINE",
"291 560 LINE SMOOTH",
"291 652 OFFCURVE",
"302 708 OFFCURVE",
"402 708 CURVE SMOOTH",
"463 708 OFFCURVE",
"498 686 OFFCURVE",
"519 621 CURVE",
"519 579 OFFCURVE",
"494 494 OFFCURVE",
"371 426 CURVE",
"371 403 LINE",
"486 350 OFFCURVE",
"542 283 OFFCURVE",
"542 163 CURVE SMOOTH",
"542 84 OFFCURVE",
"527 30 OFFCURVE",
"456 30 CURVE SMOOTH",
"419 30 OFFCURVE",
"389 41 OFFCURVE",
"363 61 CURVE",
"350 42 LINE",
"375 19 OFFCURVE",
"424 -10 OFFCURVE",
"513 -10 CURVE SMOOTH",
"618 -10 OFFCURVE",
"739 39 OFFCURVE",
"739 194 CURVE SMOOTH",
"739 309 OFFCURVE",
"673 428 OFFCURVE",
"477 471 CURVE",
"578 487 OFFCURVE",
"644 522 OFFCURVE",
"684 589 CURVE",
"684 620 LINE",
"617 695 OFFCURVE",
"542 730 OFFCURVE",
"381 730 CURVE SMOOTH",
"211 730 OFFCURVE",
"87 670 OFFCURVE",
"87 546 CURVE SMOOTH",
"87 50 LINE SMOOTH",
"87 34 OFFCURVE",
"82 32 OFFCURVE",
"63 28 CURVE SMOOTH",
"26 20 LINE"
);
}
);
width = 787;
}
);
unicode = 1E9E;
},
{
glyphname = uni018F;
layers = (
{
layerId = "0EFCFE59-F23A-4210-A5A1-DE9F39E2245D";
name = Regular;
paths = (
{
closed = 1;
nodes = (
"288 17 OFFCURVE",
"274 73 OFFCURVE",
"274 159 CURVE SMOOTH",
"274 297 LINE",
"579 297 LINE",
"579 327 LINE",
"57 327 LINE",
"52 310 OFFCURVE",
"50 282 OFFCURVE",
"50 243 CURVE SMOOTH",
"50 115 OFFCURVE",
"124 -12 OFFCURVE",
"370 -12 CURVE SMOOTH",
"584 -12 OFFCURVE",
"758 84 OFFCURVE",
"758 340 CURVE SMOOTH",
"758 620 OFFCURVE",
"573 712 OFFCURVE",
"373 712 CURVE SMOOTH",
"251 712 OFFCURVE",
"156 665 OFFCURVE",
"103 616 CURVE",
"123 594 LINE",
"171 632 OFFCURVE",
"228 662 OFFCURVE",
"307 662 CURVE SMOOTH",
"485 662 OFFCURVE",
"538 534 OFFCURVE",
"538 314 CURVE SMOOTH",
"538 124 OFFCURVE",
"483 17 OFFCURVE",
"382 17 CURVE SMOOTH"
);
}
);
width = 814;
}
);
unicode = 018F;
},
{
glyphname = T;
layers = (
{
layerId = "0EFCFE59-F23A-4210-A5A1-DE9F39E2245D";
name = Regular;
paths = (
{
closed = 1;
nodes = (
"464 672 LINE",
"487 672 LINE SMOOTH",
"615 672 OFFCURVE",
"636 604 OFFCURVE",
"676 498 CURVE",
"698 498 LINE",
"698 700 LINE",
"26 700 LINE",
"26 498 LINE",
"48 498 LINE",
"88 604 OFFCURVE",
"109 672 OFFCURVE",
"237 672 CURVE SMOOTH",
"260 672 LINE",
"260 50 LINE SMOOTH",
"260 34 OFFCURVE",
"255 32 OFFCURVE",
"236 28 CURVE SMOOTH",
"199 20 LINE",
"199 0 LINE",
"525 0 LINE",
"525 20 LINE",
"488 28 LINE SMOOTH",
"469 32 OFFCURVE",
"464 34 OFFCURVE",
"464 50 CURVE SMOOTH"
);
}
);
width = 724;
}
);
unicode = 0054;
},
{
glyphname = Tbar;
layers = (
{
layerId = "0EFCFE59-F23A-4210-A5A1-DE9F39E2245D";
name = Regular;
paths = (
{
closed = 1;
nodes = (
"464 672 LINE",
"487 672 LINE SMOOTH",
"615 672 OFFCURVE",
"636 604 OFFCURVE",
"676 498 CURVE",
"698 498 LINE",
"698 700 LINE",
"26 700 LINE",
"26 498 LINE",
"48 498 LINE",
"88 604 OFFCURVE",
"109 672 OFFCURVE",
"237 672 CURVE SMOOTH",
"260 672 LINE",
"260 352 LINE",
"182 352 LINE",
"182 328 LINE",
"260 328 LINE",
"260 50 LINE SMOOTH",
"260 34 OFFCURVE",
"255 32 OFFCURVE",
"236 28 CURVE SMOOTH",
"199 20 LINE",
"199 0 LINE",
"525 0 LINE",
"525 20 LINE",
"488 28 LINE SMOOTH",
"469 32 OFFCURVE",
"464 34 OFFCURVE",
"464 50 CURVE SMOOTH",
"464 328 LINE",
"542 328 LINE",
"542 352 LINE",
"464 352 LINE"
);
}
);
width = 724;
}
);
unicode = 0166;
},
{
glyphname = Tcaron;
layers = (
{
layerId = "0EFCFE59-F23A-4210-A5A1-DE9F39E2245D";
name = Regular;
paths = (
{
closed = 1;
nodes = (
"464 672 LINE",
"487 672 LINE SMOOTH",
"615 672 OFFCURVE",
"636 604 OFFCURVE",
"676 498 CURVE",
"698 498 LINE",
"698 700 LINE",
"26 700 LINE",
"26 498 LINE",
"48 498 LINE",
"88 604 OFFCURVE",
"109 672 OFFCURVE",
"237 672 CURVE SMOOTH",
"260 672 LINE",
"260 50 LINE SMOOTH",
"260 34 OFFCURVE",
"255 32 OFFCURVE",
"236 28 CURVE SMOOTH",
"199 20 LINE",
"199 0 LINE",
"525 0 LINE",
"525 20 LINE",
"488 28 LINE SMOOTH",
"469 32 OFFCURVE",
"464 34 OFFCURVE",
"464 50 CURVE SMOOTH"
);
},
{
closed = 1;
nodes = (
"388 780 LINE",
"427 829 OFFCURVE",
"473 876 OFFCURVE",
"522 917 CURVE",
"511 932 LINE",
"461 915 OFFCURVE",
"412 892 OFFCURVE",
"362 863 CURVE",
"312 892 OFFCURVE",
"263 915 OFFCURVE",
"213 932 CURVE",
"202 917 LINE",
"252 876 OFFCURVE",
"297 829 OFFCURVE",
"336 780 CURVE"
);
}
);
width = 724;
}
);
unicode = 0164;
},
{
glyphname = Tcedilla;
layers = (
{
layerId = "0EFCFE59-F23A-4210-A5A1-DE9F39E2245D";
name = Regular;
paths = (
{
closed = 1;
nodes = (
"464 672 LINE",
"487 672 LINE SMOOTH",
"615 672 OFFCURVE",
"636 604 OFFCURVE",
"676 498 CURVE",
"698 498 LINE",
"698 700 LINE",
"26 700 LINE",
"26 498 LINE",
"48 498 LINE",
"88 604 OFFCURVE",
"109 672 OFFCURVE",
"237 672 CURVE SMOOTH",
"260 672 LINE",
"260 50 LINE SMOOTH",
"260 34 OFFCURVE",
"255 32 OFFCURVE",
"236 28 CURVE SMOOTH",
"199 20 LINE",
"199 0 LINE",
"525 0 LINE",
"525 20 LINE",
"488 28 LINE SMOOTH",
"469 32 OFFCURVE",
"464 34 OFFCURVE",
"464 50 CURVE SMOOTH"
);
},
{
closed = 1;
nodes = (
"370 -251 OFFCURVE",
"357 -280 OFFCURVE",
"312 -326 CURVE",
"330 -343 LINE",
"392 -295 OFFCURVE",
"444 -220 OFFCURVE",
"444 -142 CURVE SMOOTH",
"444 -86 OFFCURVE",
"410 -58 OFFCURVE",
"360 -58 CURVE SMOOTH",
"308 -58 OFFCURVE",
"280 -93 OFFCURVE",
"280 -134 CURVE SMOOTH",
"280 -176 OFFCURVE",
"307 -213 OFFCURVE",
"371 -206 CURVE"
);
}
);
width = 724;
}
);
unicode = 0162;
},
{
glyphname = Tcommaaccent;
layers = (
{
layerId = "0EFCFE59-F23A-4210-A5A1-DE9F39E2245D";
name = Regular;
paths = (
{
closed = 1;
nodes = (
"464 672 LINE",
"487 672 LINE SMOOTH",
"615 672 OFFCURVE",
"636 604 OFFCURVE",
"676 498 CURVE",
"698 498 LINE",
"698 700 LINE",
"26 700 LINE",
"26 498 LINE",
"48 498 LINE",
"88 604 OFFCURVE",
"109 672 OFFCURVE",
"237 672 CURVE SMOOTH",
"260 672 LINE",
"260 50 LINE SMOOTH",
"260 34 OFFCURVE",
"255 32 OFFCURVE",
"236 28 CURVE SMOOTH",
"199 20 LINE",
"199 0 LINE",
"525 0 LINE",
"525 20 LINE",
"488 28 LINE SMOOTH",
"469 32 OFFCURVE",
"464 34 OFFCURVE",
"464 50 CURVE SMOOTH"
);
},
{
closed = 1;
nodes = (
"370 -251 OFFCURVE",
"357 -280 OFFCURVE",
"312 -326 CURVE",
"330 -343 LINE",
"392 -295 OFFCURVE",
"444 -220 OFFCURVE",
"444 -142 CURVE SMOOTH",
"444 -86 OFFCURVE",
"410 -58 OFFCURVE",
"360 -58 CURVE SMOOTH",
"308 -58 OFFCURVE",
"280 -93 OFFCURVE",
"280 -134 CURVE SMOOTH",
"280 -176 OFFCURVE",
"307 -213 OFFCURVE",
"371 -206 CURVE"
);
}
);
width = 724;
}
);
unicode = 021A;
},
{
glyphname = Tdotbelow;
layers = (
{
layerId = "0EFCFE59-F23A-4210-A5A1-DE9F39E2245D";
name = Regular;
paths = (
{
closed = 1;
nodes = (
"464 672 LINE",
"487 672 LINE SMOOTH",
"615 672 OFFCURVE",
"636 604 OFFCURVE",
"676 498 CURVE",
"698 498 LINE",
"698 700 LINE",
"26 700 LINE",
"26 498 LINE",
"48 498 LINE",
"88 604 OFFCURVE",
"109 672 OFFCURVE",
"237 672 CURVE SMOOTH",
"260 672 LINE",
"260 50 LINE SMOOTH",
"260 34 OFFCURVE",
"255 32 OFFCURVE",
"236 28 CURVE SMOOTH",
"199 20 LINE",
"199 0 LINE",
"525 0 LINE",
"525 20 LINE",
"488 28 LINE SMOOTH",
"469 32 OFFCURVE",
"464 34 OFFCURVE",
"464 50 CURVE SMOOTH"
);
},
{
closed = 1;
nodes = (
"410 -208 OFFCURVE",
"445 -182 OFFCURVE",
"445 -133 CURVE SMOOTH",
"445 -84 OFFCURVE",
"410 -58 OFFCURVE",
"362 -58 CURVE SMOOTH",
"314 -58 OFFCURVE",
"279 -84 OFFCURVE",
"279 -133 CURVE SMOOTH",
"279 -182 OFFCURVE",
"314 -208 OFFCURVE",
"362 -208 CURVE SMOOTH"
);
}
);
width = 724;
}
);
unicode = 1E6C;
},
{
glyphname = Tlinebelow;
layers = (
{
layerId = "0EFCFE59-F23A-4210-A5A1-DE9F39E2245D";
name = Regular;
paths = (
{
closed = 1;
nodes = (
"464 672 LINE",
"487 672 LINE SMOOTH",
"615 672 OFFCURVE",
"636 604 OFFCURVE",
"676 498 CURVE",
"698 498 LINE",
"698 700 LINE",
"26 700 LINE",
"26 498 LINE",
"48 498 LINE",
"88 604 OFFCURVE",
"109 672 OFFCURVE",
"237 672 CURVE SMOOTH",
"260 672 LINE",
"260 50 LINE SMOOTH",
"260 34 OFFCURVE",
"255 32 OFFCURVE",
"236 28 CURVE SMOOTH",
"199 20 LINE",
"199 0 LINE",
"525 0 LINE",
"525 20 LINE",
"488 28 LINE SMOOTH",
"469 32 OFFCURVE",
"464 34 OFFCURVE",
"464 50 CURVE SMOOTH"
);
},
{
closed = 1;
nodes = (
"172 -96 LINE",
"552 -96 LINE",
"552 -72 LINE",
"172 -72 LINE"
);
}
);
width = 724;
}
);
unicode = 1E6E;
},
{
glyphname = U;
layers = (
{
layerId = "0EFCFE59-F23A-4210-A5A1-DE9F39E2245D";
name = Regular;
paths = (
{
closed = 1;
nodes = (
"675 651 LINE SMOOTH",
"675 666 OFFCURVE",
"680 668 OFFCURVE",
"698 672 CURVE SMOOTH",
"734 680 LINE",
"734 700 LINE",
"582 700 LINE",
"582 680 LINE",
"619 672 LINE SMOOTH",
"638 668 OFFCURVE",
"643 666 OFFCURVE",
"643 650 CURVE SMOOTH",
"643 252 LINE SMOOTH",
"643 117 OFFCURVE",
"576 22 OFFCURVE",
"445 22 CURVE SMOOTH",
"309 22 OFFCURVE",
"285 88 OFFCURVE",
"285 246 CURVE SMOOTH",
"285 651 LINE SMOOTH",
"285 666 OFFCURVE",
"290 668 OFFCURVE",
"308 672 CURVE SMOOTH",
"344 680 LINE",
"344 700 LINE",
"20 700 LINE",
"20 680 LINE",
"57 672 LINE SMOOTH",
"76 668 OFFCURVE",
"81 666 OFFCURVE",
"81 650 CURVE SMOOTH",
"81 264 LINE SMOOTH",
"81 67 OFFCURVE",
"184 -12 OFFCURVE",
"394 -12 CURVE SMOOTH",
"601 -12 OFFCURVE",
"673 104 OFFCURVE",
"675 260 CURVE SMOOTH"
);
}
);
width = 754;
}
);
unicode = 0055;
},
{
glyphname = Uacute;
layers = (
{
layerId = "0EFCFE59-F23A-4210-A5A1-DE9F39E2245D";
name = Regular;
paths = (
{
closed = 1;
nodes = (
"675 651 LINE SMOOTH",
"675 666 OFFCURVE",
"680 668 OFFCURVE",
"698 672 CURVE SMOOTH",
"734 680 LINE",
"734 700 LINE",
"582 700 LINE",
"582 680 LINE",
"619 672 LINE SMOOTH",
"638 668 OFFCURVE",
"643 666 OFFCURVE",
"643 650 CURVE SMOOTH",
"643 252 LINE SMOOTH",
"643 117 OFFCURVE",
"576 22 OFFCURVE",
"445 22 CURVE SMOOTH",
"309 22 OFFCURVE",
"285 88 OFFCURVE",
"285 246 CURVE SMOOTH",
"285 651 LINE SMOOTH",
"285 666 OFFCURVE",
"290 668 OFFCURVE",
"308 672 CURVE SMOOTH",
"344 680 LINE",
"344 700 LINE",
"20 700 LINE",
"20 680 LINE",
"57 672 LINE SMOOTH",
"76 668 OFFCURVE",
"81 666 OFFCURVE",
"81 650 CURVE SMOOTH",
"81 264 LINE SMOOTH",
"81 67 OFFCURVE",
"184 -12 OFFCURVE",
"394 -12 CURVE SMOOTH",
"601 -12 OFFCURVE",
"673 104 OFFCURVE",
"675 260 CURVE SMOOTH"
);
},
{
closed = 1;
nodes = (
"532 867 OFFCURVE",
"455 813 OFFCURVE",
"400 771 CURVE",
"405 760 LINE",
"466 770 OFFCURVE",
"570 797 OFFCURVE",
"631 825 CURVE",
"630 863 OFFCURVE",
"605 898 OFFCURVE",
"575 912 CURVE"
);
}
);
width = 754;
}
);
unicode = 00DA;
},
{
glyphname = Ubreve;
layers = (
{
layerId = "0EFCFE59-F23A-4210-A5A1-DE9F39E2245D";
name = Regular;
paths = (
{
closed = 1;
nodes = (
"675 651 LINE SMOOTH",
"675 666 OFFCURVE",
"680 668 OFFCURVE",
"698 672 CURVE SMOOTH",
"734 680 LINE",
"734 700 LINE",
"582 700 LINE",
"582 680 LINE",
"619 672 LINE SMOOTH",
"638 668 OFFCURVE",
"643 666 OFFCURVE",
"643 650 CURVE SMOOTH",
"643 252 LINE SMOOTH",
"643 117 OFFCURVE",
"576 22 OFFCURVE",
"445 22 CURVE SMOOTH",
"309 22 OFFCURVE",
"285 88 OFFCURVE",
"285 246 CURVE SMOOTH",
"285 651 LINE SMOOTH",
"285 666 OFFCURVE",
"290 668 OFFCURVE",
"308 672 CURVE SMOOTH",
"344 680 LINE",
"344 700 LINE",
"20 700 LINE",
"20 680 LINE",
"57 672 LINE SMOOTH",
"76 668 OFFCURVE",
"81 666 OFFCURVE",
"81 650 CURVE SMOOTH",
"81 264 LINE SMOOTH",
"81 67 OFFCURVE",
"184 -12 OFFCURVE",
"394 -12 CURVE SMOOTH",
"601 -12 OFFCURVE",
"673 104 OFFCURVE",
"675 260 CURVE SMOOTH"
);
},
{
closed = 1;
nodes = (
"540 760 OFFCURVE",
"583 820 OFFCURVE",
"585 913 CURVE",
"565 913 LINE",
"552 862 OFFCURVE",
"526 837 OFFCURVE",
"447 837 CURVE SMOOTH",
"368 837 OFFCURVE",
"342 862 OFFCURVE",
"329 913 CURVE",
"309 913 LINE",
"311 820 OFFCURVE",
"354 760 OFFCURVE",
"447 760 CURVE SMOOTH"
);
}
);
width = 754;
}
);
unicode = 016C;
},
{
glyphname = Ucaron;
layers = (
{
layerId = "0EFCFE59-F23A-4210-A5A1-DE9F39E2245D";
name = Regular;
paths = (
{
closed = 1;
nodes = (
"675 651 LINE SMOOTH",
"675 666 OFFCURVE",
"680 668 OFFCURVE",
"698 672 CURVE SMOOTH",
"734 680 LINE",
"734 700 LINE",
"582 700 LINE",
"582 680 LINE",
"619 672 LINE SMOOTH",
"638 668 OFFCURVE",
"643 666 OFFCURVE",
"643 650 CURVE SMOOTH",
"643 252 LINE SMOOTH",
"643 117 OFFCURVE",
"576 22 OFFCURVE",
"445 22 CURVE SMOOTH",
"309 22 OFFCURVE",
"285 88 OFFCURVE",
"285 246 CURVE SMOOTH",
"285 651 LINE SMOOTH",
"285 666 OFFCURVE",
"290 668 OFFCURVE",
"308 672 CURVE SMOOTH",
"344 680 LINE",
"344 700 LINE",
"20 700 LINE",
"20 680 LINE",
"57 672 LINE SMOOTH",
"76 668 OFFCURVE",
"81 666 OFFCURVE",
"81 650 CURVE SMOOTH",
"81 264 LINE SMOOTH",
"81 67 OFFCURVE",
"184 -12 OFFCURVE",
"394 -12 CURVE SMOOTH",
"601 -12 OFFCURVE",
"673 104 OFFCURVE",
"675 260 CURVE SMOOTH"
);
},
{
closed = 1;
nodes = (
"493 760 LINE",
"532 809 OFFCURVE",
"578 856 OFFCURVE",
"627 897 CURVE",
"616 912 LINE",
"566 895 OFFCURVE",
"517 872 OFFCURVE",
"467 843 CURVE",
"417 872 OFFCURVE",
"368 895 OFFCURVE",
"318 912 CURVE",
"307 897 LINE",
"357 856 OFFCURVE",
"402 809 OFFCURVE",
"441 760 CURVE"
);
}
);
width = 754;
}
);
unicode = 01D3;
},
{
glyphname = Ucircumflex;
layers = (
{
layerId = "0EFCFE59-F23A-4210-A5A1-DE9F39E2245D";
name = Regular;
paths = (
{
closed = 1;
nodes = (
"675 651 LINE SMOOTH",
"675 666 OFFCURVE",
"680 668 OFFCURVE",
"698 672 CURVE SMOOTH",
"734 680 LINE",
"734 700 LINE",
"582 700 LINE",
"582 680 LINE",
"619 672 LINE SMOOTH",
"638 668 OFFCURVE",
"643 666 OFFCURVE",
"643 650 CURVE SMOOTH",
"643 252 LINE SMOOTH",
"643 117 OFFCURVE",
"576 22 OFFCURVE",
"445 22 CURVE SMOOTH",
"309 22 OFFCURVE",
"285 88 OFFCURVE",
"285 246 CURVE SMOOTH",
"285 651 LINE SMOOTH",
"285 666 OFFCURVE",
"290 668 OFFCURVE",
"308 672 CURVE SMOOTH",
"344 680 LINE",
"344 700 LINE",
"20 700 LINE",
"20 680 LINE",
"57 672 LINE SMOOTH",
"76 668 OFFCURVE",
"81 666 OFFCURVE",
"81 650 CURVE SMOOTH",
"81 264 LINE SMOOTH",
"81 67 OFFCURVE",
"184 -12 OFFCURVE",
"394 -12 CURVE SMOOTH",
"601 -12 OFFCURVE",
"673 104 OFFCURVE",
"675 260 CURVE SMOOTH"
);
},
{
closed = 1;
nodes = (
"421 912 LINE",
"382 863 OFFCURVE",
"337 816 OFFCURVE",
"287 775 CURVE",
"298 760 LINE",
"348 777 OFFCURVE",
"397 800 OFFCURVE",
"447 829 CURVE",
"497 800 OFFCURVE",
"546 777 OFFCURVE",
"596 760 CURVE",
"607 775 LINE",
"558 816 OFFCURVE",
"512 863 OFFCURVE",
"473 912 CURVE"
);
}
);
width = 754;
}
);
unicode = 00DB;
},
{
glyphname = Udieresis;
layers = (
{
layerId = "0EFCFE59-F23A-4210-A5A1-DE9F39E2245D";
name = Regular;
paths = (
{
closed = 1;
nodes = (
"675 651 LINE SMOOTH",
"675 666 OFFCURVE",
"680 668 OFFCURVE",
"698 672 CURVE SMOOTH",
"734 680 LINE",
"734 700 LINE",
"582 700 LINE",
"582 680 LINE",
"619 672 LINE SMOOTH",
"638 668 OFFCURVE",
"643 666 OFFCURVE",
"643 650 CURVE SMOOTH",
"643 252 LINE SMOOTH",
"643 117 OFFCURVE",
"576 22 OFFCURVE",
"445 22 CURVE SMOOTH",
"309 22 OFFCURVE",
"285 88 OFFCURVE",
"285 246 CURVE SMOOTH",
"285 651 LINE SMOOTH",
"285 666 OFFCURVE",
"290 668 OFFCURVE",
"308 672 CURVE SMOOTH",
"344 680 LINE",
"344 700 LINE",
"20 700 LINE",
"20 680 LINE",
"57 672 LINE SMOOTH",
"76 668 OFFCURVE",
"81 666 OFFCURVE",
"81 650 CURVE SMOOTH",
"81 264 LINE SMOOTH",
"81 67 OFFCURVE",
"184 -12 OFFCURVE",
"394 -12 CURVE SMOOTH",
"601 -12 OFFCURVE",
"673 104 OFFCURVE",
"675 260 CURVE SMOOTH"
);
},
{
closed = 1;
nodes = (
"361 767 OFFCURVE",
"392 799 OFFCURVE",
"392 840 CURVE SMOOTH",
"392 881 OFFCURVE",
"361 913 OFFCURVE",
"315 913 CURVE SMOOTH",
"269 913 OFFCURVE",
"238 881 OFFCURVE",
"238 840 CURVE SMOOTH",
"238 799 OFFCURVE",
"269 767 OFFCURVE",
"315 767 CURVE SMOOTH"
);
},
{
closed = 1;
nodes = (
"599 767 OFFCURVE",
"630 799 OFFCURVE",
"630 840 CURVE SMOOTH",
"630 881 OFFCURVE",
"599 913 OFFCURVE",
"553 913 CURVE SMOOTH",
"507 913 OFFCURVE",
"476 881 OFFCURVE",
"476 840 CURVE SMOOTH",
"476 799 OFFCURVE",
"507 767 OFFCURVE",
"553 767 CURVE SMOOTH"
);
}
);
width = 748;
}
);
unicode = 00DC;
},
{
glyphname = Udieresisacute;
layers = (
{
layerId = "0EFCFE59-F23A-4210-A5A1-DE9F39E2245D";
name = Regular;
paths = (
{
closed = 1;
nodes = (
"675 651 LINE SMOOTH",
"675 666 OFFCURVE",
"680 668 OFFCURVE",
"698 672 CURVE SMOOTH",
"734 680 LINE",
"734 700 LINE",
"582 700 LINE",
"582 680 LINE",
"619 672 LINE SMOOTH",
"638 668 OFFCURVE",
"643 666 OFFCURVE",
"643 650 CURVE SMOOTH",
"643 252 LINE SMOOTH",
"643 117 OFFCURVE",
"576 22 OFFCURVE",
"445 22 CURVE SMOOTH",
"309 22 OFFCURVE",
"285 88 OFFCURVE",
"285 246 CURVE SMOOTH",
"285 651 LINE SMOOTH",
"285 666 OFFCURVE",
"290 668 OFFCURVE",
"308 672 CURVE SMOOTH",
"344 680 LINE",
"344 700 LINE",
"20 700 LINE",
"20 680 LINE",
"57 672 LINE SMOOTH",
"76 668 OFFCURVE",
"81 666 OFFCURVE",
"81 650 CURVE SMOOTH",
"81 264 LINE SMOOTH",
"81 67 OFFCURVE",
"184 -12 OFFCURVE",
"394 -12 CURVE SMOOTH",
"601 -12 OFFCURVE",
"673 104 OFFCURVE",
"675 260 CURVE SMOOTH"
);
},
{
closed = 1;
nodes = (
"381 770 OFFCURVE",
"413 800 OFFCURVE",
"413 837 CURVE SMOOTH",
"413 874 OFFCURVE",
"381 904 OFFCURVE",
"344 904 CURVE SMOOTH",
"307 904 OFFCURVE",
"275 874 OFFCURVE",
"275 837 CURVE SMOOTH",
"275 800 OFFCURVE",
"307 770 OFFCURVE",
"344 770 CURVE SMOOTH"
);
},
{
closed = 1;
nodes = (
"623 770 OFFCURVE",
"655 800 OFFCURVE",
"655 837 CURVE SMOOTH",
"655 874 OFFCURVE",
"623 904 OFFCURVE",
"586 904 CURVE SMOOTH",
"549 904 OFFCURVE",
"517 874 OFFCURVE",
"517 837 CURVE SMOOTH",
"517 800 OFFCURVE",
"549 770 OFFCURVE",
"586 770 CURVE SMOOTH"
);
},
{
closed = 1;
nodes = (
"505 1008 OFFCURVE",
"474 960 OFFCURVE",
"439 909 CURVE",
"450 899 LINE",
"499 924 OFFCURVE",
"548 964 OFFCURVE",
"596 1007 CURVE",
"585 1036 OFFCURVE",
"558 1057 OFFCURVE",
"530 1059 CURVE"
);
}
);
width = 754;
}
);
unicode = 01D7;
},
{
glyphname = Udieresiscaron;
layers = (
{
layerId = "0EFCFE59-F23A-4210-A5A1-DE9F39E2245D";
name = Regular;
paths = (
{
closed = 1;
nodes = (
"675 651 LINE SMOOTH",
"675 666 OFFCURVE",
"680 668 OFFCURVE",
"698 672 CURVE SMOOTH",
"734 680 LINE",
"734 700 LINE",
"582 700 LINE",
"582 680 LINE",
"619 672 LINE SMOOTH",
"638 668 OFFCURVE",
"643 666 OFFCURVE",
"643 650 CURVE SMOOTH",
"643 252 LINE SMOOTH",
"643 117 OFFCURVE",
"576 22 OFFCURVE",
"445 22 CURVE SMOOTH",
"309 22 OFFCURVE",
"285 88 OFFCURVE",
"285 246 CURVE SMOOTH",
"285 651 LINE SMOOTH",
"285 666 OFFCURVE",
"290 668 OFFCURVE",
"308 672 CURVE SMOOTH",
"344 680 LINE",
"344 700 LINE",
"20 700 LINE",
"20 680 LINE",
"57 672 LINE SMOOTH",
"76 668 OFFCURVE",
"81 666 OFFCURVE",
"81 650 CURVE SMOOTH",
"81 264 LINE SMOOTH",
"81 67 OFFCURVE",
"184 -12 OFFCURVE",
"394 -12 CURVE SMOOTH",
"601 -12 OFFCURVE",
"673 104 OFFCURVE",
"675 260 CURVE SMOOTH"
);
},
{
closed = 1;
nodes = (
"381 770 OFFCURVE",
"413 800 OFFCURVE",
"413 837 CURVE SMOOTH",
"413 874 OFFCURVE",
"381 904 OFFCURVE",
"344 904 CURVE SMOOTH",
"307 904 OFFCURVE",
"275 874 OFFCURVE",
"275 837 CURVE SMOOTH",
"275 800 OFFCURVE",
"307 770 OFFCURVE",
"344 770 CURVE SMOOTH"
);
},
{
closed = 1;
nodes = (
"623 770 OFFCURVE",
"655 800 OFFCURVE",
"655 837 CURVE SMOOTH",
"655 874 OFFCURVE",
"623 904 OFFCURVE",
"586 904 CURVE SMOOTH",
"549 904 OFFCURVE",
"517 874 OFFCURVE",
"517 837 CURVE SMOOTH",
"517 800 OFFCURVE",
"549 770 OFFCURVE",
"586 770 CURVE SMOOTH"
);
},
{
closed = 1;
nodes = (
"491 931 LINE",
"532 976 OFFCURVE",
"574 1013 OFFCURVE",
"621 1050 CURVE",
"610 1065 LINE",
"566 1051 OFFCURVE",
"510 1030 OFFCURVE",
"465 1004 CURVE",
"420 1030 OFFCURVE",
"364 1051 OFFCURVE",
"320 1065 CURVE",
"309 1050 LINE",
"360 1013 OFFCURVE",
"398 976 OFFCURVE",
"439 931 CURVE"
);
}
);
width = 754;
}
);
unicode = 01D9;
},
{
glyphname = Udieresisgrave;
layers = (
{
layerId = "0EFCFE59-F23A-4210-A5A1-DE9F39E2245D";
name = Regular;
paths = (
{
closed = 1;
nodes = (
"675 651 LINE SMOOTH",
"675 666 OFFCURVE",
"680 668 OFFCURVE",
"698 672 CURVE SMOOTH",
"734 680 LINE",
"734 700 LINE",
"582 700 LINE",
"582 680 LINE",
"619 672 LINE SMOOTH",
"638 668 OFFCURVE",
"643 666 OFFCURVE",
"643 650 CURVE SMOOTH",
"643 252 LINE SMOOTH",
"643 117 OFFCURVE",
"576 22 OFFCURVE",
"445 22 CURVE SMOOTH",
"309 22 OFFCURVE",
"285 88 OFFCURVE",
"285 246 CURVE SMOOTH",
"285 651 LINE SMOOTH",
"285 666 OFFCURVE",
"290 668 OFFCURVE",
"308 672 CURVE SMOOTH",
"344 680 LINE",
"344 700 LINE",
"20 700 LINE",
"20 680 LINE",
"57 672 LINE SMOOTH",
"76 668 OFFCURVE",
"81 666 OFFCURVE",
"81 650 CURVE SMOOTH",
"81 264 LINE SMOOTH",
"81 67 OFFCURVE",
"184 -12 OFFCURVE",
"394 -12 CURVE SMOOTH",
"601 -12 OFFCURVE",
"673 104 OFFCURVE",
"675 260 CURVE SMOOTH"
);
},
{
closed = 1;
nodes = (
"381 770 OFFCURVE",
"413 800 OFFCURVE",
"413 837 CURVE SMOOTH",
"413 874 OFFCURVE",
"381 904 OFFCURVE",
"344 904 CURVE SMOOTH",
"307 904 OFFCURVE",
"275 874 OFFCURVE",
"275 837 CURVE SMOOTH",
"275 800 OFFCURVE",
"307 770 OFFCURVE",
"344 770 CURVE SMOOTH"
);
},
{
closed = 1;
nodes = (
"623 770 OFFCURVE",
"655 800 OFFCURVE",
"655 837 CURVE SMOOTH",
"655 874 OFFCURVE",
"623 904 OFFCURVE",
"586 904 CURVE SMOOTH",
"549 904 OFFCURVE",
"517 874 OFFCURVE",
"517 837 CURVE SMOOTH",
"517 800 OFFCURVE",
"549 770 OFFCURVE",
"586 770 CURVE SMOOTH"
);
},
{
closed = 1;
nodes = (
"376 1057 OFFCURVE",
"349 1036 OFFCURVE",
"338 1007 CURVE",
"386 964 OFFCURVE",
"435 924 OFFCURVE",
"484 899 CURVE",
"495 909 LINE",
"460 960 OFFCURVE",
"429 1008 OFFCURVE",
"404 1059 CURVE"
);
}
);
width = 754;
}
);
unicode = 01DB;
},
{
glyphname = Udieresismacron;
layers = (
{
layerId = "0EFCFE59-F23A-4210-A5A1-DE9F39E2245D";
name = Regular;
paths = (
{
closed = 1;
nodes = (
"675 651 LINE SMOOTH",
"675 666 OFFCURVE",
"680 668 OFFCURVE",
"698 672 CURVE SMOOTH",
"734 680 LINE",
"734 700 LINE",
"582 700 LINE",
"582 680 LINE",
"619 672 LINE SMOOTH",
"638 668 OFFCURVE",
"643 666 OFFCURVE",
"643 650 CURVE SMOOTH",
"643 252 LINE SMOOTH",
"643 117 OFFCURVE",
"576 22 OFFCURVE",
"445 22 CURVE SMOOTH",
"309 22 OFFCURVE",
"285 88 OFFCURVE",
"285 246 CURVE SMOOTH",
"285 651 LINE SMOOTH",
"285 666 OFFCURVE",
"290 668 OFFCURVE",
"308 672 CURVE SMOOTH",
"344 680 LINE",
"344 700 LINE",
"20 700 LINE",
"20 680 LINE",
"57 672 LINE SMOOTH",
"76 668 OFFCURVE",
"81 666 OFFCURVE",
"81 650 CURVE SMOOTH",
"81 264 LINE SMOOTH",
"81 67 OFFCURVE",
"184 -12 OFFCURVE",
"394 -12 CURVE SMOOTH",
"601 -12 OFFCURVE",
"673 104 OFFCURVE",
"675 260 CURVE SMOOTH"
);
},
{
closed = 1;
nodes = (
"381 770 OFFCURVE",
"413 800 OFFCURVE",
"413 837 CURVE SMOOTH",
"413 874 OFFCURVE",
"381 904 OFFCURVE",
"344 904 CURVE SMOOTH",
"307 904 OFFCURVE",
"275 874 OFFCURVE",
"275 837 CURVE SMOOTH",
"275 800 OFFCURVE",
"307 770 OFFCURVE",
"344 770 CURVE SMOOTH"
);
},
{
closed = 1;
nodes = (
"623 770 OFFCURVE",
"655 800 OFFCURVE",
"655 837 CURVE SMOOTH",
"655 874 OFFCURVE",
"623 904 OFFCURVE",
"586 904 CURVE SMOOTH",
"549 904 OFFCURVE",
"517 874 OFFCURVE",
"517 837 CURVE SMOOTH",
"517 800 OFFCURVE",
"549 770 OFFCURVE",
"586 770 CURVE SMOOTH"
);
},
{
closed = 1;
nodes = (
"275 947 LINE",
"655 947 LINE",
"655 971 LINE",
"275 971 LINE"
);
}
);
width = 754;
}
);
unicode = 01D5;
},
{
glyphname = Udotbelow;
layers = (
{
layerId = "0EFCFE59-F23A-4210-A5A1-DE9F39E2245D";
name = Regular;
paths = (
{
closed = 1;
nodes = (
"675 651 LINE SMOOTH",
"675 666 OFFCURVE",
"680 668 OFFCURVE",
"698 672 CURVE SMOOTH",
"734 680 LINE",
"734 700 LINE",
"582 700 LINE",
"582 680 LINE",
"619 672 LINE SMOOTH",
"638 668 OFFCURVE",
"643 666 OFFCURVE",
"643 650 CURVE SMOOTH",
"643 252 LINE SMOOTH",
"643 117 OFFCURVE",
"576 22 OFFCURVE",
"445 22 CURVE SMOOTH",
"309 22 OFFCURVE",
"285 88 OFFCURVE",
"285 246 CURVE SMOOTH",
"285 651 LINE SMOOTH",
"285 666 OFFCURVE",
"290 668 OFFCURVE",
"308 672 CURVE SMOOTH",
"344 680 LINE",
"344 700 LINE",
"20 700 LINE",
"20 680 LINE",
"57 672 LINE SMOOTH",
"76 668 OFFCURVE",
"81 666 OFFCURVE",
"81 650 CURVE SMOOTH",
"81 264 LINE SMOOTH",
"81 67 OFFCURVE",
"184 -12 OFFCURVE",
"394 -12 CURVE SMOOTH",
"601 -12 OFFCURVE",
"673 104 OFFCURVE",
"675 260 CURVE SMOOTH"
);
},
{
closed = 1;
nodes = (
"505 -208 OFFCURVE",
"540 -182 OFFCURVE",
"540 -133 CURVE SMOOTH",
"540 -84 OFFCURVE",
"505 -58 OFFCURVE",
"457 -58 CURVE SMOOTH",
"409 -58 OFFCURVE",
"374 -84 OFFCURVE",
"374 -133 CURVE SMOOTH",
"374 -182 OFFCURVE",
"409 -208 OFFCURVE",
"457 -208 CURVE SMOOTH"
);
}
);
width = 754;
}
);
unicode = 1EE4;
},
{
glyphname = Ugrave;
layers = (
{
layerId = "0EFCFE59-F23A-4210-A5A1-DE9F39E2245D";
name = Regular;
paths = (
{
closed = 1;
nodes = (
"675 651 LINE SMOOTH",
"675 666 OFFCURVE",
"680 668 OFFCURVE",
"698 672 CURVE SMOOTH",
"734 680 LINE",
"734 700 LINE",
"582 700 LINE",
"582 680 LINE",
"619 672 LINE SMOOTH",
"638 668 OFFCURVE",
"643 666 OFFCURVE",
"643 650 CURVE SMOOTH",
"643 252 LINE SMOOTH",
"643 117 OFFCURVE",
"576 22 OFFCURVE",
"445 22 CURVE SMOOTH",
"309 22 OFFCURVE",
"285 88 OFFCURVE",
"285 246 CURVE SMOOTH",
"285 651 LINE SMOOTH",
"285 666 OFFCURVE",
"290 668 OFFCURVE",
"308 672 CURVE SMOOTH",
"344 680 LINE",
"344 700 LINE",
"20 700 LINE",
"20 680 LINE",
"57 672 LINE SMOOTH",
"76 668 OFFCURVE",
"81 666 OFFCURVE",
"81 650 CURVE SMOOTH",
"81 264 LINE SMOOTH",
"81 67 OFFCURVE",
"184 -12 OFFCURVE",
"394 -12 CURVE SMOOTH",
"601 -12 OFFCURVE",
"673 104 OFFCURVE",
"675 260 CURVE SMOOTH"
);
},
{
closed = 1;
nodes = (
"289 898 OFFCURVE",
"264 863 OFFCURVE",
"263 825 CURVE",
"324 797 OFFCURVE",
"428 770 OFFCURVE",
"489 760 CURVE",
"494 771 LINE",
"439 813 OFFCURVE",
"362 867 OFFCURVE",
"319 912 CURVE"
);
}
);
width = 754;
}
);
unicode = 00D9;
},
{
glyphname = Uhookabove;
layers = (
{
layerId = "0EFCFE59-F23A-4210-A5A1-DE9F39E2245D";
name = Regular;
paths = (
{
closed = 1;
nodes = (
"675 651 LINE SMOOTH",
"675 666 OFFCURVE",
"680 668 OFFCURVE",
"698 672 CURVE SMOOTH",
"734 680 LINE",
"734 700 LINE",
"582 700 LINE",
"582 680 LINE",
"619 672 LINE SMOOTH",
"638 668 OFFCURVE",
"643 666 OFFCURVE",
"643 650 CURVE SMOOTH",
"643 252 LINE SMOOTH",
"643 117 OFFCURVE",
"576 22 OFFCURVE",
"445 22 CURVE SMOOTH",
"309 22 OFFCURVE",
"285 88 OFFCURVE",
"285 246 CURVE SMOOTH",
"285 651 LINE SMOOTH",
"285 666 OFFCURVE",
"290 668 OFFCURVE",
"308 672 CURVE SMOOTH",
"344 680 LINE",
"344 700 LINE",
"20 700 LINE",
"20 680 LINE",
"57 672 LINE SMOOTH",
"76 668 OFFCURVE",
"81 666 OFFCURVE",
"81 650 CURVE SMOOTH",
"81 264 LINE SMOOTH",
"81 67 OFFCURVE",
"184 -12 OFFCURVE",
"394 -12 CURVE SMOOTH",
"601 -12 OFFCURVE",
"673 104 OFFCURVE",
"675 260 CURVE SMOOTH"
);
},
{
closed = 1;
nodes = (
"482 794 LINE",
"542 808 OFFCURVE",
"584 833 OFFCURVE",
"584 881 CURVE SMOOTH",
"584 932 OFFCURVE",
"542 951 OFFCURVE",
"489 951 CURVE SMOOTH",
"434 951 OFFCURVE",
"397 936 OFFCURVE",
"374 925 CURVE",
"381 905 LINE",
"403 914 OFFCURVE",
"419 919 OFFCURVE",
"447 919 CURVE SMOOTH",
"472 919 OFFCURVE",
"486 908 OFFCURVE",
"486 883 CURVE SMOOTH",
"486 849 OFFCURVE",
"473 827 OFFCURVE",
"444 809 CURVE",
"450 760 LINE",
"478 760 LINE"
);
}
);
width = 754;
}
);
unicode = 1EE6;
},
{
glyphname = Uhorn;
layers = (
{
layerId = "0EFCFE59-F23A-4210-A5A1-DE9F39E2245D";
name = Regular;
paths = (
{
closed = 1;
nodes = (
"675 700 LINE",
"643 700 LINE",
"643 252 LINE SMOOTH",
"643 117 OFFCURVE",
"576 22 OFFCURVE",
"445 22 CURVE SMOOTH",
"309 22 OFFCURVE",
"285 88 OFFCURVE",
"285 246 CURVE SMOOTH",
"285 651 LINE SMOOTH",
"285 666 OFFCURVE",
"290 669 OFFCURVE",
"308 672 CURVE",
"344 680 LINE",
"344 700 LINE",
"20 700 LINE",
"20 680 LINE",
"57 672 LINE SMOOTH",
"76 668 OFFCURVE",
"81 666 OFFCURVE",
"81 650 CURVE SMOOTH",
"81 264 LINE SMOOTH",
"81 67 OFFCURVE",
"184 -12 OFFCURVE",
"394 -12 CURVE SMOOTH",
"601 -12 OFFCURVE",
"673 104 OFFCURVE",
"675 260 CURVE SMOOTH",
"675 618 LINE",
"750 645 OFFCURVE",
"828 690 OFFCURVE",
"828 756 CURVE SMOOTH",
"828 816 OFFCURVE",
"762 833 OFFCURVE",
"682 833 CURVE",
"662 803 LINE",
"706 794 OFFCURVE",
"730 777 OFFCURVE",
"730 736 CURVE SMOOTH",
"730 700 OFFCURVE",
"717 671 OFFCURVE",
"675 645 CURVE"
);
}
);
width = 778;
}
);
unicode = 01AF;
},
{
glyphname = Uhornacute;
layers = (
{
layerId = "0EFCFE59-F23A-4210-A5A1-DE9F39E2245D";
name = Regular;
paths = (
{
closed = 1;
nodes = (
"675 700 LINE",
"643 700 LINE",
"643 252 LINE SMOOTH",
"643 117 OFFCURVE",
"576 22 OFFCURVE",
"445 22 CURVE SMOOTH",
"309 22 OFFCURVE",
"285 88 OFFCURVE",
"285 246 CURVE SMOOTH",
"285 651 LINE SMOOTH",
"285 666 OFFCURVE",
"290 669 OFFCURVE",
"308 672 CURVE",
"344 680 LINE",
"344 700 LINE",
"20 700 LINE",
"20 680 LINE",
"57 672 LINE SMOOTH",
"76 668 OFFCURVE",
"81 666 OFFCURVE",
"81 650 CURVE SMOOTH",
"81 264 LINE SMOOTH",
"81 67 OFFCURVE",
"184 -12 OFFCURVE",
"394 -12 CURVE SMOOTH",
"601 -12 OFFCURVE",
"673 104 OFFCURVE",
"675 260 CURVE SMOOTH",
"675 618 LINE",
"750 645 OFFCURVE",
"828 690 OFFCURVE",
"828 756 CURVE SMOOTH",
"828 816 OFFCURVE",
"762 833 OFFCURVE",
"682 833 CURVE",
"662 803 LINE",
"706 794 OFFCURVE",
"730 777 OFFCURVE",
"730 736 CURVE SMOOTH",
"730 700 OFFCURVE",
"717 671 OFFCURVE",
"675 645 CURVE"
);
},
{
closed = 1;
nodes = (
"532 867 OFFCURVE",
"455 813 OFFCURVE",
"400 771 CURVE",
"405 760 LINE",
"466 770 OFFCURVE",
"570 797 OFFCURVE",
"631 825 CURVE",
"630 863 OFFCURVE",
"605 898 OFFCURVE",
"575 912 CURVE"
);
}
);
width = 778;
}
);
unicode = 1EE8;
},
